Marhey-ExtraBold.ufo
<glyph name="exclam" format="2">
  <advance width="299"/>
  <unicode hex="0021"/>
  <outline>
    <contour>
      <point x="219" y="214" type="line"/>
      <point x="249" y="396"/>
      <point x="260" y="598"/>
      <point x="259" y="772" type="curve"/>
      <point x="40" y="738" type="line"/>
      <point x="56" y="580"/>
      <point x="76" y="368"/>
      <point x="71" y="222" type="curve"/>
    </contour>
    <contour>
      <point x="213" y="-8" type="line"/>
      <point x="221" y="43"/>
      <point x="225" y="112"/>
      <point x="219" y="160" type="curve"/>
      <point x="59" y="166" type="line"/>
      <point x="65" y="111"/>
      <point x="61" y="53"/>
      <point x="55" y="3" type="curve"/>
    </contour>
  </outline>
</glyph>
<glyph name="numbersign" format="2">
  <advance width="864"/>
  <unicode hex="0023"/>
  <outline>
    <contour>
      <point x="147" y="9" type="curve"/>
      <point x="305" y="20" type="line"/>
      <point x="376" y="260"/>
      <point x="428" y="500"/>
      <point x="459" y="740" type="curve"/>
      <point x="271" y="728" type="line"/>
      <point x="250" y="488"/>
      <point x="208" y="249"/>
    </contour>
    <contour>
      <point x="798" y="162" type="curve"/>
      <point x="765" y="313" type="line"/>
      <point x="516" y="346"/>
      <point x="270" y="361"/>
      <point x="27" y="355" type="curve"/>
      <point x="76" y="184" type="line"/>
      <point x="313" y="196"/>
      <point x="555" y="189"/>
    </contour>
    <contour>
      <point x="837" y="418" type="curve"/>
      <point x="796" y="602" type="line"/>
      <point x="555" y="590"/>
      <point x="313" y="598"/>
      <point x="67" y="625" type="curve"/>
      <point x="102" y="470" type="line"/>
      <point x="350" y="433"/>
      <point x="595" y="415"/>
    </contour>
    <contour>
      <point x="442" y="25" type="curve"/>
      <point x="618" y="47" type="line"/>
      <point x="639" y="284"/>
      <point x="680" y="522"/>
      <point x="741" y="759" type="curve"/>
      <point x="587" y="750" type="line"/>
      <point x="519" y="508"/>
      <point x="470" y="267"/>
    </contour>
  </outline>
</glyph>
<glyph name="dollar" format="2">
  <advance width="714"/>
  <unicode hex="0024"/>
  <outline>
    <contour>
      <point x="259" y="-123" type="line"/>
      <point x="423" y="-106" type="line"/>
      <point x="410" y="152" type="line"/>
      <point x="287" y="141" type="line"/>
    </contour>
    <contour>
      <point x="302" y="661" type="line"/>
      <point x="425" y="672" type="line"/>
      <point x="453" y="846" type="line"/>
      <point x="289" y="829" type="line"/>
    </contour>
    <contour>
      <point x="365" y="-11" type="curve" smooth="yes"/>
      <point x="558" y="-11"/>
      <point x="687" y="64"/>
      <point x="687" y="212" type="curve" smooth="yes"/>
      <point x="687" y="464"/>
      <point x="295" y="395"/>
      <point x="302" y="581" type="curve" smooth="yes"/>
      <point x="304" y="629"/>
      <point x="340" y="664"/>
      <point x="407" y="664" type="curve" smooth="yes"/>
      <point x="471" y="664"/>
      <point x="536" y="619"/>
      <point x="592" y="568" type="curve"/>
      <point x="632" y="701" type="line"/>
      <point x="573" y="744"/>
      <point x="475" y="768"/>
      <point x="378" y="768" type="curve" smooth="yes"/>
      <point x="224" y="768"/>
      <point x="71" y="708"/>
      <point x="71" y="570" type="curve" smooth="yes"/>
      <point x="71" y="371"/>
      <point x="399" y="377"/>
      <point x="399" y="247" type="curve" smooth="yes"/>
      <point x="399" y="207"/>
      <point x="365" y="163"/>
      <point x="304" y="163" type="curve" smooth="yes"/>
      <point x="224" y="163"/>
      <point x="119" y="208"/>
      <point x="55" y="265" type="curve"/>
      <point x="27" y="40" type="line"/>
      <point x="145" y="8"/>
      <point x="262" y="-11"/>
    </contour>
  </outline>
</glyph>
<glyph name="percent" format="2">
	<advance width="844"/>
	<unicode hex="0025"/>
	<outline>
		<contour>
			<point x="188" y="369" type="curve" smooth="yes"/>
			<point x="268" y="369"/>
			<point x="352" y="433"/>
			<point x="352" y="561" type="curve" smooth="yes"/>
			<point x="352" y="689"/>
			<point x="268" y="754"/>
			<point x="190" y="754" type="curve" smooth="yes"/>
			<point x="111" y="754"/>
			<point x="27" y="690"/>
			<point x="27" y="559" type="curve" smooth="yes"/>
			<point x="27" y="432"/>
			<point x="110" y="369"/>
		</contour>
		<contour>
			<point x="187" y="467" type="curve" smooth="yes"/>
			<point x="164" y="467"/>
			<point x="151" y="500"/>
			<point x="151" y="573" type="curve" smooth="yes"/>
			<point x="151" y="643"/>
			<point x="164" y="677"/>
			<point x="188" y="677" type="curve" smooth="yes"/>
			<point x="213" y="677"/>
			<point x="228" y="641"/>
			<point x="228" y="574" type="curve" smooth="yes"/>
			<point x="228" y="505"/>
			<point x="211" y="467"/>
		</contour>
		<contour>
			<point x="277" y="-38" type="line"/>
			<point x="696" y="791" type="line"/>
			<point x="588" y="869" type="line"/>
			<point x="188" y="41" type="line"/>
		</contour>
		<contour>
			<point x="653" y="-7" type="curve" smooth="yes"/>
			<point x="733" y="-7"/>
			<point x="817" y="58"/>
			<point x="817" y="186" type="curve" smooth="yes"/>
			<point x="817" y="314"/>
			<point x="733" y="379"/>
			<point x="655" y="379" type="curve" smooth="yes"/>
			<point x="576" y="379"/>
			<point x="492" y="315"/>
			<point x="492" y="184" type="curve" smooth="yes"/>
			<point x="492" y="57"/>
			<point x="575" y="-7"/>
		</contour>
		<contour>
			<point x="652" y="92" type="curve" smooth="yes"/>
			<point x="629" y="92"/>
			<point x="616" y="125"/>
			<point x="616" y="198" type="curve" smooth="yes"/>
			<point x="616" y="268"/>
			<point x="629" y="302"/>
			<point x="653" y="302" type="curve" smooth="yes"/>
			<point x="678" y="302"/>
			<point x="693" y="266"/>
			<point x="693" y="199" type="curve" smooth="yes"/>
			<point x="693" y="130"/>
			<point x="676" y="92"/>
		</contour>
	</outline>
</glyph>
<glyph name="parenleft" format="2">
  <advance width="360"/>
  <unicode hex="0028"/>
  <outline>
    <contour>
      <point x="146" y="-118" type="curve"/>
      <point x="329" y="-45" type="line"/>
      <point x="239" y="69"/>
      <point x="191" y="209"/>
      <point x="191" y="342" type="curve" smooth="yes"/>
      <point x="191" y="471"/>
      <point x="236" y="595"/>
      <point x="333" y="684" type="curve"/>
      <point x="183" y="803" type="line"/>
      <point x="77" y="677"/>
      <point x="32" y="495"/>
      <point x="32" y="320" type="curve" smooth="yes"/>
      <point x="32" y="147"/>
      <point x="76" y="-19"/>
    </contour>
  </outline>
</glyph>
<glyph name="plus" format="2">
  <advance width="540"/>
  <unicode hex="002B"/>
  <outline>
    <contour>
      <point x="513" y="258" type="curve"/>
      <point x="510" y="453" type="line"/>
      <point x="383" y="456"/>
      <point x="155" y="449"/>
      <point x="28" y="432" type="curve"/>
      <point x="27" y="282" type="line"/>
      <point x="156" y="284"/>
      <point x="384" y="276"/>
    </contour>
    <contour>
      <point x="162" y="113" type="curve"/>
      <point x="357" y="116" type="line"/>
      <point x="360" y="243"/>
      <point x="353" y="471"/>
      <point x="336" y="598" type="curve"/>
      <point x="186" y="599" type="line"/>
      <point x="188" y="470"/>
      <point x="180" y="242"/>
    </contour>
  </outline>
</glyph>
<glyph name="comma" format="2">
	<advance width="282"/>
	<unicode hex="002C"/>
	<outline>
		<contour>
			<point x="40" y="-75" type="curve"/>
			<point x="143" y="-160" type="line"/>
			<point x="196" y="-114"/>
			<point x="232" y="-56"/>
			<point x="240" y="3" type="curve"/>
			<point x="244" y="62"/>
			<point x="242" y="119"/>
			<point x="242" y="183" type="curve"/>
			<point x="51" y="193" type="line"/>
			<point x="41" y="136"/>
			<point x="44" y="55"/>
			<point x="53" y="-5" type="curve"/>
			<point x="188" y="1" type="line"/>
			<point x="150" y="13" type="line"/>
			<point x="145" y="-8"/>
			<point x="99" y="-48"/>
		</contour>
	</outline>
</glyph>
<glyph name="zero" format="2">
	<advance width="714"/>
	<unicode hex="0030"/>
	<guideline x="-28" y="502" angle="0"/>
	<guideline x="-30" y="148" angle="0"/>
	<outline>
		<contour>
			<point x="354" y="-13" type="curve" smooth="yes"/>
			<point x="513" y="-13"/>
			<point x="682" y="116"/>
			<point x="682" y="372" type="curve" smooth="yes"/>
			<point x="682" y="628"/>
			<point x="514" y="758"/>
			<point x="357" y="758" type="curve" smooth="yes"/>
			<point x="199" y="758"/>
			<point x="32" y="629"/>
			<point x="32" y="368" type="curve" smooth="yes"/>
			<point x="32" y="113"/>
			<point x="198" y="-13"/>
		</contour>
		<contour>
			<point x="352" y="176" type="curve" smooth="yes"/>
			<point x="299" y="176"/>
			<point x="270" y="252"/>
			<point x="270" y="416" type="curve" smooth="yes"/>
			<point x="270" y="575"/>
			<point x="299" y="651"/>
			<point x="354" y="651" type="curve" smooth="yes"/>
			<point x="410" y="651"/>
			<point x="443" y="570"/>
			<point x="443" y="419" type="curve" smooth="yes"/>
			<point x="443" y="262"/>
			<point x="406" y="176"/>
		</contour>
	</outline>
</glyph>
<glyph name="two" format="2">
  <advance width="704"/>
  <unicode hex="0032"/>
  <outline>
    <contour>
      <point x="159" y="93" type="line"/>
      <point x="525" y="337"/>
      <point x="647" y="441"/>
      <point x="647" y="557" type="curve" smooth="yes"/>
      <point x="647" y="710"/>
      <point x="502" y="759"/>
      <point x="335" y="759" type="curve" smooth="yes"/>
      <point x="235" y="759"/>
      <point x="167" y="741"/>
      <point x="77" y="717" type="curve"/>
      <point x="105" y="492" type="line"/>
      <point x="166" y="547"/>
      <point x="230" y="596"/>
      <point x="306" y="596" type="curve" smooth="yes"/>
      <point x="363" y="596"/>
      <point x="388" y="572"/>
      <point x="388" y="534" type="curve" smooth="yes"/>
      <point x="388" y="438"/>
      <point x="223" y="250"/>
      <point x="27" y="110" type="curve"/>
    </contour>
    <contour>
      <point x="633" y="-39" type="curve"/>
      <point x="677" y="201" type="line"/>
      <point x="484" y="213"/>
      <point x="268" y="210"/>
      <point x="27" y="110" type="curve"/>
      <point x="41" y="-12" type="line"/>
      <point x="188" y="7"/>
      <point x="430" y="7"/>
    </contour>
  </outline>
</glyph>
<glyph name="three" format="2">
  <advance width="669"/>
  <unicode hex="0033"/>
  <outline>
    <contour>
      <point x="133" y="255" type="line"/>
      <point x="397" y="314"/>
      <point x="556" y="451"/>
      <point x="556" y="574" type="curve" smooth="yes"/>
      <point x="556" y="676"/>
      <point x="469" y="759"/>
      <point x="325" y="759" type="curve" smooth="yes"/>
      <point x="225" y="759"/>
      <point x="117" y="741"/>
      <point x="27" y="717" type="curve"/>
      <point x="55" y="492" type="line"/>
      <point x="120" y="550"/>
      <point x="222" y="586"/>
      <point x="300" y="586" type="curve" smooth="yes"/>
      <point x="368" y="586"/>
      <point x="379" y="561"/>
      <point x="379" y="531" type="curve" smooth="yes"/>
      <point x="379" y="486"/>
      <point x="275" y="426"/>
      <point x="104" y="404" type="curve"/>
    </contour>
    <contour>
      <point x="234" y="-18" type="curve" smooth="yes"/>
      <point x="507" y="-18"/>
      <point x="637" y="82"/>
      <point x="637" y="196" type="curve" smooth="yes"/>
      <point x="637" y="288"/>
      <point x="558" y="371"/>
      <point x="397" y="371" type="curve" smooth="yes"/>
      <point x="352" y="371"/>
      <point x="301" y="366"/>
      <point x="243" y="353" type="curve"/>
      <point x="133" y="255" type="line"/>
      <point x="155" y="261"/>
      <point x="194" y="266"/>
      <point x="233" y="266" type="curve" smooth="yes"/>
      <point x="323" y="266"/>
      <point x="368" y="232"/>
      <point x="368" y="198" type="curve" smooth="yes"/>
      <point x="368" y="163"/>
      <point x="322" y="129"/>
      <point x="230" y="129" type="curve" smooth="yes"/>
      <point x="195" y="129"/>
      <point x="132" y="141"/>
      <point x="43" y="174" type="curve"/>
      <point x="27" y="8" type="line"/>
      <point x="108" y="-10"/>
      <point x="169" y="-18"/>
    </contour>
  </outline>
</glyph>
<glyph name="five" format="2">
  <advance width="634"/>
  <unicode hex="0035"/>
  <outline>
    <contour>
      <point x="229" y="-12" type="curve" smooth="yes"/>
      <point x="421" y="-12"/>
      <point x="602" y="37"/>
      <point x="602" y="210" type="curve" smooth="yes"/>
      <point x="602" y="423"/>
      <point x="353" y="444"/>
      <point x="185" y="406" type="curve"/>
      <point x="72" y="302" type="line"/>
      <point x="178" y="321"/>
      <point x="351" y="331"/>
      <point x="351" y="212" type="curve" smooth="yes"/>
      <point x="351" y="162"/>
      <point x="304" y="146"/>
      <point x="244" y="146" type="curve" smooth="yes"/>
      <point x="181" y="146"/>
      <point x="102" y="169"/>
      <point x="48" y="194" type="curve"/>
      <point x="32" y="8" type="line"/>
      <point x="101" y="-7"/>
      <point x="185" y="-12"/>
    </contour>
    <contour>
      <point x="72" y="302" type="curve"/>
      <point x="274" y="349" type="line"/>
      <point x="244" y="464"/>
      <point x="220" y="579"/>
      <point x="228" y="699" type="curve"/>
      <point x="32" y="720" type="line"/>
      <point x="16" y="625"/>
      <point x="43" y="409"/>
    </contour>
    <contour>
      <point x="547" y="507" type="curve"/>
      <point x="503" y="747" type="line"/>
      <point x="306" y="702"/>
      <point x="186" y="699"/>
      <point x="32" y="720" type="curve"/>
      <point x="32" y="598" type="line"/>
      <point x="282" y="515"/>
      <point x="353" y="515"/>
    </contour>
  </outline>
</glyph>
<glyph name="six" format="2">
  <advance width="704"/>
  <unicode hex="0036"/>
  <outline>
    <contour>
      <point x="345" y="-10" type="curve" smooth="yes"/>
      <point x="507" y="-10"/>
      <point x="672" y="85"/>
      <point x="672" y="262" type="curve" smooth="yes"/>
      <point x="672" y="440"/>
      <point x="543" y="505"/>
      <point x="375" y="505" type="curve" smooth="yes"/>
      <point x="299" y="505"/>
      <point x="215" y="491"/>
      <point x="132" y="469" type="curve"/>
      <point x="160" y="264" type="line"/>
      <point x="219" y="347"/>
      <point x="289" y="388"/>
      <point x="344" y="388" type="curve" smooth="yes"/>
      <point x="397" y="388"/>
      <point x="435" y="349"/>
      <point x="435" y="270" type="curve" smooth="yes"/>
      <point x="435" y="185"/>
      <point x="391" y="137"/>
      <point x="347" y="137" type="curve" smooth="yes"/>
      <point x="307" y="137"/>
      <point x="267" y="180"/>
      <point x="267" y="273" type="curve" smooth="yes"/>
      <point x="267" y="394"/>
      <point x="398" y="588"/>
      <point x="542" y="685" type="curve"/>
      <point x="386" y="760" type="line"/>
      <point x="130" y="614"/>
      <point x="32" y="427"/>
      <point x="32" y="274" type="curve" smooth="yes"/>
      <point x="32" y="80"/>
      <point x="187" y="-10"/>
    </contour>
  </outline>
</glyph>
<glyph name="seven" format="2">
  <advance width="684"/>
  <unicode hex="0037"/>
  <outline>
    <contour>
      <point x="77" y="-17" type="curve"/>
      <point x="396" y="1" type="line"/>
      <point x="416" y="113"/>
      <point x="453" y="234"/>
      <point x="657" y="610" type="curve"/>
      <point x="589" y="657" type="line"/>
      <point x="293" y="273"/>
      <point x="97" y="99"/>
    </contour>
    <contour>
      <point x="208" y="508"/>
      <point x="403" y="505"/>
      <point x="657" y="610" type="curve"/>
      <point x="643" y="732" type="line"/>
      <point x="496" y="713"/>
      <point x="274" y="713"/>
      <point x="71" y="759" type="curve"/>
      <point x="27" y="519" type="line"/>
    </contour>
  </outline>
</glyph>
<glyph name="eight" format="2">
  <advance width="704"/>
  <unicode hex="0038"/>
  <outline>
    <contour>
      <point x="336" y="-10" type="curve" smooth="yes"/>
      <point x="501" y="-10"/>
      <point x="672" y="72"/>
      <point x="672" y="224" type="curve" smooth="yes"/>
      <point x="672" y="369"/>
      <point x="509" y="447"/>
      <point x="348" y="447" type="curve" smooth="yes"/>
      <point x="189" y="447"/>
      <point x="32" y="372"/>
      <point x="32" y="214" type="curve" smooth="yes"/>
      <point x="32" y="62"/>
      <point x="182" y="-10"/>
    </contour>
    <contour>
      <point x="354" y="81" type="curve" smooth="yes"/>
      <point x="310" y="81"/>
      <point x="267" y="119"/>
      <point x="267" y="200" type="curve" smooth="yes"/>
      <point x="267" y="287"/>
      <point x="310" y="329"/>
      <point x="354" y="329" type="curve" smooth="yes"/>
      <point x="399" y="329"/>
      <point x="445" y="284"/>
      <point x="445" y="198" type="curve" smooth="yes"/>
      <point x="445" y="122"/>
      <point x="399" y="81"/>
    </contour>
    <contour>
      <point x="334" y="336" type="curve" smooth="yes"/>
      <point x="483" y="336"/>
      <point x="637" y="410"/>
      <point x="637" y="549" type="curve" smooth="yes"/>
      <point x="637" y="680"/>
      <point x="488" y="751"/>
      <point x="340" y="751" type="curve" smooth="yes"/>
      <point x="197" y="751"/>
      <point x="55" y="684"/>
      <point x="55" y="540" type="curve" smooth="yes"/>
      <point x="55" y="402"/>
      <point x="192" y="336"/>
    </contour>
    <contour>
      <point x="347" y="447" type="curve" smooth="yes"/>
      <point x="309" y="447"/>
      <point x="272" y="481"/>
      <point x="272" y="555" type="curve" smooth="yes"/>
      <point x="272" y="625"/>
      <point x="310" y="659"/>
      <point x="349" y="659" type="curve" smooth="yes"/>
      <point x="388" y="659"/>
      <point x="428" y="623"/>
      <point x="428" y="553" type="curve" smooth="yes"/>
      <point x="428" y="485"/>
      <point x="387" y="447"/>
    </contour>
  </outline>
</glyph>
<glyph name="nine" format="2">
	<advance width="704"/>
	<unicode hex="0039"/>
	<outline>
		<contour>
			<point x="162" y="65" type="curve"/>
			<point x="318" y="-10" type="line"/>
			<point x="574" y="136"/>
			<point x="672" y="323"/>
			<point x="672" y="476" type="curve" smooth="yes"/>
			<point x="672" y="670"/>
			<point x="517" y="760"/>
			<point x="359" y="760" type="curve" smooth="yes"/>
			<point x="197" y="760"/>
			<point x="32" y="665"/>
			<point x="32" y="488" type="curve" smooth="yes"/>
			<point x="32" y="310"/>
			<point x="161" y="245"/>
			<point x="329" y="245" type="curve" smooth="yes"/>
			<point x="405" y="245"/>
			<point x="489" y="259"/>
			<point x="572" y="281" type="curve"/>
			<point x="544" y="486" type="line"/>
			<point x="485" y="403"/>
			<point x="415" y="362"/>
			<point x="360" y="362" type="curve" smooth="yes"/>
			<point x="307" y="362"/>
			<point x="269" y="401"/>
			<point x="269" y="480" type="curve" smooth="yes"/>
			<point x="269" y="565"/>
			<point x="313" y="613"/>
			<point x="357" y="613" type="curve" smooth="yes"/>
			<point x="397" y="613"/>
			<point x="437" y="570"/>
			<point x="437" y="477" type="curve" smooth="yes"/>
			<point x="437" y="356"/>
			<point x="306" y="162"/>
		</contour>
	</outline>
</glyph>
<glyph name="greater" format="2">
  <advance width="480"/>
  <unicode hex="003E"/>
  <outline>
    <contour>
      <point x="448" y="272" type="line"/>
      <point x="453" y="417" type="line"/>
      <point x="91" y="627" type="line"/>
      <point x="27" y="449" type="line"/>
    </contour>
    <contour>
      <point x="101" y="48" type="line"/>
      <point x="448" y="272" type="line"/>
      <point x="388" y="390" type="line"/>
      <point x="37" y="236" type="line"/>
    </contour>
  </outline>
</glyph>
<glyph name="question" format="2">
  <advance width="529"/>
  <unicode hex="003F"/>
  <outline>
    <contour>
      <point x="256" y="209" type="line"/>
      <point x="256" y="340"/>
      <point x="497" y="355"/>
      <point x="497" y="564" type="curve" smooth="yes"/>
      <point x="497" y="698"/>
      <point x="401" y="757"/>
      <point x="277" y="757" type="curve" smooth="yes"/>
      <point x="200" y="757"/>
      <point x="111" y="728"/>
      <point x="27" y="699" type="curve"/>
      <point x="114" y="466" type="line"/>
      <point x="175" y="517"/>
      <point x="221" y="546"/>
      <point x="258" y="546" type="curve" smooth="yes"/>
      <point x="278" y="546"/>
      <point x="293" y="533"/>
      <point x="293" y="511" type="curve" smooth="yes"/>
      <point x="293" y="440"/>
      <point x="120" y="420"/>
      <point x="120" y="222" type="curve"/>
    </contour>
    <contour>
      <point x="262" y="-8" type="line"/>
      <point x="270" y="43"/>
      <point x="274" y="112"/>
      <point x="268" y="160" type="curve"/>
      <point x="108" y="166" type="line"/>
      <point x="114" y="111"/>
      <point x="110" y="53"/>
      <point x="104" y="3" type="curve"/>
    </contour>
  </outline>
</glyph>
<glyph name="A" format="2">
  <advance width="763"/>
  <unicode hex="0041"/>
  <anchor x="387" y="0" name="bottom"/>
  <anchor x="659" y="16" name="ogonek"/>
  <anchor x="415" y="800" name="top"/>
  <outline>
    <contour>
      <point x="455" y="-7" type="curve"/>
      <point x="696" y="14" type="line"/>
      <point x="756" y="435"/>
      <point x="685" y="766"/>
      <point x="413" y="766" type="curve" smooth="yes"/>
      <point x="115" y="766"/>
      <point x="23" y="442"/>
      <point x="52" y="-7" type="curve"/>
      <point x="324" y="20" type="line"/>
      <point x="299" y="255"/>
      <point x="296" y="670"/>
      <point x="417" y="670" type="curve" smooth="yes"/>
      <point x="548" y="670"/>
      <point x="480" y="105"/>
    </contour>
    <contour>
      <point x="129" y="162" type="line"/>
      <point x="317" y="135"/>
      <point x="520" y="133"/>
      <point x="647" y="193" type="curve"/>
      <point x="637" y="274" type="line"/>
      <point x="518" y="259"/>
      <point x="334" y="227"/>
      <point x="169" y="293" type="curve"/>
    </contour>
  </outline>
</glyph>
<glyph name="B" format="2">
  <advance width="777"/>
  <unicode hex="0042"/>
  <outline>
    <contour>
      <point x="305" y="308" type="line"/>
      <point x="583" y="377"/>
      <point x="685" y="499"/>
      <point x="685" y="620" type="curve" smooth="yes"/>
      <point x="685" y="719"/>
      <point x="617" y="771"/>
      <point x="519" y="771" type="curve" smooth="yes"/>
      <point x="386" y="771"/>
      <point x="299" y="685"/>
      <point x="254" y="584" type="curve"/>
      <point x="274" y="509" type="line"/>
      <point x="317" y="568"/>
      <point x="372" y="594"/>
      <point x="414" y="594" type="curve" smooth="yes"/>
      <point x="449" y="594"/>
      <point x="474" y="576"/>
      <point x="474" y="543" type="curve" smooth="yes"/>
      <point x="474" y="500"/>
      <point x="465" y="453"/>
      <point x="276" y="388" type="curve"/>
    </contour>
    <contour>
      <point x="74" y="-8" type="curve"/>
      <point x="278" y="0" type="line"/>
      <point x="320" y="316"/>
      <point x="324" y="437"/>
      <point x="324" y="767" type="curve"/>
      <point x="47" y="725" type="line"/>
      <point x="80" y="435"/>
      <point x="84" y="277"/>
    </contour>
    <contour>
      <point x="278" y="0" type="line"/>
      <point x="623" y="32"/>
      <point x="745" y="147"/>
      <point x="745" y="294" type="curve" smooth="yes"/>
      <point x="745" y="477"/>
      <point x="470" y="475"/>
      <point x="310" y="378" type="curve"/>
      <point x="305" y="305" type="line"/>
      <point x="367" y="319"/>
      <point x="496" y="307"/>
      <point x="496" y="230" type="curve" smooth="yes"/>
      <point x="496" y="147"/>
      <point x="370" y="124"/>
      <point x="254" y="124" type="curve"/>
    </contour>
  </outline>
</glyph>
<glyph name="C" format="2">
	<advance width="722"/>
	<unicode hex="0043"/>
	<guideline x="36" y="497" angle="0"/>
	<guideline x="36" y="165" angle="0"/>
	<anchor x="451" y="-2" name="bottom"/>
	<anchor x="471" y="28" name="cedilla"/>
	<anchor x="477" y="800" name="top"/>
	<outline>
		<contour>
			<point x="441" y="-2" type="curve" smooth="yes"/>
			<point x="517" y="-2"/>
			<point x="595" y="16"/>
			<point x="667" y="54" type="curve"/>
			<point x="667" y="152" type="line"/>
			<point x="616" y="130"/>
			<point x="558" y="117"/>
			<point x="503" y="117" type="curve" smooth="yes"/>
			<point x="400" y="117"/>
			<point x="299" y="161"/>
			<point x="299" y="345" type="curve" smooth="yes"/>
			<point x="299" y="460"/>
			<point x="385" y="557"/>
			<point x="517" y="557" type="curve" smooth="yes"/>
			<point x="567" y="557"/>
			<point x="620" y="549"/>
			<point x="671" y="531" type="curve"/>
			<point x="695" y="700" type="line"/>
			<point x="637" y="731"/>
			<point x="558" y="748"/>
			<point x="475" y="748" type="curve" smooth="yes"/>
			<point x="267" y="748"/>
			<point x="32" y="638"/>
			<point x="32" y="356" type="curve" smooth="yes"/>
			<point x="32" y="138"/>
			<point x="228" y="-2"/>
		</contour>
	</outline>
</glyph>
<glyph name="D" format="2">
  <advance width="788"/>
  <unicode hex="0044"/>
  <anchor x="244" y="0" name="bottom"/>
  <anchor x="244" y="325" name="center"/>
  <anchor x="399" y="800" name="top"/>
  <outline>
    <contour>
      <point x="114" y="542" type="curve"/>
      <point x="179" y="446" type="line"/>
      <point x="267" y="591"/>
      <point x="347" y="626"/>
      <point x="426" y="626" type="curve" smooth="yes"/>
      <point x="493" y="626"/>
      <point x="533" y="565"/>
      <point x="533" y="491" type="curve" smooth="yes"/>
      <point x="533" y="379"/>
      <point x="458" y="227"/>
      <point x="273" y="125" type="curve"/>
      <point x="278" y="0" type="line"/>
      <point x="596" y="117"/>
      <point x="756" y="325"/>
      <point x="756" y="497" type="curve" smooth="yes"/>
      <point x="756" y="643"/>
      <point x="662" y="758"/>
      <point x="508" y="758" type="curve" smooth="yes"/>
      <point x="395" y="758"/>
      <point x="259" y="728"/>
    </contour>
    <contour>
      <point x="74" y="-8" type="curve"/>
      <point x="278" y="0" type="line"/>
      <point x="320" y="316"/>
      <point x="324" y="437"/>
      <point x="324" y="767" type="curve"/>
      <point x="47" y="725" type="line"/>
      <point x="79" y="445"/>
      <point x="84" y="284"/>
    </contour>
  </outline>
</glyph>
<glyph name="E" format="2">
  <advance width="648"/>
  <unicode hex="0045"/>
  <anchor x="347" y="-30" name="bottom"/>
  <anchor x="562" y="7" name="ogonek"/>
  <anchor x="347" y="800" name="top"/>
  <outline>
    <contour>
      <point x="66" y="13" type="curve"/>
      <point x="269" y="47" type="line"/>
      <point x="313" y="343"/>
      <point x="314" y="443"/>
      <point x="314" y="714" type="curve"/>
      <point x="47" y="736" type="line"/>
      <point x="78" y="437"/>
      <point x="78" y="325"/>
    </contour>
    <contour>
      <point x="621" y="-5" type="curve"/>
      <point x="621" y="161" type="line"/>
      <point x="453" y="137"/>
      <point x="242" y="131"/>
      <point x="117" y="131" type="curve"/>
      <point x="66" y="13" type="line"/>
      <point x="239" y="1"/>
      <point x="500" y="-5"/>
    </contour>
    <contour>
      <point x="490" y="288" type="curve"/>
      <point x="487" y="424" type="line"/>
      <point x="406" y="422"/>
      <point x="297" y="415"/>
      <point x="190" y="401" type="curve"/>
      <point x="191" y="289" type="line"/>
      <point x="312" y="301"/>
      <point x="414" y="304"/>
    </contour>
    <contour>
      <point x="601" y="584" type="curve"/>
      <point x="601" y="770" type="line"/>
      <point x="484" y="767"/>
      <point x="174" y="749"/>
      <point x="47" y="736" type="curve"/>
      <point x="142" y="607" type="line"/>
      <point x="228" y="607"/>
      <point x="433" y="618"/>
    </contour>
  </outline>
</glyph>
<glyph name="H" format="2">
  <advance width="837"/>
  <unicode hex="0048"/>
  <outline>
    <contour>
      <point x="74" y="-18" type="curve"/>
      <point x="278" y="18" type="line"/>
      <point x="318" y="318"/>
      <point x="328" y="492"/>
      <point x="324" y="767" type="curve"/>
      <point x="47" y="725" type="line"/>
      <point x="77" y="463"/>
      <point x="84" y="249"/>
    </contour>
    <contour>
      <point x="762" y="335" type="curve"/>
      <point x="722" y="456" type="line"/>
      <point x="557" y="391"/>
      <point x="225" y="398"/>
      <point x="106" y="412" type="curve"/>
      <point x="96" y="341" type="line"/>
      <point x="223" y="299"/>
      <point x="574" y="306"/>
    </contour>
    <contour>
      <point x="556" y="-12" type="curve"/>
      <point x="759" y="30" type="line"/>
      <point x="793" y="348"/>
      <point x="795" y="482"/>
      <point x="785" y="750" type="curve"/>
      <point x="509" y="700" type="line"/>
      <point x="552" y="398"/>
      <point x="556" y="304"/>
    </contour>
  </outline>
</glyph>
<glyph name="J" format="2">
  <advance width="462"/>
  <unicode hex="004A"/>
  <anchor x="269" y="0" name="bottom"/>
  <anchor x="269" y="800" name="top"/>
  <outline>
    <contour>
      <point x="361" y="-24"/>
      <point x="415" y="194"/>
      <point x="415" y="511" type="curve" smooth="yes"/>
      <point x="415" y="594"/>
      <point x="411" y="682"/>
      <point x="409" y="768" type="curve"/>
      <point x="153" y="740" type="line"/>
      <point x="196" y="569"/>
      <point x="231" y="416"/>
      <point x="231" y="324" type="curve" smooth="yes"/>
      <point x="231" y="240"/>
      <point x="202" y="205"/>
      <point x="125" y="205" type="curve" smooth="yes"/>
      <point x="98" y="205"/>
      <point x="66" y="209"/>
      <point x="27" y="217" type="curve"/>
      <point x="45" y="-3" type="line"/>
    </contour>
  </outline>
</glyph>
<glyph name="K" format="2">
  <advance width="774"/>
  <unicode hex="004B"/>
  <anchor x="398" y="0" name="bottom"/>
  <anchor x="398" y="800" name="top"/>
  <outline>
    <contour>
      <point x="74" y="-18" type="curve"/>
      <point x="278" y="18" type="line"/>
      <point x="318" y="318"/>
      <point x="338" y="492"/>
      <point x="334" y="767" type="curve"/>
      <point x="47" y="735" type="line"/>
      <point x="77" y="473"/>
      <point x="84" y="249"/>
    </contour>
    <contour>
      <point x="278" y="18" type="line"/>
      <point x="315" y="336"/>
      <point x="504" y="486"/>
      <point x="735" y="502" type="curve"/>
      <point x="726" y="750" type="line"/>
      <point x="494" y="696"/>
      <point x="313" y="439"/>
      <point x="278" y="274" type="curve"/>
    </contour>
    <contour>
      <point x="462" y="0" type="curve"/>
      <point x="752" y="37" type="line"/>
      <point x="710" y="291"/>
      <point x="536" y="385"/>
      <point x="417" y="419" type="curve"/>
      <point x="339" y="293" type="line"/>
      <point x="412" y="265"/>
      <point x="462" y="139"/>
    </contour>
  </outline>
</glyph>
<glyph name="L" format="2">
  <advance width="588"/>
  <unicode hex="004C"/>
  <anchor x="336" y="-30" name="bottom"/>
  <anchor x="298" y="325" name="center"/>
  <anchor x="196" y="800" name="top"/>
  <anchor x="431" y="720" name="topright"/>
  <outline>
    <contour>
      <point x="66" y="25" type="curve"/>
      <point x="227" y="54" type="line"/>
      <point x="289" y="280"/>
      <point x="324" y="478"/>
      <point x="324" y="759" type="curve"/>
      <point x="47" y="745" type="line"/>
      <point x="98" y="436"/>
      <point x="98" y="337"/>
    </contour>
    <contour>
      <point x="561" y="15" type="curve"/>
      <point x="541" y="181" type="line"/>
      <point x="373" y="137"/>
      <point x="242" y="123"/>
      <point x="117" y="143" type="curve"/>
      <point x="66" y="25" type="line"/>
      <point x="180" y="-7"/>
      <point x="440" y="-5"/>
    </contour>
  </outline>
</glyph>
<glyph name="N" format="2">
	<advance width="904"/>
	<unicode hex="004E"/>
	<anchor x="437" y="-30" name="bottom"/>
	<anchor x="377" y="800" name="top"/>
	<outline>
		<contour>
			<point x="654" y="0" type="curve" smooth="yes"/>
			<point x="955" y="0"/>
			<point x="852" y="595"/>
			<point x="779" y="800" type="curve"/>
			<point x="525" y="733" type="line"/>
			<point x="578" y="566"/>
			<point x="721" y="111"/>
			<point x="621" y="111" type="curve" smooth="yes"/>
			<point x="542" y="111"/>
			<point x="412" y="482"/>
			<point x="333" y="742" type="curve"/>
			<point x="232" y="514" type="line"/>
			<point x="255" y="391"/>
			<point x="441" y="0"/>
		</contour>
		<contour>
			<point x="47" y="0" type="curve"/>
			<point x="324" y="-6" type="line"/>
			<point x="323" y="52"/>
			<point x="294" y="311"/>
			<point x="284" y="532" type="curve"/>
			<point x="333" y="742" type="line"/>
			<point x="57" y="704" type="line"/>
			<point x="76" y="476"/>
			<point x="69" y="230"/>
		</contour>
	</outline>
</glyph>
<glyph name="P" format="2">
  <advance width="717"/>
  <unicode hex="0050"/>
  <outline>
    <contour>
      <point x="74" y="-8" type="curve"/>
      <point x="278" y="0" type="line"/>
      <point x="320" y="316"/>
      <point x="324" y="437"/>
      <point x="324" y="767" type="curve"/>
      <point x="47" y="725" type="line"/>
      <point x="79" y="445"/>
      <point x="84" y="284"/>
    </contour>
    <contour>
      <point x="305" y="222" type="line"/>
      <point x="583" y="309"/>
      <point x="685" y="441"/>
      <point x="685" y="588" type="curve" smooth="yes"/>
      <point x="685" y="702"/>
      <point x="625" y="774"/>
      <point x="519" y="774" type="curve" smooth="yes"/>
      <point x="423" y="774"/>
      <point x="323" y="685"/>
      <point x="261" y="572" type="curve"/>
      <point x="265" y="496" type="line"/>
      <point x="306" y="554"/>
      <point x="358" y="579"/>
      <point x="399" y="579" type="curve" smooth="yes"/>
      <point x="438" y="579"/>
      <point x="468" y="550"/>
      <point x="468" y="505" type="curve" smooth="yes"/>
      <point x="468" y="461"/>
      <point x="465" y="377"/>
      <point x="276" y="316" type="curve"/>
    </contour>
  </outline>
</glyph>
<glyph name="Q" format="2">
  <advance width="849"/>
  <unicode hex="0051"/>
  <anchor x="424.0" y="780.0" name="bottom"/>
  <anchor x="422.0" y="-50.0" name="top"/>
  <outline>
    <contour>
      <point x="524" y="-196" type="curve"/>
      <point x="705" y="-40" type="line"/>
      <point x="598" y="56"/>
      <point x="527" y="214"/>
      <point x="530" y="344" type="curve"/>
      <point x="410" y="360" type="line"/>
      <point x="386" y="164"/>
      <point x="393" y="-10"/>
    </contour>
    <component base="O" yScale="-1.0" yOffset="750.0"/>
  </outline>
</glyph>
<glyph name="R" format="2">
  <advance width="714"/>
  <unicode hex="0052"/>
  <anchor x="340" y="0" name="bottom"/>
  <anchor x="342" y="800" name="top"/>
  <outline>
    <contour>
      <point x="305" y="252" type="line"/>
      <point x="583" y="334"/>
      <point x="685" y="459"/>
      <point x="685" y="598" type="curve" smooth="yes"/>
      <point x="685" y="706"/>
      <point x="625" y="774"/>
      <point x="519" y="774" type="curve" smooth="yes"/>
      <point x="423" y="774"/>
      <point x="323" y="685"/>
      <point x="261" y="572" type="curve"/>
      <point x="265" y="496" type="line"/>
      <point x="306" y="554"/>
      <point x="358" y="579"/>
      <point x="399" y="579" type="curve" smooth="yes"/>
      <point x="438" y="579"/>
      <point x="468" y="556"/>
      <point x="468" y="506" type="curve" smooth="yes"/>
      <point x="468" y="477"/>
      <point x="465" y="400"/>
      <point x="276" y="346" type="curve"/>
    </contour>
    <contour>
      <point x="74" y="-8" type="curve"/>
      <point x="278" y="0" type="line"/>
      <point x="320" y="316"/>
      <point x="324" y="437"/>
      <point x="324" y="767" type="curve"/>
      <point x="47" y="725" type="line"/>
      <point x="80" y="435"/>
      <point x="84" y="277"/>
    </contour>
    <contour>
      <point x="402" y="0" type="curve"/>
      <point x="692" y="33" type="line"/>
      <point x="650" y="258"/>
      <point x="476" y="332"/>
      <point x="357" y="362" type="curve"/>
      <point x="291" y="277" type="line"/>
      <point x="364" y="252"/>
      <point x="402" y="123"/>
    </contour>
  </outline>
</glyph>
<glyph name="S" format="2">
	<advance width="714"/>
	<unicode hex="0053"/>
	<guideline x="665" y="168" angle="0"/>
	<guideline x="665" y="482" angle="0"/>
	<anchor x="365" y="-41" name="bottom"/>
	<anchor x="375" y="19" name="cedilla"/>
	<anchor x="379" y="800" name="top"/>
	<outline>
		<contour>
			<point x="365" y="-11" type="curve" smooth="yes"/>
			<point x="558" y="-11"/>
			<point x="687" y="64"/>
			<point x="687" y="212" type="curve" smooth="yes"/>
			<point x="687" y="446"/>
			<point x="332" y="382"/>
			<point x="338" y="555" type="curve" smooth="yes"/>
			<point x="340" y="600"/>
			<point x="373" y="633"/>
			<point x="433" y="633" type="curve" smooth="yes"/>
			<point x="491" y="633"/>
			<point x="538" y="611"/>
			<point x="594" y="579" type="curve"/>
			<point x="632" y="701" type="line"/>
			<point x="573" y="744"/>
			<point x="475" y="768"/>
			<point x="378" y="768" type="curve" smooth="yes"/>
			<point x="224" y="768"/>
			<point x="71" y="708"/>
			<point x="71" y="570" type="curve" smooth="yes"/>
			<point x="71" y="371"/>
			<point x="399" y="377"/>
			<point x="399" y="247" type="curve" smooth="yes"/>
			<point x="399" y="207"/>
			<point x="365" y="163"/>
			<point x="304" y="163" type="curve" smooth="yes"/>
			<point x="224" y="163"/>
			<point x="139" y="198"/>
			<point x="54" y="238" type="curve"/>
			<point x="27" y="40" type="line"/>
			<point x="145" y="8"/>
			<point x="262" y="-11"/>
		</contour>
	</outline>
</glyph>
<glyph name="T" format="2">
  <advance width="753"/>
  <unicode hex="0054"/>
  <anchor x="379" y="-10" name="bottom"/>
  <anchor x="399" y="20" name="cedilla"/>
  <anchor x="379" y="800" name="top"/>
  <outline>
    <contour>
      <point x="272" y="-18" type="curve"/>
      <point x="476" y="18" type="line"/>
      <point x="516" y="318"/>
      <point x="526" y="492"/>
      <point x="522" y="767" type="curve"/>
      <point x="245" y="725" type="line"/>
      <point x="275" y="463"/>
      <point x="282" y="249"/>
    </contour>
    <contour>
      <point x="725" y="626" type="line"/>
      <point x="726" y="800" type="line"/>
      <point x="27" y="750" type="line"/>
      <point x="31" y="640" type="line"/>
    </contour>
  </outline>
</glyph>
<glyph name="V" format="2">
  <advance width="867"/>
  <unicode hex="0056"/>
  <outline>
    <contour>
      <point x="397" y="-9" type="curve"/>
      <point x="504" y="5" type="line"/>
      <point x="440" y="144" type="line"/>
      <point x="379" y="351"/>
      <point x="298" y="560"/>
      <point x="203" y="774" type="curve"/>
      <point x="27" y="740" type="line"/>
      <point x="190" y="452"/>
      <point x="298" y="245"/>
    </contour>
    <contour>
      <point x="504" y="5" type="line"/>
      <point x="568" y="166"/>
      <point x="734" y="526"/>
      <point x="840" y="748" type="curve"/>
      <point x="526" y="772" type="line"/>
      <point x="452" y="518"/>
      <point x="429" y="414"/>
      <point x="386" y="108" type="curve"/>
    </contour>
  </outline>
</glyph>
<glyph name="W" format="2">
  <advance width="1241"/>
  <unicode hex="0057"/>
  <anchor x="596" y="-38" name="bottom"/>
  <anchor x="642" y="800" name="top"/>
  <outline>
    <contour>
      <point x="853" y="-17" type="curve" smooth="yes"/>
      <point x="1180" y="-17"/>
      <point x="1210" y="461"/>
      <point x="1206" y="772" type="curve"/>
      <point x="909" y="723" type="line"/>
      <point x="955" y="500"/>
      <point x="980" y="102"/>
      <point x="839" y="102" type="curve" smooth="yes"/>
      <point x="709" y="102"/>
      <point x="761" y="579"/>
      <point x="784" y="736" type="curve"/>
      <point x="500" y="715" type="line"/>
      <point x="482" y="465"/>
      <point x="588" y="-17"/>
    </contour>
    <contour>
      <point x="361" y="-8" type="curve" smooth="yes"/>
      <point x="596" y="-8"/>
      <point x="620" y="285"/>
      <point x="624" y="481" type="curve"/>
      <point x="500" y="715" type="line"/>
      <point x="487" y="536"/>
      <point x="548" y="111"/>
      <point x="393" y="111" type="curve" smooth="yes"/>
      <point x="269" y="111"/>
      <point x="304" y="655"/>
      <point x="322" y="745" type="curve"/>
      <point x="38" y="724" type="line"/>
      <point x="20" y="474"/>
      <point x="76" y="-8"/>
    </contour>
  </outline>
</glyph>
<glyph name="X" format="2">
  <advance width="820"/>
  <unicode hex="0058"/>
  <outline>
    <contour>
      <point x="136" y="-19" type="line"/>
      <point x="394" y="177"/>
      <point x="627" y="555"/>
      <point x="691" y="722" type="curve"/>
      <point x="608" y="759" type="line"/>
      <point x="505" y="559"/>
      <point x="336" y="378"/>
      <point x="27" y="146" type="curve"/>
    </contour>
    <contour>
      <point x="463" y="-19" type="curve"/>
      <point x="793" y="48" type="line"/>
      <point x="666" y="280"/>
      <point x="397" y="658"/>
      <point x="224" y="767" type="curve"/>
      <point x="53" y="703" type="line"/>
      <point x="280" y="467"/>
      <point x="394" y="223"/>
    </contour>
  </outline>
</glyph>
<glyph name="Y" format="2">
  <advance width="749"/>
  <unicode hex="0059"/>
  <anchor x="366" y="-30" name="bottom"/>
  <anchor x="366" y="800" name="top"/>
  <outline>
    <contour>
      <point x="675" y="-66"/>
      <point x="711" y="293"/>
      <point x="700" y="768" type="curve"/>
      <point x="444" y="740" type="line"/>
      <point x="476" y="580"/>
      <point x="513" y="441"/>
      <point x="513" y="336" type="curve" smooth="yes"/>
      <point x="513" y="118"/>
      <point x="288" y="153"/>
      <point x="176" y="163" type="curve"/>
      <point x="194" y="-27" type="line"/>
    </contour>
    <contour>
      <point x="310" y="242" type="curve" smooth="yes"/>
      <point x="515" y="242"/>
      <point x="583" y="472"/>
      <point x="587" y="638" type="curve"/>
      <point x="444" y="740" type="line"/>
      <point x="470" y="602"/>
      <point x="499" y="361"/>
      <point x="358" y="361" type="curve" smooth="yes"/>
      <point x="226" y="361"/>
      <point x="260" y="641"/>
      <point x="296" y="762" type="curve"/>
      <point x="42" y="741" type="line"/>
      <point x="24" y="530"/>
      <point x="51" y="242"/>
    </contour>
  </outline>
</glyph>
<glyph name="underscore" format="2">
  <advance width="456"/>
  <unicode hex="005F"/>
  <outline>
    <contour>
      <point x="0" y="-144" type="line"/>
      <point x="152" y="-146"/>
      <point x="304" y="-138"/>
      <point x="456" y="-120" type="curve"/>
      <point x="455" y="10" type="line"/>
      <point x="304" y="4"/>
      <point x="154" y="7"/>
      <point x="3" y="21" type="curve"/>
    </contour>
  </outline>
</glyph>
<glyph name="a" format="2">
  <advance width="620"/>
  <unicode hex="0061"/>
  <anchor x="284" y="-36" name="bottom"/>
  <anchor x="502" y="5" name="ogonek"/>
  <anchor x="353" y="520" name="top"/>
  <outline>
    <contour>
      <point x="181" y="-14" type="curve" smooth="yes"/>
      <point x="284" y="-14"/>
      <point x="412" y="62"/>
      <point x="426" y="299" type="curve"/>
      <point x="367" y="272" type="line"/>
      <point x="367" y="180"/>
      <point x="314" y="154"/>
      <point x="274" y="154" type="curve" smooth="yes"/>
      <point x="246" y="154"/>
      <point x="220" y="179"/>
      <point x="220" y="215" type="curve" smooth="yes"/>
      <point x="220" y="252"/>
      <point x="266" y="319"/>
      <point x="416" y="347" type="curve"/>
      <point x="354" y="441" type="line"/>
      <point x="110" y="367"/>
      <point x="27" y="243"/>
      <point x="27" y="130" type="curve" smooth="yes"/>
      <point x="27" y="28"/>
      <point x="99" y="-14"/>
    </contour>
    <contour>
      <point x="401" y="-21" type="curve"/>
      <point x="559" y="17" type="line"/>
      <point x="555" y="125"/>
      <point x="561" y="261"/>
      <point x="580" y="463" type="curve"/>
      <point x="354" y="441" type="line"/>
      <point x="351" y="417"/>
      <point x="371" y="117"/>
    </contour>
  </outline>
</glyph>
<glyph name="b" format="2">
	<advance width="707"/>
	<unicode hex="0062"/>
	<guideline x="109" y="404" angle="0"/>
	<guideline x="101" y="115" angle="0"/>
	<outline>
		<contour>
			<point x="378" y="-11" type="curve" smooth="yes"/>
			<point x="531" y="-11"/>
			<point x="680" y="76"/>
			<point x="680" y="268" type="curve" smooth="yes"/>
			<point x="680" y="414"/>
			<point x="579" y="459"/>
			<point x="479" y="459" type="curve" smooth="yes"/>
			<point x="364" y="459"/>
			<point x="192" y="348"/>
			<point x="192" y="69" type="curve"/>
			<point x="233" y="31" type="line"/>
			<point x="245" y="244"/>
			<point x="336" y="314"/>
			<point x="389" y="314" type="curve" smooth="yes"/>
			<point x="425" y="314"/>
			<point x="455" y="278"/>
			<point x="455" y="228" type="curve" smooth="yes"/>
			<point x="455" y="143"/>
			<point x="399" y="111"/>
			<point x="325" y="111" type="curve" smooth="yes"/>
			<point x="281" y="111"/>
			<point x="229" y="123"/>
			<point x="180" y="142" type="curve"/>
			<point x="238" y="4" type="line"/>
			<point x="282" y="-6"/>
			<point x="330" y="-11"/>
		</contour>
		<contour>
			<point x="58" y="44" type="curve"/>
			<point x="238" y="4" type="line"/>
			<point x="281" y="281"/>
			<point x="299" y="565"/>
			<point x="299" y="816" type="curve"/>
			<point x="40" y="777" type="line"/>
			<point x="63" y="537"/>
			<point x="68" y="282"/>
		</contour>
	</outline>
</glyph>
<glyph name="c" format="2">
	<advance width="551"/>
	<unicode hex="0063"/>
	<guideline x="539" y="385" angle="0"/>
	<guideline x="539" y="135" angle="0"/>
	<anchor x="244" y="-1" name="bottom"/>
	<anchor x="361" y="20" name="cedilla"/>
	<anchor x="323" y="520" name="top"/>
	<outline>
		<contour>
			<point x="291" y="-6" type="curve" smooth="yes"/>
			<point x="379" y="-6"/>
			<point x="470" y="19"/>
			<point x="531" y="68" type="curve"/>
			<point x="519" y="166" type="line"/>
			<point x="479" y="134"/>
			<point x="417" y="112"/>
			<point x="366" y="112" type="curve" smooth="yes"/>
			<point x="316" y="112"/>
			<point x="276" y="133"/>
			<point x="276" y="183" type="curve" smooth="yes"/>
			<point x="276" y="277"/>
			<point x="341" y="334"/>
			<point x="489" y="334" type="curve"/>
			<point x="477" y="459" type="line"/>
			<point x="292" y="480"/>
			<point x="27" y="391"/>
			<point x="27" y="187" type="curve" smooth="yes"/>
			<point x="27" y="55"/>
			<point x="156" y="-6"/>
		</contour>
	</outline>
</glyph>
<glyph name="d" format="2">
	<advance width="630"/>
	<unicode hex="0064"/>
	<guideline x="382" y="350" angle="0"/>
	<guideline x="374" y="98" angle="0"/>
	<anchor x="126" y="0" name="bottom"/>
	<anchor x="241" y="260" name="center"/>
	<anchor x="462" y="800" name="top"/>
	<anchor x="673" y="750" name="topright"/>
	<outline>
		<contour>
			<point x="386" y="-10" type="curve"/>
			<point x="570" y="4" type="line"/>
			<point x="559" y="312"/>
			<point x="559" y="517"/>
			<point x="590" y="814" type="curve"/>
			<point x="331" y="781" type="line"/>
			<point x="331" y="514"/>
			<point x="345" y="271"/>
		</contour>
		<contour>
			<point x="181" y="-14" type="curve" smooth="yes"/>
			<point x="284" y="-14"/>
			<point x="402" y="62"/>
			<point x="416" y="299" type="curve"/>
			<point x="357" y="272" type="line"/>
			<point x="357" y="180"/>
			<point x="314" y="154"/>
			<point x="274" y="154" type="curve" smooth="yes"/>
			<point x="246" y="154"/>
			<point x="220" y="179"/>
			<point x="220" y="215" type="curve" smooth="yes"/>
			<point x="220" y="252"/>
			<point x="266" y="339"/>
			<point x="416" y="367" type="curve"/>
			<point x="354" y="461" type="line"/>
			<point x="110" y="387"/>
			<point x="27" y="243"/>
			<point x="27" y="130" type="curve" smooth="yes"/>
			<point x="27" y="28"/>
			<point x="99" y="-14"/>
		</contour>
	</outline>
</glyph>
<glyph name="g" format="2">
  <advance width="612"/>
  <unicode hex="0067"/>
  <anchor x="314" y="-337" name="bottom"/>
  <anchor x="323" y="520" name="top"/>
  <outline>
    <contour>
      <point x="47" y="-260" type="line"/>
      <point x="325" y="-356"/>
      <point x="542" y="-207"/>
      <point x="565" y="87" type="curve" smooth="yes"/>
      <point x="573" y="198"/>
      <point x="574" y="371"/>
      <point x="570" y="465" type="curve"/>
      <point x="344" y="461" type="line"/>
      <point x="373" y="227"/>
      <point x="386" y="135"/>
      <point x="394" y="18" type="curve" smooth="yes"/>
      <point x="406" y="-155"/>
      <point x="290" y="-192"/>
      <point x="120" y="-71" type="curve"/>
    </contour>
    <contour>
      <point x="181" y="-14" type="curve" smooth="yes"/>
      <point x="284" y="-14"/>
      <point x="414" y="62"/>
      <point x="428" y="299" type="curve"/>
      <point x="369" y="272" type="line"/>
      <point x="369" y="180"/>
      <point x="314" y="154"/>
      <point x="274" y="154" type="curve" smooth="yes"/>
      <point x="246" y="154"/>
      <point x="220" y="179"/>
      <point x="220" y="215" type="curve" smooth="yes"/>
      <point x="220" y="252"/>
      <point x="266" y="339"/>
      <point x="416" y="367" type="curve"/>
      <point x="344" y="461" type="line"/>
      <point x="100" y="387"/>
      <point x="27" y="243"/>
      <point x="27" y="130" type="curve" smooth="yes"/>
      <point x="27" y="28"/>
      <point x="99" y="-14"/>
    </contour>
  </outline>
</glyph>
<glyph name="h" format="2">
  <advance width="667"/>
  <unicode hex="0068"/>
  <outline>
    <contour>
      <point x="238" y="4" type="line"/>
      <point x="281" y="281"/>
      <point x="299" y="565"/>
      <point x="299" y="816" type="curve"/>
      <point x="40" y="777" type="line"/>
      <point x="63" y="537"/>
      <point x="68" y="225"/>
      <point x="58" y="-13" type="curve"/>
    </contour>
    <contour>
      <point x="626" y="-22" type="line"/>
      <point x="647" y="152"/>
      <point x="635" y="465"/>
      <point x="443" y="465" type="curve" smooth="yes"/>
      <point x="313" y="465"/>
      <point x="172" y="298"/>
      <point x="145" y="141" type="curve"/>
      <point x="238" y="4" type="line"/>
      <point x="267" y="227"/>
      <point x="345" y="335"/>
      <point x="392" y="335" type="curve" smooth="yes"/>
      <point x="481" y="335"/>
      <point x="412" y="72"/>
      <point x="378" y="-10" type="curve"/>
    </contour>
  </outline>
</glyph>
<glyph name="i" format="2">
  <advance width="333"/>
  <unicode hex="0069"/>
  <anchor x="142" y="0" name="bottom"/>
  <anchor x="207" y="2" name="ogonek"/>
  <anchor x="173" y="520" name="top"/>
  <outline>
    <contour>
      <point x="56" y="517" type="curve"/>
      <point x="268" y="533" type="line"/>
      <point x="271" y="597"/>
      <point x="257" y="687"/>
      <point x="238" y="752" type="curve"/>
      <point x="32" y="717" type="line"/>
      <point x="45" y="652"/>
      <point x="56" y="588"/>
    </contour>
    <component base="idotless"/>
  </outline>
</glyph>
<glyph name="j" format="2">
  <advance width="341"/>
  <unicode hex="006A"/>
  <anchor x="176" y="-233" name="bottom"/>
  <anchor x="162" y="529" name="top"/>
  <outline>
    <contour>
      <point x="56" y="517" type="curve"/>
      <point x="268" y="533" type="line"/>
      <point x="271" y="597"/>
      <point x="257" y="687"/>
      <point x="238" y="752" type="curve"/>
      <point x="32" y="717" type="line"/>
      <point x="45" y="652"/>
      <point x="56" y="588"/>
    </contour>
    <component base="jdotless"/>
  </outline>
</glyph>
<glyph name="l" format="2">
  <advance width="340"/>
  <unicode hex="006C"/>
  <anchor x="147" y="-40" name="bottom"/>
  <anchor x="163" y="830" name="top"/>
  <anchor x="378" y="760" name="topright"/>
  <outline>
    <contour>
      <point x="239" y="4" type="line"/>
      <point x="282" y="281"/>
      <point x="300" y="565"/>
      <point x="300" y="816" type="curve"/>
      <point x="40" y="777" type="line"/>
      <point x="63" y="537"/>
      <point x="68" y="225"/>
      <point x="58" y="-13" type="curve"/>
    </contour>
  </outline>
</glyph>
<glyph name="m" format="2">
	<advance width="995"/>
	<unicode hex="006D"/>
	<guideline x="85" y="98" angle="0"/>
	<guideline x="117" y="414" angle="0"/>
	<outline>
		<contour>
			<point x="370" y="5" type="curve"/>
			<point x="602" y="-9" type="line"/>
			<point x="644" y="194"/>
			<point x="628" y="466"/>
			<point x="414" y="466" type="curve" smooth="yes"/>
			<point x="294" y="466"/>
			<point x="204" y="321"/>
			<point x="192" y="197" type="curve"/>
			<point x="279" y="0" type="line"/>
			<point x="295" y="217"/>
			<point x="312" y="343"/>
			<point x="359" y="343" type="curve" smooth="yes"/>
			<point x="432" y="343"/>
			<point x="408" y="133"/>
		</contour>
		<contour>
			<point x="40" y="-10" type="curve"/>
			<point x="279" y="0" type="line"/>
			<point x="290" y="161"/>
			<point x="278" y="292"/>
			<point x="249" y="469" type="curve"/>
			<point x="61" y="431" type="line"/>
			<point x="77" y="283"/>
			<point x="64" y="141"/>
		</contour>
		<contour>
			<point x="693" y="6" type="curve"/>
			<point x="955" y="-9" type="line"/>
			<point x="978" y="175"/>
			<point x="956" y="465"/>
			<point x="755" y="465" type="curve" smooth="yes"/>
			<point x="666" y="465"/>
			<point x="576" y="392"/>
			<point x="554" y="285" type="curve"/>
			<point x="617" y="113" type="line"/>
			<point x="618" y="275"/>
			<point x="649" y="334"/>
			<point x="694" y="334" type="curve" smooth="yes"/>
			<point x="764" y="334"/>
			<point x="743" y="149"/>
		</contour>
	</outline>
</glyph>
<glyph name="o" format="2">
	<advance width="591"/>
	<unicode hex="006F"/>
	<guideline x="535" y="385" angle="0"/>
	<guideline x="535" y="135" angle="0"/>
	<anchor x="291" y="-42" name="bottom"/>
	<anchor x="267" y="520" name="top"/>
	<outline>
		<contour>
			<point x="291" y="-12" type="curve" smooth="yes"/>
			<point x="472" y="-12"/>
			<point x="564" y="107"/>
			<point x="564" y="226" type="curve" smooth="yes"/>
			<point x="564" y="345"/>
			<point x="473" y="463"/>
			<point x="289" y="463" type="curve" smooth="yes"/>
			<point x="116" y="463"/>
			<point x="27" y="343"/>
			<point x="27" y="223" type="curve" smooth="yes"/>
			<point x="27" y="105"/>
			<point x="114" y="-12"/>
		</contour>
		<contour>
			<point x="273" y="78" type="curve" smooth="yes"/>
			<point x="239" y="78"/>
			<point x="218" y="133"/>
			<point x="218" y="186" type="curve" smooth="yes"/>
			<point x="218" y="235"/>
			<point x="236" y="283"/>
			<point x="277" y="283" type="curve" smooth="yes"/>
			<point x="317" y="283"/>
			<point x="335" y="236"/>
			<point x="335" y="187" type="curve" smooth="yes"/>
			<point x="335" y="134"/>
			<point x="313" y="78"/>
		</contour>
	</outline>
</glyph>
<glyph name="p" format="2">
  <advance width="637"/>
  <unicode hex="0070"/>
  <outline>
    <contour>
      <point x="40" y="-308" type="curve"/>
      <point x="299" y="-285" type="line"/>
      <point x="299" y="-16"/>
      <point x="288" y="156"/>
      <point x="244" y="459" type="curve"/>
      <point x="60" y="432" type="line"/>
      <point x="71" y="124"/>
      <point x="71" y="-11"/>
    </contour>
    <contour>
      <point x="260" y="-34" type="line"/>
      <point x="537" y="38"/>
      <point x="610" y="182"/>
      <point x="610" y="295" type="curve" smooth="yes"/>
      <point x="610" y="397"/>
      <point x="538" y="459"/>
      <point x="456" y="459" type="curve" smooth="yes"/>
      <point x="353" y="459"/>
      <point x="235" y="363"/>
      <point x="221" y="126" type="curve"/>
      <point x="280" y="153" type="line"/>
      <point x="280" y="245"/>
      <point x="340" y="286"/>
      <point x="393" y="286" type="curve" smooth="yes"/>
      <point x="427" y="286"/>
      <point x="442" y="257"/>
      <point x="442" y="229" type="curve" smooth="yes"/>
      <point x="442" y="192"/>
      <point x="419" y="138"/>
      <point x="231" y="85" type="curve"/>
    </contour>
  </outline>
</glyph>
<glyph name="q" format="2">
  <advance width="618"/>
  <unicode hex="0071"/>
  <outline>
    <contour>
      <point x="181" y="-14" type="curve" smooth="yes"/>
      <point x="284" y="-14"/>
      <point x="398" y="62"/>
      <point x="412" y="299" type="curve"/>
      <point x="356" y="268" type="line"/>
      <point x="341" y="176"/>
      <point x="308" y="154"/>
      <point x="274" y="154" type="curve" smooth="yes"/>
      <point x="246" y="154"/>
      <point x="217" y="172"/>
      <point x="217" y="211" type="curve" smooth="yes"/>
      <point x="217" y="268"/>
      <point x="292" y="328"/>
      <point x="442" y="347" type="curve"/>
      <point x="380" y="441" type="line"/>
      <point x="136" y="367"/>
      <point x="27" y="243"/>
      <point x="27" y="130" type="curve" smooth="yes"/>
      <point x="27" y="28"/>
      <point x="99" y="-14"/>
    </contour>
    <contour>
      <point x="319" y="-311" type="curve"/>
      <point x="578" y="-272" type="line"/>
      <point x="555" y="-32"/>
      <point x="550" y="220"/>
      <point x="560" y="458" type="curve"/>
      <point x="380" y="441" type="line"/>
      <point x="337" y="164"/>
      <point x="319" y="-60"/>
    </contour>
  </outline>
</glyph>
<glyph name="r" format="2">
	<advance width="573"/>
	<unicode hex="0072"/>
	<anchor x="156" y="-30" name="bottom"/>
	<anchor x="341" y="520" name="top"/>
	<outline>
		<contour>
			<point x="243" y="171" type="curve"/>
			<point x="260" y="-15" type="line"/>
			<point x="281" y="228"/>
			<point x="316" y="317"/>
			<point x="500" y="218" type="curve"/>
			<point x="528" y="449" type="line"/>
			<point x="374" y="528"/>
			<point x="253" y="400"/>
		</contour>
		<contour>
			<point x="40" y="15" type="curve"/>
			<point x="260" y="-15" type="line"/>
			<point x="271" y="169"/>
			<point x="269" y="287"/>
			<point x="239" y="469" type="curve"/>
			<point x="61" y="431" type="line"/>
			<point x="76" y="285"/>
			<point x="66" y="183"/>
		</contour>
	</outline>
</glyph>
<glyph name="s" format="2">
  <advance width="486"/>
  <unicode hex="0073"/>
  <anchor x="228" y="-19" name="bottom"/>
  <anchor x="237" y="17" name="cedilla"/>
  <anchor x="212" y="520" name="top"/>
  <outline>
    <contour>
      <point x="239" y="-21" type="curve" smooth="yes"/>
      <point x="356" y="-21"/>
      <point x="459" y="10"/>
      <point x="459" y="108" type="curve" smooth="yes"/>
      <point x="459" y="244"/>
      <point x="242" y="214"/>
      <point x="242" y="301" type="curve" smooth="yes"/>
      <point x="242" y="323"/>
      <point x="266" y="337"/>
      <point x="288" y="337" type="curve" smooth="yes"/>
      <point x="312" y="337"/>
      <point x="342" y="324"/>
      <point x="381" y="284" type="curve"/>
      <point x="443" y="400" type="line"/>
      <point x="385" y="447"/>
      <point x="301" y="474"/>
      <point x="226" y="474" type="curve" smooth="yes"/>
      <point x="135" y="474"/>
      <point x="57" y="434"/>
      <point x="57" y="343" type="curve" smooth="yes"/>
      <point x="57" y="192"/>
      <point x="235" y="225"/>
      <point x="235" y="149" type="curve" smooth="yes"/>
      <point x="235" y="122"/>
      <point x="216" y="112"/>
      <point x="189" y="112" type="curve" smooth="yes"/>
      <point x="150" y="112"/>
      <point x="81" y="139"/>
      <point x="42" y="160" type="curve"/>
      <point x="27" y="7" type="line"/>
      <point x="88" y="-9"/>
      <point x="167" y="-21"/>
    </contour>
  </outline>
</glyph>
<glyph name="t" format="2">
  <advance width="458"/>
  <unicode hex="0074"/>
  <anchor x="297" y="-9" name="bottom"/>
  <anchor x="309" y="20" name="cedilla"/>
  <anchor x="192" y="787" name="top"/>
  <anchor x="394" y="707" name="topright"/>
  <outline>
    <contour>
      <point x="420" y="-1" type="curve"/>
      <point x="428" y="219" type="line"/>
      <point x="281" y="207"/>
      <point x="251" y="255"/>
      <point x="255" y="327" type="curve" smooth="yes"/>
      <point x="261" y="441"/>
      <point x="287" y="588"/>
      <point x="312" y="743" type="curve"/>
      <point x="76" y="717" type="line"/>
      <point x="74" y="589"/>
      <point x="78" y="432"/>
      <point x="78" y="339" type="curve" smooth="yes"/>
      <point x="78" y="109"/>
      <point x="161" y="-16"/>
    </contour>
    <contour>
      <point x="389" y="347" type="curve"/>
      <point x="404" y="457" type="line"/>
      <point x="283" y="469"/>
      <point x="132" y="463"/>
      <point x="-3" y="436" type="curve"/>
      <point x="12" y="354" type="line"/>
      <point x="138" y="372"/>
      <point x="273" y="369"/>
    </contour>
  </outline>
</glyph>
<glyph name="w" format="2">
  <advance width="1027"/>
  <unicode hex="0077"/>
  <anchor x="422" y="-30" name="bottom"/>
  <anchor x="522" y="520" name="top"/>
  <outline>
    <contour>
      <point x="673" y="-18" type="curve" smooth="yes"/>
      <point x="1013" y="-20"/>
      <point x="1016" y="200"/>
      <point x="978" y="483" type="curve"/>
      <point x="706" y="448" type="line"/>
      <point x="780" y="277"/>
      <point x="818" y="73"/>
      <point x="674" y="73" type="curve" smooth="yes"/>
      <point x="538" y="73"/>
      <point x="580" y="284"/>
      <point x="632" y="441" type="curve"/>
      <point x="410" y="472" type="line"/>
      <point x="365" y="181"/>
      <point x="362" y="-16"/>
    </contour>
    <contour>
      <point x="248" y="-19" type="curve" smooth="yes"/>
      <point x="362" y="-18"/>
      <point x="429" y="108"/>
      <point x="443" y="174" type="curve"/>
      <point x="410" y="472" type="line"/>
      <point x="409" y="365"/>
      <point x="340" y="83"/>
      <point x="257" y="83" type="curve" smooth="yes"/>
      <point x="191" y="83"/>
      <point x="252" y="343"/>
      <point x="318" y="448" type="curve"/>
      <point x="46" y="483" type="line"/>
      <point x="15" y="254"/>
      <point x="25" y="-21"/>
    </contour>
  </outline>
</glyph>
<glyph name="x" format="2">
	<advance width="629"/>
	<unicode hex="0078"/>
	<outline>
		<contour>
			<point x="329" y="-10" type="curve"/>
			<point x="609" y="57" type="line"/>
			<point x="503" y="219"/>
			<point x="261" y="410"/>
			<point x="114" y="468" type="curve"/>
			<point x="20" y="371" type="line"/>
			<point x="117" y="290"/>
			<point x="270" y="160"/>
		</contour>
		<contour>
			<point x="23" y="108" type="curve"/>
			<point x="96" y="-22" type="line"/>
			<point x="255" y="100"/>
			<point x="459" y="278"/>
			<point x="534" y="429" type="curve"/>
			<point x="437" y="473" type="line"/>
			<point x="366" y="373"/>
			<point x="196" y="192"/>
		</contour>
	</outline>
</glyph>
<glyph name="y" format="2">
	<advance width="675"/>
	<unicode hex="0079"/>
	<anchor x="295" y="-347" name="bottom"/>
	<anchor x="343" y="520" name="top"/>
	<outline>
		<contour>
			<point x="159" y="-71" type="curve"/>
			<point x="62" y="-260" type="line"/>
			<point x="318" y="-356"/>
			<point x="540" y="-315"/>
			<point x="600" y="-25" type="curve" smooth="yes"/>
			<point x="624" y="91"/>
			<point x="641" y="299"/>
			<point x="633" y="482" type="curve"/>
			<point x="397" y="450" type="line"/>
			<point x="435" y="231"/>
			<point x="451" y="87"/>
			<point x="435" y="-30" type="curve" smooth="yes"/>
			<point x="412" y="-200"/>
			<point x="328" y="-195"/>
		</contour>
		<contour>
			<point x="228" y="-16" type="curve" smooth="yes"/>
			<point x="342" y="-16"/>
			<point x="464" y="116"/>
			<point x="464" y="290" type="curve"/>
			<point x="397" y="450" type="line"/>
			<point x="368" y="227"/>
			<point x="326" y="114"/>
			<point x="279" y="114" type="curve" smooth="yes"/>
			<point x="190" y="114"/>
			<point x="259" y="367"/>
			<point x="293" y="449" type="curve"/>
			<point x="45" y="461" type="line"/>
			<point x="24" y="287"/>
			<point x="46" y="-16"/>
		</contour>
	</outline>
</glyph>
<glyph name="z" format="2">
  <advance width="582"/>
  <unicode hex="007A"/>
  <anchor x="299" y="-20" name="bottom"/>
  <anchor x="299" y="520" name="top"/>
  <outline>
    <contour>
      <point x="179" y="35" type="line"/>
      <point x="360" y="154"/>
      <point x="464" y="263"/>
      <point x="550" y="400" type="curve"/>
      <point x="291" y="423" type="line"/>
      <point x="244" y="312"/>
      <point x="164" y="185"/>
      <point x="32" y="85" type="curve"/>
    </contour>
    <contour>
      <point x="489" y="-11" type="curve"/>
      <point x="516" y="116" type="line"/>
      <point x="392" y="116"/>
      <point x="265" y="96"/>
      <point x="173" y="76" type="curve"/>
      <point x="32" y="85" type="line"/>
      <point x="44" y="-2" type="line"/>
      <point x="166" y="0"/>
      <point x="296" y="15"/>
    </contour>
    <contour>
      <point x="37" y="364" type="line"/>
      <point x="249" y="349"/>
      <point x="357" y="339"/>
      <point x="550" y="400" type="curve"/>
      <point x="537" y="472" type="line"/>
      <point x="425" y="455"/>
      <point x="254" y="439"/>
      <point x="61" y="489" type="curve"/>
    </contour>
  </outline>
</glyph>
<glyph name="braceleft" format="2">
  <advance width="303"/>
  <unicode hex="007B"/>
  <outline>
    <contour>
      <point x="58" y="290" type="line"/>
      <point x="142" y="298"/>
      <point x="202" y="341"/>
      <point x="202" y="395" type="curve" smooth="yes"/>
      <point x="202" y="446"/>
      <point x="170" y="471"/>
      <point x="170" y="550" type="curve" smooth="yes"/>
      <point x="170" y="622"/>
      <point x="236" y="640"/>
      <point x="276" y="618" type="curve"/>
      <point x="276" y="765" type="line"/>
      <point x="184" y="791"/>
      <point x="32" y="760"/>
      <point x="32" y="640" type="curve" smooth="yes"/>
      <point x="32" y="542"/>
      <point x="136" y="489"/>
      <point x="136" y="452" type="curve" smooth="yes"/>
      <point x="136" y="421"/>
      <point x="98" y="413"/>
      <point x="58" y="411" type="curve"/>
    </contour>
    <contour>
      <point x="276" y="-64" type="curve"/>
      <point x="276" y="83" type="line"/>
      <point x="236" y="61"/>
      <point x="170" y="79"/>
      <point x="170" y="151" type="curve" smooth="yes"/>
      <point x="170" y="230"/>
      <point x="202" y="255"/>
      <point x="202" y="306" type="curve" smooth="yes"/>
      <point x="202" y="360"/>
      <point x="142" y="403"/>
      <point x="58" y="411" type="curve"/>
      <point x="58" y="290" type="line"/>
      <point x="98" y="288"/>
      <point x="136" y="280"/>
      <point x="136" y="249" type="curve" smooth="yes"/>
      <point x="136" y="212"/>
      <point x="32" y="159"/>
      <point x="32" y="61" type="curve" smooth="yes"/>
      <point x="32" y="-59"/>
      <point x="184" y="-90"/>
    </contour>
  </outline>
</glyph>
<glyph name="bar" format="2">
  <advance width="266"/>
  <unicode hex="007C"/>
  <outline>
    <contour>
      <point x="71" y="-210" type="curve"/>
      <point x="211" y="-203" type="line"/>
      <point x="231" y="143"/>
      <point x="230" y="468"/>
      <point x="210" y="774" type="curve"/>
      <point x="40" y="757" type="line"/>
      <point x="70" y="455"/>
      <point x="81" y="132"/>
    </contour>
  </outline>
</glyph>
<glyph name="asciitilde" format="2">
  <advance width="587"/>
  <unicode hex="007E"/>
  <outline>
    <contour>
      <point x="194" y="276" type="line"/>
      <point x="192" y="350"/>
      <point x="208" y="377"/>
      <point x="228" y="377" type="curve" smooth="yes"/>
      <point x="290" y="377"/>
      <point x="316" y="276"/>
      <point x="413" y="276" type="curve" smooth="yes"/>
      <point x="464" y="276"/>
      <point x="560" y="325"/>
      <point x="560" y="451" type="curve"/>
      <point x="403" y="461" type="line"/>
      <point x="406" y="397"/>
      <point x="389" y="370"/>
      <point x="369" y="370" type="curve" smooth="yes"/>
      <point x="335" y="370"/>
      <point x="270" y="461"/>
      <point x="174" y="461" type="curve" smooth="yes"/>
      <point x="110" y="461"/>
      <point x="27" y="412"/>
      <point x="27" y="286" type="curve"/>
    </contour>
  </outline>
</glyph>
<glyph name="cent" format="2">
  <advance width="551"/>
  <unicode hex="00A2"/>
  <outline>
    <contour>
      <point x="291" y="54" type="curve"/>
      <point x="379" y="54"/>
      <point x="470" y="79"/>
      <point x="531" y="128" type="curve"/>
      <point x="519" y="226" type="line"/>
      <point x="478" y="181"/>
      <point x="425" y="160"/>
      <point x="379" y="160" type="curve" smooth="yes"/>
      <point x="322" y="160"/>
      <point x="276" y="191"/>
      <point x="276" y="243" type="curve" smooth="yes"/>
      <point x="276" y="337"/>
      <point x="341" y="394"/>
      <point x="489" y="394" type="curve"/>
      <point x="477" y="519" type="line"/>
      <point x="291" y="540"/>
      <point x="27" y="450"/>
      <point x="27" y="247" type="curve" smooth="yes"/>
      <point x="27" y="115"/>
      <point x="156" y="54"/>
    </contour>
    <contour>
      <point x="247" y="421" type="line"/>
      <point x="370" y="432" type="line"/>
      <point x="398" y="706" type="line"/>
      <point x="234" y="689" type="line"/>
    </contour>
    <contour>
      <point x="234" y="-143" type="line"/>
      <point x="398" y="-126" type="line"/>
      <point x="385" y="142" type="line"/>
      <point x="262" y="131" type="line"/>
    </contour>
  </outline>
</glyph>
<glyph name="brokenbar" format="2">
  <advance width="286"/>
  <unicode hex="00A6"/>
  <outline>
    <contour>
      <point x="89" y="311" type="curve"/>
      <point x="246" y="335" type="line"/>
      <point x="247" y="475"/>
      <point x="239" y="634"/>
      <point x="220" y="774" type="curve"/>
      <point x="40" y="757" type="line"/>
      <point x="66" y="615"/>
      <point x="83" y="453"/>
    </contour>
    <contour>
      <point x="81" y="-210" type="curve"/>
      <point x="211" y="-203" type="line"/>
      <point x="232" y="-64"/>
      <point x="244" y="104"/>
      <point x="245" y="243" type="curve"/>
      <point x="93" y="241" type="line"/>
      <point x="99" y="101"/>
      <point x="95" y="-70"/>
    </contour>
  </outline>
</glyph>
<glyph name="section" format="2">
  <advance width="526"/>
  <unicode hex="00A7"/>
  <outline>
    <contour>
      <point x="257" y="-13" type="curve" smooth="yes"/>
      <point x="379" y="-13"/>
      <point x="499" y="26"/>
      <point x="499" y="128" type="curve" smooth="yes"/>
      <point x="499" y="302"/>
      <point x="207" y="283"/>
      <point x="207" y="382" type="curve" smooth="yes"/>
      <point x="207" y="409"/>
      <point x="226" y="434"/>
      <point x="288" y="434" type="curve"/>
      <point x="249" y="514" type="line"/>
      <point x="146" y="514"/>
      <point x="57" y="474"/>
      <point x="57" y="383" type="curve" smooth="yes"/>
      <point x="57" y="231"/>
      <point x="272" y="236"/>
      <point x="272" y="162" type="curve" smooth="yes"/>
      <point x="272" y="132"/>
      <point x="244" y="121"/>
      <point x="208" y="121" type="curve" smooth="yes"/>
      <point x="144" y="121"/>
      <point x="55" y="163"/>
      <point x="42" y="170" type="curve"/>
      <point x="27" y="17" type="line"/>
      <point x="88" y="1"/>
      <point x="187" y="-13"/>
    </contour>
    <contour>
      <point x="257" y="233" type="line"/>
      <point x="379" y="233"/>
      <point x="499" y="272"/>
      <point x="499" y="374" type="curve" smooth="yes"/>
      <point x="499" y="538"/>
      <point x="207" y="519"/>
      <point x="207" y="618" type="curve" smooth="yes"/>
      <point x="207" y="645"/>
      <point x="224" y="655"/>
      <point x="249" y="655" type="curve" smooth="yes"/>
      <point x="307" y="655"/>
      <point x="369" y="600"/>
      <point x="414" y="558" type="curve"/>
      <point x="483" y="686" type="line"/>
      <point x="424" y="734"/>
      <point x="332" y="760"/>
      <point x="249" y="760" type="curve" smooth="yes"/>
      <point x="146" y="760"/>
      <point x="57" y="720"/>
      <point x="57" y="629" type="curve" smooth="yes"/>
      <point x="57" y="477"/>
      <point x="292" y="462"/>
      <point x="292" y="388" type="curve" smooth="yes"/>
      <point x="292" y="348"/>
      <point x="249" y="327"/>
      <point x="198" y="337" type="curve"/>
    </contour>
  </outline>
</glyph>
<glyph name="copyright" format="2">
  <advance width="995"/>
  <unicode hex="00A9"/>
  <anchor x="514" y="38" name="bottom"/>
  <anchor x="530" y="62" name="cedilla"/>
  <anchor x="535" y="680" name="top"/>
  <outline>
    <contour>
      <point x="507" y="-129" type="curve" smooth="yes"/>
      <point x="745" y="-129"/>
      <point x="963" y="66"/>
      <point x="963" y="372" type="curve" smooth="yes"/>
      <point x="963" y="640"/>
      <point x="754" y="801"/>
      <point x="487" y="801" type="curve" smooth="yes"/>
      <point x="220" y="801"/>
      <point x="32" y="630"/>
      <point x="32" y="362" type="curve" smooth="yes"/>
      <point x="32" y="62"/>
      <point x="269" y="-129"/>
    </contour>
    <contour>
      <point x="506" y="-34" type="curve"/>
      <point x="276" y="-34"/>
      <point x="125" y="113"/>
      <point x="125" y="354" type="curve" smooth="yes"/>
      <point x="125" y="567"/>
      <point x="267" y="707"/>
      <point x="482" y="707" type="curve" smooth="yes"/>
      <point x="698" y="707"/>
      <point x="873" y="582"/>
      <point x="873" y="371" type="curve" smooth="yes"/>
      <point x="873" y="120"/>
      <point x="736" y="-34"/>
    </contour>
    <contour>
      <point x="506" y="38" type="curve" smooth="yes"/>
      <point x="567" y="38"/>
      <point x="629" y="53"/>
      <point x="687" y="83" type="curve"/>
      <point x="687" y="162" type="line"/>
      <point x="646" y="144"/>
      <point x="599" y="134"/>
      <point x="555" y="134" type="curve" smooth="yes"/>
      <point x="473" y="134"/>
      <point x="392" y="169"/>
      <point x="392" y="316" type="curve" smooth="yes"/>
      <point x="392" y="408"/>
      <point x="461" y="486"/>
      <point x="567" y="486" type="curve" smooth="yes"/>
      <point x="607" y="486"/>
      <point x="649" y="479"/>
      <point x="690" y="465" type="curve"/>
      <point x="709" y="600" type="line"/>
      <point x="663" y="625"/>
      <point x="599" y="638"/>
      <point x="533" y="638" type="curve" smooth="yes"/>
      <point x="367" y="638"/>
      <point x="179" y="550"/>
      <point x="179" y="325" type="curve" smooth="yes"/>
      <point x="179" y="150"/>
      <point x="335" y="38"/>
    </contour>
  </outline>
</glyph>
<glyph name="registered" format="2">
  <advance width="494"/>
  <unicode hex="00AE"/>
  <anchor x="247" y="459" name="bottom"/>
  <anchor x="248" y="739" name="top"/>
  <outline>
    <contour>
      <point x="251" y="372" type="curve" smooth="yes"/>
      <point x="362" y="372"/>
      <point x="462" y="462"/>
      <point x="462" y="603" type="curve" smooth="yes"/>
      <point x="462" y="727"/>
      <point x="366" y="801"/>
      <point x="242" y="801" type="curve" smooth="yes"/>
      <point x="119" y="801"/>
      <point x="32" y="722"/>
      <point x="32" y="598" type="curve" smooth="yes"/>
      <point x="32" y="460"/>
      <point x="142" y="372"/>
    </contour>
    <contour>
      <point x="251" y="415" type="curve"/>
      <point x="145" y="415"/>
      <point x="75" y="484"/>
      <point x="75" y="594" type="curve" smooth="yes"/>
      <point x="75" y="692"/>
      <point x="141" y="758"/>
      <point x="240" y="758" type="curve" smooth="yes"/>
      <point x="340" y="758"/>
      <point x="421" y="700"/>
      <point x="421" y="603" type="curve" smooth="yes"/>
      <point x="421" y="487"/>
      <point x="358" y="415"/>
    </contour>
    <contour>
      <point x="235" y="547" type="line"/>
      <point x="332" y="576"/>
      <point x="368" y="620"/>
      <point x="368" y="668" type="curve" smooth="yes"/>
      <point x="368" y="706"/>
      <point x="347" y="730"/>
      <point x="310" y="730" type="curve" smooth="yes"/>
      <point x="276" y="730"/>
      <point x="239" y="712"/>
      <point x="225" y="647" type="curve"/>
      <point x="239" y="618" type="line"/>
      <point x="250" y="647"/>
      <point x="271" y="651"/>
      <point x="282" y="651" type="curve" smooth="yes"/>
      <point x="291" y="651"/>
      <point x="300" y="646"/>
      <point x="300" y="633" type="curve" smooth="yes"/>
      <point x="300" y="620"/>
      <point x="291" y="599"/>
      <point x="225" y="580" type="curve"/>
    </contour>
    <contour>
      <point x="154" y="456" type="curve"/>
      <point x="225" y="459" type="line"/>
      <point x="240" y="570"/>
      <point x="241" y="612"/>
      <point x="241" y="727" type="curve"/>
      <point x="144" y="713" type="line"/>
      <point x="156" y="615"/>
      <point x="157" y="558"/>
    </contour>
    <contour>
      <point x="269" y="459" type="curve"/>
      <point x="370" y="471" type="line"/>
      <point x="355" y="549"/>
      <point x="295" y="575"/>
      <point x="253" y="586" type="curve"/>
      <point x="230" y="556" type="line"/>
      <point x="255" y="547"/>
      <point x="269" y="502"/>
    </contour>
  </outline>
</glyph>
<glyph name="macron" format="2">
  <advance width="300"/>
  <unicode hex="00AF"/>
  <anchor x="150" y="520" name="_top"/>
  <anchor x="150" y="700" name="top"/>
  <outline>
    <contour>
      <point x="279" y="534" type="line"/>
      <point x="295" y="622" type="line"/>
      <point x="27" y="652" type="line"/>
      <point x="5" y="541" type="line"/>
    </contour>
  </outline>
</glyph>
<glyph name="degree" format="2">
	<advance width="413"/>
	<unicode hex="00B0"/>
	<outline>
		<contour>
			<point x="196" y="444" type="curve" smooth="yes"/>
			<point x="321" y="444"/>
			<point x="381" y="526"/>
			<point x="381" y="606" type="curve" smooth="yes"/>
			<point x="381" y="684"/>
			<point x="325" y="760"/>
			<point x="216" y="760" type="curve" smooth="yes"/>
			<point x="92" y="760"/>
			<point x="32" y="679"/>
			<point x="32" y="599" type="curve" smooth="yes"/>
			<point x="32" y="521"/>
			<point x="89" y="444"/>
		</contour>
		<contour>
			<point x="203" y="550" type="curve" smooth="yes"/>
			<point x="160" y="550"/>
			<point x="138" y="576"/>
			<point x="138" y="602" type="curve" smooth="yes"/>
			<point x="138" y="628"/>
			<point x="159" y="654"/>
			<point x="203" y="654" type="curve" smooth="yes"/>
			<point x="252" y="654"/>
			<point x="277" y="628"/>
			<point x="277" y="602" type="curve" smooth="yes"/>
			<point x="277" y="576"/>
			<point x="252" y="550"/>
		</contour>
	</outline>
</glyph>
<glyph name="micro" format="2">
  <advance width="734"/>
  <unicode hex="00B5"/>
  <outline>
    <contour>
      <point x="58" y="-299" type="curve"/>
      <point x="239" y="-282" type="line"/>
      <point x="282" y="-5"/>
      <point x="300" y="229"/>
      <point x="300" y="480" type="curve"/>
      <point x="40" y="441" type="line"/>
      <point x="63" y="201"/>
      <point x="68" y="-61"/>
    </contour>
    <contour>
      <point x="401" y="-21" type="curve" smooth="yes"/>
      <point x="487" y="-21"/>
      <point x="525" y="92"/>
      <point x="538" y="230" type="curve"/>
      <point x="457" y="230" type="line"/>
      <point x="461" y="158"/>
      <point x="449" y="109"/>
      <point x="414" y="109" type="curve" smooth="yes"/>
      <point x="367" y="109"/>
      <point x="329" y="217"/>
      <point x="300" y="440" type="curve"/>
      <point x="207" y="303" type="line"/>
      <point x="227" y="146"/>
      <point x="303" y="-21"/>
    </contour>
    <contour>
      <point x="657" y="-34" type="curve"/>
      <point x="690" y="109" type="line"/>
      <point x="611" y="109"/>
      <point x="680" y="372"/>
      <point x="704" y="454" type="curve"/>
      <point x="451" y="416" type="line"/>
      <point x="435" y="292"/>
      <point x="465" y="-34"/>
    </contour>
  </outline>
</glyph>
<glyph name="paragraph" format="2">
  <advance width="753"/>
  <unicode hex="00B6"/>
  <outline>
    <contour>
      <point x="372" y="215" type="curve"/>
      <point x="406" y="465" type="line"/>
      <point x="394" y="704"/>
      <point x="286" y="798"/>
      <point x="191" y="798" type="curve" smooth="yes"/>
      <point x="92" y="798"/>
      <point x="32" y="704"/>
      <point x="32" y="591" type="curve" smooth="yes"/>
      <point x="32" y="447"/>
      <point x="130" y="271"/>
    </contour>
    <contour>
      <point x="495" y="2" type="line"/>
      <point x="485" y="295"/>
      <point x="490" y="462"/>
      <point x="522" y="745" type="curve"/>
      <point x="345" y="767" type="line"/>
      <point x="345" y="429"/>
      <point x="348" y="343"/>
      <point x="391" y="18" type="curve"/>
    </contour>
    <contour>
      <point x="546" y="2" type="curve"/>
      <point x="713" y="24" type="line"/>
      <point x="681" y="308"/>
      <point x="676" y="476"/>
      <point x="686" y="767" type="curve"/>
      <point x="592" y="751" type="line"/>
      <point x="549" y="426"/>
      <point x="546" y="340"/>
    </contour>
    <contour>
      <point x="678" y="582" type="curve"/>
      <point x="686" y="767" type="line"/>
      <point x="531" y="754"/>
      <point x="505" y="760"/>
      <point x="345" y="767" type="curve"/>
      <point x="344" y="638" type="line"/>
      <point x="537" y="627"/>
      <point x="519" y="619"/>
    </contour>
  </outline>
</glyph>
<glyph name="AE" format="2">
  <advance width="1111"/>
  <unicode hex="00C6"/>
  <anchor x="387" y="0" name="bottom"/>
  <anchor x="659" y="16" name="ogonek"/>
  <anchor x="415" y="800" name="top"/>
  <outline>
    <contour>
      <point x="452" y="0" type="curve"/>
      <point x="696" y="14" type="line"/>
      <point x="756" y="435"/>
      <point x="685" y="766"/>
      <point x="413" y="766" type="curve" smooth="yes"/>
      <point x="115" y="766"/>
      <point x="23" y="452"/>
      <point x="52" y="3" type="curve"/>
      <point x="324" y="20" type="line"/>
      <point x="299" y="255"/>
      <point x="296" y="670"/>
      <point x="417" y="670" type="curve" smooth="yes"/>
      <point x="548" y="670"/>
      <point x="477" y="112"/>
    </contour>
    <contour>
      <point x="129" y="273" type="line"/>
      <point x="317" y="246"/>
      <point x="520" y="244"/>
      <point x="647" y="304" type="curve"/>
      <point x="637" y="385" type="line"/>
      <point x="518" y="370"/>
      <point x="334" y="338"/>
      <point x="169" y="404" type="curve"/>
    </contour>
    <contour>
      <point x="1084" y="-5" type="curve"/>
      <point x="1084" y="161" type="line"/>
      <point x="916" y="137"/>
      <point x="628" y="118"/>
      <point x="503" y="118" type="curve"/>
      <point x="452" y="0" type="line"/>
      <point x="566" y="-12"/>
      <point x="963" y="-5"/>
    </contour>
    <contour>
      <point x="953" y="288" type="curve"/>
      <point x="950" y="424" type="line"/>
      <point x="869" y="422"/>
      <point x="760" y="415"/>
      <point x="653" y="401" type="curve"/>
      <point x="654" y="289" type="line"/>
      <point x="775" y="301"/>
      <point x="877" y="304"/>
    </contour>
    <contour>
      <point x="1064" y="584" type="curve"/>
      <point x="1064" y="770" type="line"/>
      <point x="947" y="767"/>
      <point x="645" y="766"/>
      <point x="413" y="766" type="curve"/>
      <point x="530" y="637" type="line"/>
      <point x="616" y="637"/>
      <point x="855" y="626"/>
    </contour>
  </outline>
</glyph>
<glyph name="Eth" format="2">
  <advance width="788"/>
  <unicode hex="00D0"/>
  <anchor x="244" y="0" name="bottom"/>
  <anchor x="244" y="325" name="center"/>
  <anchor x="399" y="800" name="top"/>
  <outline>
    <contour>
      <point x="-15" y="278" type="line"/>
      <point x="432" y="295" type="line"/>
      <point x="432" y="388" type="line"/>
      <point x="-13" y="404" type="line"/>
    </contour>
    <component base="D"/>
  </outline>
</glyph>
<glyph name="Oslash" format="2">
	<advance width="849"/>
	<unicode hex="00D8"/>
	<outline>
		<component base="O"/>
		<contour>
			<point x="267" y="-58" type="line"/>
			<point x="681" y="760" type="line"/>
			<point x="573" y="788" type="line"/>
			<point x="178" y="-29" type="line"/>
		</contour>
	</outline>
</glyph>
<glyph name="Thorn" format="2">
  <advance width="706"/>
  <unicode hex="00DE"/>
  <outline>
    <contour>
      <point x="47" y="-18" type="curve"/>
      <point x="324" y="24" type="line"/>
      <point x="292" y="307"/>
      <point x="287" y="485"/>
      <point x="297" y="777" type="curve"/>
      <point x="93" y="741" type="line"/>
      <point x="50" y="416"/>
      <point x="47" y="320"/>
    </contour>
    <contour>
      <point x="221" y="159" type="line"/>
      <point x="551" y="188"/>
      <point x="674" y="309"/>
      <point x="674" y="418" type="curve" smooth="yes"/>
      <point x="674" y="517"/>
      <point x="572" y="606"/>
      <point x="432" y="606" type="curve" smooth="yes"/>
      <point x="387" y="606"/>
      <point x="337" y="597"/>
      <point x="286" y="576" type="curve"/>
      <point x="248" y="494" type="line"/>
      <point x="324" y="513"/>
      <point x="439" y="515"/>
      <point x="439" y="431" type="curve" smooth="yes"/>
      <point x="439" y="338"/>
      <point x="347" y="275"/>
      <point x="197" y="275" type="curve"/>
    </contour>
  </outline>
</glyph>
<glyph name="divide" format="2">
  <advance width="460"/>
  <unicode hex="00F7"/>
  <outline>
    <contour>
      <point x="433" y="258" type="curve"/>
      <point x="430" y="453" type="line"/>
      <point x="303" y="456"/>
      <point x="155" y="449"/>
      <point x="28" y="432" type="curve"/>
      <point x="27" y="282" type="line"/>
      <point x="156" y="284"/>
      <point x="304" y="276"/>
    </contour>
    <contour>
      <point x="140" y="35" type="curve"/>
      <point x="327" y="43" type="line"/>
      <point x="322" y="102"/>
      <point x="320" y="169"/>
      <point x="329" y="233" type="curve"/>
      <point x="138" y="233" type="line"/>
      <point x="132" y="176"/>
      <point x="131" y="95"/>
    </contour>
    <contour>
      <point x="140" y="495" type="curve"/>
      <point x="327" y="503" type="line"/>
      <point x="322" y="562"/>
      <point x="320" y="629"/>
      <point x="329" y="693" type="curve"/>
      <point x="138" y="693" type="line"/>
      <point x="132" y="636"/>
      <point x="131" y="555"/>
    </contour>
  </outline>
</glyph>
<glyph name="thorn" format="2">
	<advance width="634"/>
	<unicode hex="00FE"/>
	<outline>
		<contour>
			<point x="37" y="-188" type="curve"/>
			<point x="296" y="-165" type="line"/>
			<point x="296" y="104"/>
			<point x="285" y="306"/>
			<point x="241" y="609" type="curve"/>
			<point x="57" y="582" type="line"/>
			<point x="68" y="274"/>
			<point x="68" y="109"/>
		</contour>
		<contour>
			<point x="228" y="85" type="curve"/>
			<point x="257" y="-34" type="line"/>
			<point x="534" y="38"/>
			<point x="607" y="182"/>
			<point x="607" y="295" type="curve" smooth="yes"/>
			<point x="607" y="397"/>
			<point x="535" y="459"/>
			<point x="453" y="459" type="curve" smooth="yes"/>
			<point x="350" y="459"/>
			<point x="232" y="363"/>
			<point x="218" y="126" type="curve"/>
			<point x="277" y="153" type="line"/>
			<point x="277" y="245"/>
			<point x="337" y="286"/>
			<point x="390" y="286" type="curve" smooth="yes"/>
			<point x="424" y="286"/>
			<point x="439" y="257"/>
			<point x="439" y="229" type="curve" smooth="yes"/>
			<point x="439" y="192"/>
			<point x="416" y="138"/>
		</contour>
	</outline>
</glyph>
<glyph name="dcroat" format="2">
  <advance width="630"/>
  <unicode hex="0111"/>
  <anchor x="126" y="0" name="bottom"/>
  <anchor x="241" y="260" name="center"/>
  <anchor x="462" y="800" name="top"/>
  <anchor x="673" y="750" name="topright"/>
  <outline>
    <contour>
      <point x="162" y="562" type="line"/>
      <point x="609" y="579" type="line"/>
      <point x="609" y="672" type="line"/>
      <point x="164" y="688" type="line"/>
    </contour>
    <component base="d"/>
  </outline>
</glyph>
<glyph name="Hbar" format="2">
	<advance width="837"/>
	<unicode hex="0126"/>
	<outline>
		<contour>
			<point x="2" y="501" type="line"/>
			<point x="814" y="592" type="line"/>
			<point x="806" y="685" type="line"/>
			<point x="-5" y="627" type="line"/>
		</contour>
		<component base="H"/>
	</outline>
</glyph>
<glyph name="Lslash" format="2">
  <advance width="588"/>
  <unicode hex="0141"/>
  <anchor x="336" y="-30" name="bottom"/>
  <anchor x="298" y="325" name="center"/>
  <anchor x="196" y="800" name="top"/>
  <anchor x="431" y="720" name="topright"/>
  <outline>
    <contour>
      <point x="26" y="176" type="line"/>
      <point x="405" y="414" type="line"/>
      <point x="359" y="494" type="line"/>
      <point x="-35" y="286" type="line"/>
    </contour>
    <component base="L"/>
  </outline>
</glyph>
<glyph name="lslash" format="2">
  <advance width="340"/>
  <unicode hex="0142"/>
  <anchor x="147" y="-40" name="bottom"/>
  <anchor x="163" y="830" name="top"/>
  <anchor x="378" y="760" name="topright"/>
  <outline>
    <contour>
      <point x="18" y="203" type="line"/>
      <point x="397" y="441" type="line"/>
      <point x="350" y="520" type="line"/>
      <point x="-43" y="312" type="line"/>
    </contour>
    <component base="l"/>
  </outline>
</glyph>
<glyph name="uni0237" format="2">
	<advance width="342"/>
	<unicode hex="0237"/>
	<anchor x="176" y="-233" name="bottom"/>
	<anchor x="162" y="529" name="top"/>
	<outline>
		<contour>
			<point x="-59" y="-144" type="curve"/>
			<point x="-41" y="-244" type="line"/>
			<point x="173" y="-260"/>
			<point x="279" y="-168"/>
			<point x="301" y="60" type="curve" smooth="yes"/>
			<point x="313" y="179"/>
			<point x="311" y="296"/>
			<point x="303" y="474" type="curve"/>
			<point x="41" y="436" type="line"/>
			<point x="74" y="236"/>
			<point x="98" y="127"/>
			<point x="98" y="22" type="curve" smooth="yes"/>
			<point x="98" y="-105"/>
			<point x="70" y="-155"/>
		</contour>
	</outline>
</glyph>
<glyph name="circumflex" format="2">
  <advance width="300"/>
  <unicode hex="02C6"/>
  <anchor x="150" y="520" name="_top"/>
  <anchor x="150" y="752" name="top"/>
  <outline>
    <contour>
      <point x="68" y="530" type="line"/>
      <point x="164" y="670" type="line"/>
      <point x="150" y="752" type="line"/>
      <point x="-30" y="576" type="line"/>
    </contour>
    <contour>
      <point x="232" y="530" type="line"/>
      <point x="330" y="576" type="line"/>
      <point x="150" y="752" type="line"/>
      <point x="136" y="670" type="line"/>
    </contour>
  </outline>
</glyph>
<glyph name="dotaccent" format="2">
	<advance width="300"/>
	<unicode hex="02D9"/>
	<anchor x="150" y="520" name="_top"/>
	<anchor x="150" y="720" name="top"/>
	<outline>
		<contour>
			<point x="76" y="533" type="curve"/>
			<point x="237" y="540" type="line"/>
			<point x="231" y="591"/>
			<point x="230" y="649"/>
			<point x="238" y="703" type="curve"/>
			<point x="75" y="703" type="line"/>
			<point x="69" y="653"/>
			<point x="68" y="584"/>
		</contour>
	</outline>
</glyph>
<glyph name="hungarumlaut" format="2">
  <advance width="300"/>
  <unicode hex="02DD"/>
  <anchor x="150" y="520" name="_top"/>
  <anchor x="150" y="700" name="top"/>
  <outline>
    <contour>
      <point x="10" y="530" type="line"/>
      <point x="206" y="680" type="line"/>
      <point x="122" y="762" type="line"/>
      <point x="-48" y="576" type="line"/>
    </contour>
    <contour>
      <point x="200" y="541" type="line"/>
      <point x="396" y="691" type="line"/>
      <point x="312" y="773" type="line"/>
      <point x="142" y="587" type="line"/>
    </contour>
  </outline>
</glyph>
<glyph name="gravecomb" format="2">
  <unicode hex="0300"/>
  <anchor x="150" y="520" name="_top"/>
  <anchor x="150" y="700" name="top"/>
  <outline>
    <contour>
      <point x="148" y="540" type="line"/>
      <point x="206" y="586" type="line"/>
      <point x="36" y="772" type="line"/>
      <point x="-48" y="690" type="line"/>
    </contour>
  </outline>
</glyph>
<glyph name="tildecomb" format="2">
  <unicode hex="0303"/>
  <anchor x="150" y="520" name="_top"/>
  <anchor x="150" y="710" name="top"/>
  <outline>
    <contour>
      <point x="65" y="533" type="line"/>
      <point x="63" y="586"/>
      <point x="75" y="605"/>
      <point x="89" y="605" type="curve" smooth="yes"/>
      <point x="133" y="605"/>
      <point x="166" y="533"/>
      <point x="235" y="533" type="curve" smooth="yes"/>
      <point x="271" y="533"/>
      <point x="340" y="568"/>
      <point x="340" y="658" type="curve"/>
      <point x="235" y="665" type="line"/>
      <point x="237" y="612"/>
      <point x="225" y="593"/>
      <point x="211" y="593" type="curve" smooth="yes"/>
      <point x="165" y="593"/>
      <point x="147" y="665"/>
      <point x="65" y="665" type="curve" smooth="yes"/>
      <point x="19" y="665"/>
      <point x="-40" y="630"/>
      <point x="-40" y="540" type="curve"/>
    </contour>
  </outline>
</glyph>
<glyph name="macroncomb" format="2">
  <unicode hex="0304"/>
  <anchor x="150" y="520" name="_top"/>
  <anchor x="150" y="700" name="top"/>
  <outline>
    <contour>
      <point x="279" y="534" type="line"/>
      <point x="295" y="622" type="line"/>
      <point x="27" y="652" type="line"/>
      <point x="5" y="541" type="line"/>
    </contour>
  </outline>
</glyph>
<glyph name="dotaccentcomb" format="2">
  <unicode hex="0307"/>
  <anchor x="150" y="520" name="_top"/>
  <anchor x="150" y="720" name="top"/>
  <outline>
    <contour>
      <point x="76" y="533" type="curve"/>
      <point x="237" y="540" type="line"/>
      <point x="231" y="591"/>
      <point x="230" y="649"/>
      <point x="238" y="703" type="curve"/>
      <point x="75" y="703" type="line"/>
      <point x="69" y="653"/>
      <point x="68" y="584"/>
    </contour>
  </outline>
</glyph>
<glyph name="uni030A" format="2">
	<advance width="0"/>
	<unicode hex="030A"/>
	<guideline x="177" y="537" angle="0"/>
	<anchor x="150" y="520" name="_top"/>
	<anchor x="149" y="770" name="top"/>
	<outline>
		<contour>
			<point x="149" y="541" type="curve" smooth="yes"/>
			<point x="223" y="541"/>
			<point x="256" y="590"/>
			<point x="256" y="640" type="curve" smooth="yes"/>
			<point x="256" y="695"/>
			<point x="218" y="750"/>
			<point x="149" y="750" type="curve" smooth="yes"/>
			<point x="80" y="750"/>
			<point x="48" y="700"/>
			<point x="48" y="649" type="curve" smooth="yes"/>
			<point x="48" y="596"/>
			<point x="85" y="541"/>
		</contour>
		<contour>
			<point x="151" y="621" type="curve" smooth="yes"/>
			<point x="120" y="621"/>
			<point x="103" y="634"/>
			<point x="103" y="646" type="curve" smooth="yes"/>
			<point x="103" y="658"/>
			<point x="118" y="670"/>
			<point x="151" y="670" type="curve" smooth="yes"/>
			<point x="183" y="670"/>
			<point x="201" y="657"/>
			<point x="201" y="644" type="curve" smooth="yes"/>
			<point x="201" y="632"/>
			<point x="186" y="621"/>
		</contour>
	</outline>
</glyph>
<glyph name="hungarumlautcomb" format="2">
  <unicode hex="030B"/>
  <anchor x="150" y="520" name="_top"/>
  <anchor x="150" y="700" name="top"/>
  <outline>
    <contour>
      <point x="10" y="530" type="line"/>
      <point x="206" y="680" type="line"/>
      <point x="122" y="762" type="line"/>
      <point x="-48" y="576" type="line"/>
    </contour>
    <contour>
      <point x="200" y="541" type="line"/>
      <point x="396" y="691" type="line"/>
      <point x="312" y="773" type="line"/>
      <point x="142" y="587" type="line"/>
    </contour>
  </outline>
</glyph>
<glyph name="commaturnedabovecomb" format="2">
  <unicode hex="0312"/>
  <anchor x="150" y="520" name="_top"/>
  <anchor x="150" y="830" name="top"/>
  <outline>
    <contour>
      <point x="156" y="781" type="line"/>
      <point x="118" y="749"/>
      <point x="93" y="708"/>
      <point x="88" y="667" type="curve"/>
      <point x="85" y="626"/>
      <point x="86" y="586"/>
      <point x="86" y="541" type="curve"/>
      <point x="220" y="534" type="line"/>
      <point x="227" y="574"/>
      <point x="225" y="631"/>
      <point x="219" y="673" type="curve"/>
      <point x="124" y="668" type="line"/>
      <point x="151" y="660" type="line"/>
      <point x="154" y="675"/>
      <point x="186" y="703"/>
      <point x="228" y="722" type="curve"/>
    </contour>
  </outline>
</glyph>
<glyph name="uni0312" format="2">
	<advance width="0"/>
	<unicode hex="0312"/>
	<guideline x="177" y="537" angle="0"/>
	<anchor x="150" y="520" name="_top"/>
	<anchor x="150" y="830" name="top"/>
	<outline>
		<contour>
			<point x="228" y="722" type="curve"/>
			<point x="156" y="781" type="line"/>
			<point x="118" y="749"/>
			<point x="93" y="708"/>
			<point x="88" y="667" type="curve"/>
			<point x="85" y="626"/>
			<point x="86" y="586"/>
			<point x="86" y="541" type="curve"/>
			<point x="220" y="534" type="line"/>
			<point x="227" y="574"/>
			<point x="225" y="631"/>
			<point x="219" y="673" type="curve"/>
			<point x="124" y="668" type="line"/>
			<point x="151" y="660" type="line"/>
			<point x="154" y="675"/>
			<point x="186" y="703"/>
		</contour>
	</outline>
</glyph>
<glyph name="commaaccentcomb" format="2">
  <unicode hex="0326"/>
  <anchor x="150" y="0" name="_bottom"/>
  <anchor x="150" y="-310" name="bottom"/>
  <outline>
    <contour>
      <point x="149" y="-263" type="line"/>
      <point x="187" y="-231"/>
      <point x="212" y="-190"/>
      <point x="217" y="-149" type="curve"/>
      <point x="220" y="-108"/>
      <point x="219" y="-68"/>
      <point x="219" y="-23" type="curve"/>
      <point x="85" y="-16" type="line"/>
      <point x="78" y="-56"/>
      <point x="80" y="-113"/>
      <point x="86" y="-155" type="curve"/>
      <point x="181" y="-150" type="line"/>
      <point x="154" y="-142" type="line"/>
      <point x="151" y="-157"/>
      <point x="119" y="-185"/>
      <point x="77" y="-204" type="curve"/>
    </contour>
  </outline>
</glyph>
<glyph name="cedillacomb" format="2">
  <unicode hex="0327"/>
  <anchor x="165" y="12" name="_cedilla"/>
  <outline>
    <contour>
      <point x="80" y="-216" type="line"/>
      <point x="145" y="-227"/>
      <point x="255" y="-216"/>
      <point x="255" y="-129" type="curve" smooth="yes"/>
      <point x="255" y="-78"/>
      <point x="206" y="-25"/>
      <point x="115" y="-25" type="curve"/>
      <point x="65" y="-109" type="line"/>
      <point x="98" y="-104"/>
      <point x="213" y="-94"/>
      <point x="213" y="-128" type="curve" smooth="yes"/>
      <point x="213" y="-156"/>
      <point x="116" y="-144"/>
      <point x="82" y="-136" type="curve"/>
    </contour>
    <contour>
      <point x="65" y="-109" type="line"/>
      <point x="121" y="-99" type="line"/>
      <point x="203" y="16" type="line"/>
      <point x="121" y="11" type="line"/>
    </contour>
  </outline>
</glyph>
<glyph name="uni0328" format="2">
	<advance width="0"/>
	<unicode hex="0328"/>
	<anchor x="200" y="-5" name="_ogonek"/>
	<outline>
		<contour>
			<point x="202" y="-215" type="curve"/>
			<point x="209" y="-110" type="line"/>
			<point x="164" y="-115"/>
			<point x="126" y="-96"/>
			<point x="126" y="-69" type="curve" smooth="yes"/>
			<point x="126" y="-47"/>
			<point x="151" y="-30"/>
			<point x="200" y="-5" type="curve"/>
			<point x="153" y="9" type="line"/>
			<point x="80" y="-31"/>
			<point x="49" y="-69"/>
			<point x="49" y="-112" type="curve" smooth="yes"/>
			<point x="49" y="-169"/>
			<point x="115" y="-216"/>
		</contour>
	</outline>
</glyph>
<glyph name="comma-ar" format="2">
  <advance width="304"/>
  <unicode hex="060C"/>
  <outline>
    <contour>
      <point x="158" y="-11" type="curve" smooth="yes"/>
      <point x="225" y="-11"/>
      <point x="264" y="39"/>
      <point x="264" y="87" type="curve" smooth="yes"/>
      <point x="264" y="160"/>
      <point x="174" y="182"/>
      <point x="137" y="173" type="curve"/>
      <point x="157" y="196"/>
      <point x="190" y="231"/>
      <point x="236" y="257" type="curve"/>
      <point x="133" y="342" type="line"/>
      <point x="69" y="287"/>
      <point x="40" y="200"/>
      <point x="40" y="134" type="curve" smooth="yes"/>
      <point x="40" y="55"/>
      <point x="82" y="-11"/>
    </contour>
  </outline>
</glyph>
<glyph name="tahabove-ar" format="2">
  <unicode hex="0615"/>
  <anchor x="41" y="592" name="_top"/>
  <anchor x="49" y="813" name="top"/>
  <outline>
    <contour>
      <point x="27" y="599" type="curve" smooth="yes"/>
      <point x="101" y="599"/>
      <point x="140" y="630"/>
      <point x="140" y="680" type="curve" smooth="yes"/>
      <point x="140" y="715"/>
      <point x="118" y="741"/>
      <point x="79" y="741" type="curve" smooth="yes"/>
      <point x="35" y="741"/>
      <point x="-10" y="698"/>
      <point x="-20" y="633" type="curve"/>
      <point x="5" y="625" type="line"/>
      <point x="21" y="670"/>
      <point x="36" y="679"/>
      <point x="50" y="679" type="curve" smooth="yes"/>
      <point x="60" y="679"/>
      <point x="66" y="673"/>
      <point x="66" y="663" type="curve" smooth="yes"/>
      <point x="66" y="651"/>
      <point x="52" y="635"/>
      <point x="11" y="635" type="curve" smooth="yes"/>
      <point x="-13" y="635"/>
      <point x="-34" y="641"/>
      <point x="-47" y="645" type="curve"/>
      <point x="-55" y="613" type="line"/>
      <point x="-32" y="604"/>
      <point x="9" y="599"/>
    </contour>
    <contour>
      <point x="-34" y="625" type="curve"/>
      <point x="7" y="633" type="line"/>
      <point x="29" y="682"/>
      <point x="41" y="741"/>
      <point x="36" y="801" type="curve"/>
      <point x="-49" y="792" type="line"/>
      <point x="-35" y="734"/>
      <point x="-32" y="692"/>
    </contour>
  </outline>
</glyph>
<glyph name="hah-ar" format="2">
  <advance width="630"/>
  <unicode hex="062D"/>
  <anchor x="335" y="-470" name="bottom"/>
  <anchor x="307" y="590" name="top"/>
  <outline>
    <contour>
      <point x="350" y="-420" type="curve" smooth="yes"/>
      <point x="428" y="-420"/>
      <point x="515" y="-404"/>
      <point x="600" y="-372" type="curve"/>
      <point x="499" y="-173" type="line"/>
      <point x="437" y="-213"/>
      <point x="357" y="-236"/>
      <point x="290" y="-236" type="curve" smooth="yes"/>
      <point x="210" y="-236"/>
      <point x="147" y="-204"/>
      <point x="147" y="-129" type="curve" smooth="yes"/>
      <point x="147" y="-20"/>
      <point x="289" y="95"/>
      <point x="562" y="95" type="curve"/>
      <point x="590" y="319" type="line"/>
      <point x="448" y="261" type="line"/>
      <point x="229" y="227"/>
      <point x="40" y="80"/>
      <point x="40" y="-147" type="curve" smooth="yes"/>
      <point x="40" y="-337"/>
      <point x="175" y="-420"/>
    </contour>
    <contour>
      <point x="557" y="220" type="curve"/>
      <point x="590" y="319" type="line"/>
      <point x="351" y="413"/>
      <point x="190" y="439"/>
      <point x="40" y="410" type="curve"/>
      <point x="84" y="175" type="line"/>
      <point x="226" y="260"/>
      <point x="403" y="259"/>
    </contour>
  </outline>
</glyph>
<glyph name="dal-ar" format="2">
  <advance width="433"/>
  <unicode hex="062F"/>
  <anchor x="227" y="-75" name="bottom"/>
  <anchor x="214" y="600" name="top"/>
  <outline>
    <contour>
      <point x="31" y="0" type="line"/>
      <point x="223" y="0"/>
      <point x="393" y="26"/>
      <point x="393" y="199" type="curve" smooth="yes"/>
      <point x="393" y="257"/>
      <point x="378" y="345"/>
      <point x="336" y="460" type="curve"/>
      <point x="85" y="399" type="line"/>
      <point x="144" y="294"/>
      <point x="192" y="213"/>
      <point x="192" y="167" type="curve" smooth="yes"/>
      <point x="192" y="100"/>
      <point x="94" y="90"/>
      <point x="20" y="110" type="curve"/>
    </contour>
  </outline>
</glyph>
<glyph name="reh-ar" format="2">
  <advance width="300"/>
  <unicode hex="0631"/>
  <anchor x="136" y="-370" name="bottom"/>
  <anchor x="147" y="600" name="top"/>
  <outline>
    <contour>
      <point x="101" y="-340" type="line"/>
      <point x="218" y="-207"/>
      <point x="260" y="-50"/>
      <point x="260" y="99" type="curve" smooth="yes"/>
      <point x="260" y="207"/>
      <point x="238" y="311"/>
      <point x="203" y="400" type="curve"/>
      <point x="73" y="353" type="line"/>
      <point x="91" y="312"/>
      <point x="98" y="269"/>
      <point x="98" y="227" type="curve" smooth="yes"/>
      <point x="98" y="84"/>
      <point x="10" y="-57"/>
      <point x="-80" y="-149" type="curve"/>
    </contour>
  </outline>
</glyph>
<glyph name="uni0631" format="2">
	<advance width="404"/>
	<unicode hex="0631"/>
	<anchor x="157" y="-450" name="bottom"/>
	<anchor x="202" y="550" name="top"/>
	<outline>
		<contour>
			<point x="-80" y="-209" type="curve"/>
			<point x="101" y="-400" type="line"/>
			<point x="300" y="-234"/>
			<point x="364" y="-50"/>
			<point x="364" y="99" type="curve" smooth="yes"/>
			<point x="364" y="207"/>
			<point x="342" y="311"/>
			<point x="307" y="400" type="curve"/>
			<point x="177" y="353" type="line"/>
			<point x="195" y="312"/>
			<point x="202" y="269"/>
			<point x="202" y="227" type="curve" smooth="yes"/>
			<point x="202" y="50"/>
			<point x="93" y="-64"/>
		</contour>
	</outline>
</glyph>
<glyph name="seen-ar" format="2">
  <advance width="1260"/>
  <unicode hex="0633"/>
  <anchor x="831" y="-75" name="bottom"/>
  <anchor x="771" y="550" name="top"/>
  <outline>
    <contour>
      <point x="301" y="-257" type="curve" smooth="yes"/>
      <point x="552" y="-257"/>
      <point x="610" y="-26"/>
      <point x="604" y="201" type="curve" smooth="yes"/>
      <point x="603" y="212"/>
      <point x="603" y="222"/>
      <point x="602" y="233" type="curve" smooth="yes"/>
      <point x="600" y="262"/>
      <point x="599" y="281"/>
      <point x="593" y="324" type="curve"/>
      <point x="357" y="285" type="line"/>
      <point x="385" y="183"/>
      <point x="409" y="93"/>
      <point x="409" y="-27" type="curve" smooth="yes"/>
      <point x="409" y="-92"/>
      <point x="387" y="-152"/>
      <point x="330" y="-152" type="curve" smooth="yes"/>
      <point x="265" y="-152"/>
      <point x="235" y="-102"/>
      <point x="235" y="-47" type="curve" smooth="yes"/>
      <point x="235" y="8"/>
      <point x="266" y="51"/>
      <point x="315" y="88" type="curve"/>
      <point x="193" y="262" type="line"/>
      <point x="83" y="198"/>
      <point x="40" y="87"/>
      <point x="40" y="-17" type="curve" smooth="yes"/>
      <point x="40" y="-157"/>
      <point x="163" y="-257"/>
    </contour>
    <contour>
      <point x="698" y="-9" type="curve" smooth="yes"/>
      <point x="829" y="-9"/>
      <point x="906" y="100"/>
      <point x="906" y="252" type="curve" smooth="yes"/>
      <point x="906" y="278"/>
      <point x="908" y="317"/>
      <point x="909" y="334" type="curve"/>
      <point x="677" y="301" type="line"/>
      <point x="694" y="245"/>
      <point x="698" y="212"/>
      <point x="698" y="183" type="curve" smooth="yes"/>
      <point x="698" y="145"/>
      <point x="688" y="117"/>
      <point x="657" y="117" type="curve" smooth="yes"/>
      <point x="621" y="117"/>
      <point x="606" y="146"/>
      <point x="604" y="201" type="curve"/>
      <point x="507" y="183" type="line"/>
      <point x="507" y="45"/>
      <point x="598" y="-9"/>
    </contour>
    <contour>
      <point x="1011" y="-11" type="curve" smooth="yes"/>
      <point x="1154" y="-11"/>
      <point x="1220" y="97"/>
      <point x="1220" y="212" type="curve" smooth="yes"/>
      <point x="1220" y="274"/>
      <point x="1214" y="335"/>
      <point x="1202" y="430" type="curve"/>
      <point x="966" y="380" type="line"/>
      <point x="1001" y="278"/>
      <point x="1013" y="212"/>
      <point x="1013" y="168" type="curve" smooth="yes"/>
      <point x="1013" y="129"/>
      <point x="1001" y="102"/>
      <point x="970" y="102" type="curve" smooth="yes"/>
      <point x="920" y="102"/>
      <point x="906" y="153"/>
      <point x="906" y="252" type="curve"/>
      <point x="814" y="132" type="line"/>
      <point x="827" y="65"/>
      <point x="886" y="-11"/>
    </contour>
  </outline>
</glyph>
<glyph name="sad-ar" format="2">
  <advance width="1160"/>
  <unicode hex="0635"/>
  <anchor x="834" y="-75" name="bottom"/>
  <anchor x="893" y="550" name="top"/>
  <outline>
    <contour>
      <point x="306" y="-246" type="curve" smooth="yes"/>
      <point x="625" y="-246"/>
      <point x="659" y="90"/>
      <point x="614" y="344" type="curve"/>
      <point x="351" y="305" type="line"/>
      <point x="435" y="106"/>
      <point x="471" y="-151"/>
      <point x="351" y="-151" type="curve" smooth="yes"/>
      <point x="284" y="-151"/>
      <point x="254" y="-102"/>
      <point x="254" y="-47" type="curve" smooth="yes"/>
      <point x="254" y="8"/>
      <point x="285" y="51"/>
      <point x="334" y="88" type="curve"/>
      <point x="203" y="283" type="line"/>
      <point x="93" y="219"/>
      <point x="40" y="108"/>
      <point x="40" y="4" type="curve" smooth="yes"/>
      <point x="40" y="-161"/>
      <point x="168" y="-246"/>
    </contour>
    <contour>
      <point x="832" y="-10" type="curve" smooth="yes"/>
      <point x="986" y="-10"/>
      <point x="1120" y="61"/>
      <point x="1120" y="208" type="curve" smooth="yes"/>
      <point x="1120" y="331"/>
      <point x="1041" y="410"/>
      <point x="936" y="410" type="curve" smooth="yes"/>
      <point x="817" y="410"/>
      <point x="658" y="305"/>
      <point x="626" y="106" type="curve"/>
      <point x="692" y="68" type="line"/>
      <point x="738" y="207"/>
      <point x="790" y="249"/>
      <point x="838" y="249" type="curve" smooth="yes"/>
      <point x="865" y="249"/>
      <point x="890" y="227"/>
      <point x="890" y="193" type="curve" smooth="yes"/>
      <point x="890" y="155"/>
      <point x="859" y="115"/>
      <point x="794" y="115" type="curve" smooth="yes"/>
      <point x="719" y="115"/>
      <point x="640" y="167"/>
      <point x="614" y="344" type="curve"/>
      <point x="486" y="265" type="line"/>
      <point x="540" y="84"/>
      <point x="650" y="-10"/>
    </contour>
  </outline>
</glyph>
<glyph name="ain-ar" format="2">
  <advance width="590"/>
  <unicode hex="0639"/>
  <anchor x="308" y="-460" name="bottom"/>
  <anchor x="289" y="550" name="top"/>
  <outline>
    <contour>
      <point x="304" y="-422" type="curve" smooth="yes"/>
      <point x="386" y="-422"/>
      <point x="457" y="-409"/>
      <point x="570" y="-372" type="curve"/>
      <point x="480" y="-176" type="line"/>
      <point x="403" y="-223"/>
      <point x="318" y="-242"/>
      <point x="265" y="-242" type="curve" smooth="yes"/>
      <point x="194" y="-242"/>
      <point x="137" y="-214"/>
      <point x="137" y="-148" type="curve" smooth="yes"/>
      <point x="137" y="-70"/>
      <point x="254" y="8"/>
      <point x="528" y="8" type="curve"/>
      <point x="445" y="160" type="line"/>
      <point x="225" y="126"/>
      <point x="30" y="27"/>
      <point x="30" y="-166" type="curve" smooth="yes"/>
      <point x="30" y="-340"/>
      <point x="163" y="-422"/>
    </contour>
    <contour>
      <point x="528" y="8" type="line"/>
      <point x="474" y="176" type="line"/>
      <point x="383" y="154"/>
      <point x="196" y="125"/>
      <point x="196" y="203" type="curve" smooth="yes"/>
      <point x="196" y="222"/>
      <point x="220" y="237"/>
      <point x="251" y="237" type="curve" smooth="yes"/>
      <point x="281" y="237"/>
      <point x="314" y="226"/>
      <point x="340" y="201" type="curve"/>
      <point x="483" y="356" type="line"/>
      <point x="426" y="420"/>
      <point x="351" y="434"/>
      <point x="280" y="434" type="curve" smooth="yes"/>
      <point x="169" y="434"/>
      <point x="70" y="373"/>
      <point x="70" y="262" type="curve" smooth="yes"/>
      <point x="70" y="171"/>
      <point x="140" y="71"/>
      <point x="284" y="71" type="curve"/>
    </contour>
  </outline>
</glyph>
<glyph name="kaf-ar" format="2">
  <advance width="870"/>
  <unicode hex="0643"/>
  <anchor x="600" y="-75" name="bottom"/>
  <anchor x="631" y="760" name="top"/>
  <outline>
    <contour>
      <point x="502" y="-7" type="curve" smooth="yes"/>
      <point x="768" y="-7"/>
      <point x="830" y="172"/>
      <point x="830" y="397" type="curve" smooth="yes"/>
      <point x="830" y="506"/>
      <point x="821" y="624"/>
      <point x="812" y="744" type="curve"/>
      <point x="536" y="702" type="line"/>
      <point x="597" y="503"/>
      <point x="651" y="319"/>
      <point x="651" y="217" type="curve" smooth="yes"/>
      <point x="651" y="120"/>
      <point x="570" y="100"/>
      <point x="505" y="100" type="curve" smooth="yes"/>
      <point x="407" y="100"/>
      <point x="297" y="172"/>
      <point x="250" y="346" type="curve"/>
      <point x="30" y="210" type="line"/>
      <point x="148" y="27"/>
      <point x="341" y="-7"/>
    </contour>
    <contour>
      <point x="453" y="136" type="line"/>
      <point x="499" y="184"/>
      <point x="534" y="211"/>
      <point x="608" y="231" type="curve"/>
      <point x="557" y="249" type="line"/>
      <point x="493" y="242"/>
      <point x="421" y="232"/>
      <point x="392" y="205" type="curve"/>
    </contour>
    <contour>
      <point x="491" y="223" type="curve"/>
      <point x="608" y="231" type="line"/>
      <point x="582" y="285" type="line"/>
      <point x="558" y="270"/>
      <point x="521" y="262"/>
      <point x="490" y="262" type="curve" smooth="yes"/>
      <point x="467" y="262"/>
      <point x="449" y="268"/>
      <point x="449" y="281" type="curve" smooth="yes"/>
      <point x="449" y="291"/>
      <point x="461" y="299"/>
      <point x="476" y="299" type="curve" smooth="yes"/>
      <point x="492" y="299"/>
      <point x="507" y="293"/>
      <point x="521" y="280" type="curve"/>
      <point x="587" y="355" type="line"/>
      <point x="559" y="387"/>
      <point x="523" y="394"/>
      <point x="489" y="394" type="curve" smooth="yes"/>
      <point x="436" y="394"/>
      <point x="388" y="364"/>
      <point x="388" y="308" type="curve" smooth="yes"/>
      <point x="388" y="263"/>
      <point x="422" y="223"/>
    </contour>
  </outline>
</glyph>
<glyph name="lam-ar" format="2">
  <advance width="690"/>
  <unicode hex="0644"/>
  <anchor x="295" y="-290" name="bottom"/>
  <anchor x="366" y="750" name="top"/>
  <outline>
    <contour>
      <point x="296" y="-246" type="curve" smooth="yes"/>
      <point x="559" y="-246"/>
      <point x="650" y="18"/>
      <point x="650" y="265" type="curve" smooth="yes"/>
      <point x="650" y="403"/>
      <point x="643" y="581"/>
      <point x="631" y="744" type="curve"/>
      <point x="355" y="702" type="line"/>
      <point x="416" y="503"/>
      <point x="459" y="247"/>
      <point x="459" y="93" type="curve" smooth="yes"/>
      <point x="459" y="-33"/>
      <point x="431" y="-151"/>
      <point x="332" y="-151" type="curve" smooth="yes"/>
      <point x="274" y="-151"/>
      <point x="235" y="-102"/>
      <point x="235" y="-47" type="curve" smooth="yes"/>
      <point x="235" y="8"/>
      <point x="266" y="71"/>
      <point x="315" y="108" type="curve"/>
      <point x="193" y="283" type="line"/>
      <point x="83" y="219"/>
      <point x="30" y="108"/>
      <point x="30" y="4" type="curve" smooth="yes"/>
      <point x="30" y="-161"/>
      <point x="158" y="-246"/>
    </contour>
  </outline>
</glyph>
<glyph name="meem-ar" format="2">
  <advance width="670"/>
  <unicode hex="0645"/>
  <anchor x="463" y="-120" name="bottom"/>
  <anchor x="361" y="550" name="top"/>
  <outline>
    <contour>
      <point x="66" y="-382" type="curve"/>
      <point x="317" y="-296" type="line"/>
      <point x="285" y="-237"/>
      <point x="241" y="-132"/>
      <point x="241" y="-65" type="curve" smooth="yes"/>
      <point x="241" y="-26"/>
      <point x="255" y="0"/>
      <point x="293" y="0" type="curve" smooth="yes"/>
      <point x="342" y="0"/>
      <point x="418" y="-29"/>
      <point x="479" y="-29" type="curve" smooth="yes"/>
      <point x="554" y="-29"/>
      <point x="630" y="12"/>
      <point x="630" y="124" type="curve" smooth="yes"/>
      <point x="630" y="283"/>
      <point x="501" y="420"/>
      <point x="351" y="420" type="curve" smooth="yes"/>
      <point x="180" y="420"/>
      <point x="136" y="192"/>
      <point x="136" y="57" type="curve"/>
      <point x="248" y="85" type="line"/>
      <point x="248" y="147"/>
      <point x="248" y="219"/>
      <point x="307" y="219" type="curve" smooth="yes"/>
      <point x="341" y="219"/>
      <point x="380" y="186"/>
      <point x="380" y="148" type="curve" smooth="yes"/>
      <point x="380" y="82"/>
      <point x="271" y="111"/>
      <point x="223" y="111" type="curve" smooth="yes"/>
      <point x="80" y="111"/>
      <point x="40" y="-8"/>
      <point x="40" y="-149" type="curve" smooth="yes"/>
      <point x="40" y="-225"/>
      <point x="52" y="-308"/>
    </contour>
  </outline>
</glyph>
<glyph name="waw-ar" format="2">
  <advance width="520"/>
  <unicode hex="0648"/>
  <anchor x="241" y="-390" name="bottom"/>
  <anchor x="272" y="550" name="top"/>
  <outline>
    <contour>
      <point x="275" y="-360" type="line"/>
      <point x="418" y="-238"/>
      <point x="490" y="-66"/>
      <point x="490" y="119" type="curve" smooth="yes"/>
      <point x="490" y="296"/>
      <point x="386" y="399"/>
      <point x="236" y="399" type="curve" smooth="yes"/>
      <point x="117" y="399"/>
      <point x="30" y="317"/>
      <point x="30" y="205" type="curve" smooth="yes"/>
      <point x="30" y="84"/>
      <point x="144" y="-7"/>
      <point x="332" y="-7" type="curve"/>
      <point x="343" y="92" type="line"/>
      <point x="275" y="92"/>
      <point x="212" y="109"/>
      <point x="212" y="157" type="curve" smooth="yes"/>
      <point x="212" y="189"/>
      <point x="247" y="209"/>
      <point x="278" y="209" type="curve" smooth="yes"/>
      <point x="312" y="209"/>
      <point x="347" y="187"/>
      <point x="347" y="139" type="curve" smooth="yes"/>
      <point x="347" y="70"/>
      <point x="255" y="-56"/>
      <point x="94" y="-169" type="curve"/>
    </contour>
  </outline>
</glyph>
<glyph name="fathatan-ar" format="2">
  <unicode hex="064B"/>
  <anchor x="50" y="567" name="_top"/>
  <anchor x="50" y="777" name="top"/>
  <outline>
    <contour>
      <point x="-71" y="597" type="line"/>
      <point x="35" y="633"/>
      <point x="80" y="647"/>
      <point x="171" y="672" type="curve"/>
      <point x="171" y="719" type="line"/>
      <point x="84" y="706"/>
      <point x="25" y="696"/>
      <point x="-71" y="678" type="curve"/>
    </contour>
    <contour>
      <point x="-71" y="697" type="line"/>
      <point x="16" y="717"/>
      <point x="75" y="729"/>
      <point x="171" y="748" type="curve"/>
      <point x="171" y="829" type="line"/>
      <point x="65" y="792"/>
      <point x="20" y="776"/>
      <point x="-71" y="744" type="curve"/>
    </contour>
  </outline>
</glyph>
<glyph name="kasratan-ar" format="2">
  <unicode hex="064D"/>
  <anchor x="50" y="0" name="_bottom"/>
  <anchor x="50" y="-184" name="bottom"/>
  <outline>
    <contour>
      <point x="-71" y="-199" type="line"/>
      <point x="35" y="-163"/>
      <point x="80" y="-149"/>
      <point x="171" y="-124" type="curve"/>
      <point x="171" y="-77" type="line"/>
      <point x="84" y="-90"/>
      <point x="25" y="-100"/>
      <point x="-71" y="-118" type="curve"/>
    </contour>
    <contour>
      <point x="-71" y="-99" type="line"/>
      <point x="16" y="-79"/>
      <point x="75" y="-67"/>
      <point x="171" y="-48" type="curve"/>
      <point x="171" y="33" type="line"/>
      <point x="65" y="-4"/>
      <point x="20" y="-20"/>
      <point x="-71" y="-52" type="curve"/>
    </contour>
  </outline>
</glyph>
<glyph name="uni064E" format="2">
	<advance width="0"/>
	<unicode hex="064E"/>
	<anchor x="50" y="602" name="_top"/>
	<anchor x="47" y="712" name="top"/>
	<outline>
		<contour>
			<point x="-71" y="688" type="curve"/>
			<point x="-71" y="607" type="line"/>
			<point x="35" y="643"/>
			<point x="80" y="657"/>
			<point x="171" y="682" type="curve"/>
			<point x="171" y="729" type="line"/>
			<point x="84" y="716"/>
			<point x="25" y="706"/>
		</contour>
	</outline>
</glyph>
<glyph name="damma-ar" format="2">
  <unicode hex="064F"/>
  <anchor x="50" y="565" name="_top"/>
  <anchor x="50" y="770" name="top"/>
  <outline>
    <contour>
      <point x="-71" y="577" type="line"/>
      <point x="12" y="593"/>
      <point x="87" y="611"/>
      <point x="126" y="631" type="curve" smooth="yes"/>
      <point x="159" y="648"/>
      <point x="171" y="684"/>
      <point x="171" y="712" type="curve" smooth="yes"/>
      <point x="171" y="765"/>
      <point x="140" y="791"/>
      <point x="103" y="791" type="curve" smooth="yes"/>
      <point x="59" y="791"/>
      <point x="35" y="753"/>
      <point x="35" y="711" type="curve" smooth="yes"/>
      <point x="35" y="683"/>
      <point x="46" y="647"/>
      <point x="69" y="626" type="curve"/>
      <point x="111" y="633" type="line"/>
      <point x="92" y="647"/>
      <point x="75" y="663"/>
      <point x="75" y="686" type="curve" smooth="yes"/>
      <point x="75" y="699"/>
      <point x="83" y="709"/>
      <point x="96" y="709" type="curve" smooth="yes"/>
      <point x="107" y="709"/>
      <point x="115" y="702"/>
      <point x="115" y="691" type="curve" smooth="yes"/>
      <point x="115" y="680"/>
      <point x="105" y="668"/>
      <point x="70" y="664" type="curve" smooth="yes"/>
      <point x="53" y="662"/>
      <point x="2" y="658"/>
      <point x="-71" y="658" type="curve"/>
    </contour>
  </outline>
</glyph>
<glyph name="kasra-ar" format="2">
  <unicode hex="0650"/>
  <anchor x="50" y="-60" name="_bottom"/>
  <anchor x="50" y="-173" name="bottom"/>
  <outline>
    <contour>
      <point x="-71" y="-190" type="line"/>
      <point x="35" y="-154"/>
      <point x="80" y="-140"/>
      <point x="171" y="-115" type="curve"/>
      <point x="171" y="-68" type="line"/>
      <point x="84" y="-81"/>
      <point x="25" y="-91"/>
      <point x="-71" y="-109" type="curve"/>
    </contour>
  </outline>
</glyph>
<glyph name="uni0651" format="2">
	<advance width="0"/>
	<unicode hex="0651"/>
	<anchor x="50" y="558" name="_top"/>
	<anchor x="50" y="706" name="top"/>
	<outline>
		<contour>
			<point x="-3" y="584" type="curve" smooth="yes"/>
			<point x="38" y="584"/>
			<point x="63" y="612"/>
			<point x="63" y="643" type="curve"/>
			<point x="43" y="639" type="line"/>
			<point x="48" y="619"/>
			<point x="67" y="603"/>
			<point x="91" y="603" type="curve" smooth="yes"/>
			<point x="160" y="603"/>
			<point x="182" y="666"/>
			<point x="171" y="740" type="curve"/>
			<point x="94" y="727" type="line"/>
			<point x="104" y="703"/>
			<point x="111" y="675"/>
			<point x="111" y="659" type="curve" smooth="yes"/>
			<point x="111" y="648"/>
			<point x="107" y="640"/>
			<point x="96" y="640" type="curve" smooth="yes"/>
			<point x="85" y="640"/>
			<point x="83" y="650"/>
			<point x="83" y="664" type="curve" smooth="yes"/>
			<point x="83" y="675"/>
			<point x="84" y="687"/>
			<point x="85" y="700" type="curve"/>
			<point x="21" y="685" type="line"/>
			<point x="25" y="669"/>
			<point x="30" y="651"/>
			<point x="30" y="638" type="curve" smooth="yes"/>
			<point x="30" y="627"/>
			<point x="26" y="619"/>
			<point x="15" y="619" type="curve" smooth="yes"/>
			<point x="3" y="619"/>
			<point x="0" y="629"/>
			<point x="0" y="643" type="curve" smooth="yes"/>
			<point x="0" y="659"/>
			<point x="4" y="680"/>
			<point x="6" y="698" type="curve"/>
			<point x="-71" y="684" type="line"/>
			<point x="-71" y="620"/>
			<point x="-42" y="584"/>
		</contour>
	</outline>
</glyph>
<glyph name="uni0652" format="2">
	<advance width="0"/>
	<unicode hex="0652"/>
	<anchor x="50" y="567" name="_top"/>
	<anchor x="50" y="767" name="top"/>
	<outline>
		<contour>
			<point x="27" y="593" type="curve" smooth="yes"/>
			<point x="90" y="593"/>
			<point x="146" y="631"/>
			<point x="146" y="693" type="curve" smooth="yes"/>
			<point x="146" y="739"/>
			<point x="111" y="770"/>
			<point x="58" y="770" type="curve" smooth="yes"/>
			<point x="9" y="770"/>
			<point x="-54" y="731"/>
			<point x="-54" y="663" type="curve" smooth="yes"/>
			<point x="-54" y="626"/>
			<point x="-26" y="593"/>
		</contour>
		<contour>
			<point x="21" y="638" type="curve" smooth="yes"/>
			<point x="2" y="638"/>
			<point x="-9" y="646"/>
			<point x="-9" y="662" type="curve" smooth="yes"/>
			<point x="-9" y="678"/>
			<point x="10" y="699"/>
			<point x="33" y="699" type="curve" smooth="yes"/>
			<point x="52" y="699"/>
			<point x="61" y="687"/>
			<point x="61" y="672" type="curve" smooth="yes"/>
			<point x="61" y="657"/>
			<point x="46" y="638"/>
		</contour>
	</outline>
</glyph>
<glyph name="hamzaabove-ar" format="2">
  <unicode hex="0654"/>
  <anchor x="48" y="591" name="_top"/>
  <anchor x="43" y="821" name="top"/>
  <outline>
    <contour>
      <point x="58" y="682" type="line"/>
      <point x="151" y="684" type="line"/>
      <point x="151" y="735" type="line"/>
      <point x="117" y="720"/>
      <point x="105" y="715"/>
      <point x="70" y="708" type="curve" smooth="yes"/>
      <point x="18" y="698"/>
      <point x="0" y="716"/>
      <point x="0" y="731" type="curve" smooth="yes"/>
      <point x="0" y="746"/>
      <point x="12" y="749"/>
      <point x="26" y="749" type="curve" smooth="yes"/>
      <point x="41" y="749"/>
      <point x="55" y="744"/>
      <point x="68" y="734" type="curve"/>
      <point x="130" y="794" type="line"/>
      <point x="104" y="820"/>
      <point x="70" y="826"/>
      <point x="39" y="826" type="curve" smooth="yes"/>
      <point x="-11" y="826"/>
      <point x="-56" y="801"/>
      <point x="-56" y="757" type="curve" smooth="yes"/>
      <point x="-56" y="720"/>
      <point x="-24" y="688"/>
      <point x="40" y="688" type="curve"/>
    </contour>
    <contour>
      <point x="-64" y="589" type="line"/>
      <point x="30" y="625"/>
      <point x="70" y="639"/>
      <point x="151" y="664" type="curve"/>
      <point x="151" y="721" type="line"/>
      <point x="74" y="708"/>
      <point x="21" y="698"/>
      <point x="-64" y="680" type="curve"/>
    </contour>
  </outline>
</glyph>
<glyph name="uni0655" format="2">
	<advance width="0"/>
	<unicode hex="0655"/>
	<anchor x="51" y="10" name="_bottom"/>
	<anchor x="52" y="-204" name="bottom"/>
	<outline>
		<contour>
			<point x="42" y="-150" type="curve"/>
			<point x="60" y="-156" type="line"/>
			<point x="153" y="-144" type="line"/>
			<point x="153" y="-93" type="line"/>
			<point x="119" y="-108"/>
			<point x="107" y="-113"/>
			<point x="72" y="-120" type="curve" smooth="yes"/>
			<point x="20" y="-130"/>
			<point x="2" y="-112"/>
			<point x="2" y="-97" type="curve" smooth="yes"/>
			<point x="2" y="-82"/>
			<point x="14" y="-79"/>
			<point x="28" y="-79" type="curve" smooth="yes"/>
			<point x="43" y="-79"/>
			<point x="57" y="-84"/>
			<point x="70" y="-94" type="curve"/>
			<point x="132" y="-34" type="line"/>
			<point x="106" y="-8"/>
			<point x="72" y="-2"/>
			<point x="41" y="-2" type="curve" smooth="yes"/>
			<point x="-9" y="-2"/>
			<point x="-54" y="-27"/>
			<point x="-54" y="-74" type="curve" smooth="yes"/>
			<point x="-54" y="-111"/>
			<point x="-22" y="-150"/>
		</contour>
		<contour>
			<point x="-62" y="-148" type="curve"/>
			<point x="-62" y="-239" type="line"/>
			<point x="32" y="-203"/>
			<point x="72" y="-189"/>
			<point x="153" y="-164" type="curve"/>
			<point x="153" y="-107" type="line"/>
			<point x="76" y="-120"/>
			<point x="23" y="-130"/>
		</contour>
	</outline>
</glyph>
<glyph name="alefbelow-ar" format="2">
  <unicode hex="0656"/>
  <anchor x="49" y="10" name="_bottom"/>
  <anchor x="50" y="-194" name="bottom"/>
  <outline>
    <contour>
      <point x="21" y="-191" type="curve"/>
      <point x="79" y="-183" type="line"/>
      <point x="91" y="-133"/>
      <point x="96" y="-46"/>
      <point x="94" y="15" type="curve"/>
      <point x="4" y="-1" type="line"/>
      <point x="17" y="-66"/>
      <point x="20" y="-133"/>
    </contour>
  </outline>
</glyph>
<glyph name="noonghunnaabove-ar" format="2">
  <unicode hex="0658"/>
  <anchor x="51" y="617" name="_top"/>
  <anchor x="51" y="797" name="top"/>
  <outline>
    <contour>
      <point x="36" y="641" type="curve" smooth="yes"/>
      <point x="138" y="641"/>
      <point x="164" y="756"/>
      <point x="141" y="824" type="curve"/>
      <point x="57" y="812" type="line"/>
      <point x="80" y="757"/>
      <point x="90" y="673"/>
      <point x="45" y="673" type="curve" smooth="yes"/>
      <point x="28" y="673"/>
      <point x="19" y="686"/>
      <point x="19" y="698" type="curve" smooth="yes"/>
      <point x="19" y="711"/>
      <point x="24" y="725"/>
      <point x="38" y="741" type="curve"/>
      <point x="-5" y="793" type="line"/>
      <point x="-36" y="773"/>
      <point x="-48" y="741"/>
      <point x="-48" y="714" type="curve" smooth="yes"/>
      <point x="-48" y="662"/>
      <point x="-3" y="641"/>
    </contour>
  </outline>
</glyph>
<glyph name="uni0660" format="2">
	<advance width="407"/>
	<unicode hex="0660"/>
	<outline>
		<contour>
			<point x="214" y="152" type="curve"/>
			<point x="357" y="298" type="line"/>
			<point x="291" y="344"/>
			<point x="243" y="387"/>
			<point x="191" y="445" type="curve"/>
			<point x="50" y="293" type="line"/>
			<point x="93" y="239"/>
			<point x="154" y="192"/>
		</contour>
	</outline>
</glyph>
<glyph name="four-ar" format="2">
  <advance width="620"/>
  <unicode hex="0664"/>
  <outline>
    <contour>
      <point x="295" y="-10" type="curve" smooth="yes"/>
      <point x="396" y="-10"/>
      <point x="475" y="-1"/>
      <point x="590" y="28" type="curve"/>
      <point x="496" y="242" type="line"/>
      <point x="417" y="202"/>
      <point x="327" y="177"/>
      <point x="276" y="177" type="curve" smooth="yes"/>
      <point x="233" y="177"/>
      <point x="200" y="189"/>
      <point x="200" y="227" type="curve" smooth="yes"/>
      <point x="200" y="265"/>
      <point x="244" y="290"/>
      <point x="310" y="290" type="curve" smooth="yes"/>
      <point x="361" y="290"/>
      <point x="426" y="285"/>
      <point x="495" y="285" type="curve"/>
      <point x="375" y="418" type="line"/>
      <point x="222" y="366"/>
      <point x="30" y="339"/>
      <point x="30" y="167" type="curve" smooth="yes"/>
      <point x="30" y="44"/>
      <point x="159" y="-10"/>
    </contour>
    <contour>
      <point x="495" y="285" type="line"/>
      <point x="442" y="465" type="line"/>
      <point x="409" y="453"/>
      <point x="368" y="446"/>
      <point x="327" y="446" type="curve" smooth="yes"/>
      <point x="270" y="446"/>
      <point x="237" y="462"/>
      <point x="237" y="496" type="curve" smooth="yes"/>
      <point x="237" y="526"/>
      <point x="268" y="542"/>
      <point x="310" y="542" type="curve" smooth="yes"/>
      <point x="355" y="542"/>
      <point x="396" y="532"/>
      <point x="448" y="511" type="curve"/>
      <point x="555" y="663" type="line"/>
      <point x="474" y="696"/>
      <point x="411" y="710"/>
      <point x="325" y="710" type="curve" smooth="yes"/>
      <point x="172" y="710"/>
      <point x="53" y="644"/>
      <point x="53" y="532" type="curve" smooth="yes"/>
      <point x="53" y="390"/>
      <point x="188" y="343"/>
      <point x="326" y="343" type="curve"/>
    </contour>
  </outline>
</glyph>
<glyph name="uni0667" format="2">
	<advance width="720"/>
	<unicode hex="0667"/>
	<outline>
		<contour>
			<point x="364" y="87" type="curve"/>
			<point x="321" y="-12" type="line"/>
			<point x="441" y="7" type="line"/>
			<point x="503" y="195"/>
			<point x="579" y="434"/>
			<point x="700" y="644" type="curve"/>
			<point x="523" y="678" type="line"/>
			<point x="462" y="500"/>
			<point x="413" y="294"/>
		</contour>
		<contour>
			<point x="321" y="-12" type="curve"/>
			<point x="433" y="100" type="line"/>
			<point x="398" y="310"/>
			<point x="355" y="483"/>
			<point x="270" y="689" type="curve"/>
			<point x="20" y="617" type="line"/>
			<point x="164" y="401"/>
			<point x="250" y="176"/>
		</contour>
	</outline>
</glyph>
<glyph name="uni0669" format="2">
	<advance width="716"/>
	<unicode hex="0669"/>
	<outline>
		<contour>
			<point x="201" y="197" type="curve" smooth="yes"/>
			<point x="350" y="197"/>
			<point x="438" y="365"/>
			<point x="446" y="446" type="curve"/>
			<point x="371" y="485" type="line"/>
			<point x="363" y="437"/>
			<point x="322" y="392"/>
			<point x="273" y="392" type="curve" smooth="yes"/>
			<point x="240" y="392"/>
			<point x="213" y="409"/>
			<point x="213" y="444" type="curve" smooth="yes"/>
			<point x="213" y="573"/>
			<point x="465" y="588"/>
			<point x="562" y="562" type="curve"/>
			<point x="590" y="655" type="line"/>
			<point x="339" y="727"/>
			<point x="20" y="644"/>
			<point x="20" y="376" type="curve" smooth="yes"/>
			<point x="20" y="252"/>
			<point x="104" y="197"/>
		</contour>
		<contour>
			<point x="373" y="-9" type="curve"/>
			<point x="633" y="26" type="line"/>
			<point x="552" y="258"/>
			<point x="525" y="407"/>
			<point x="525" y="642" type="curve"/>
			<point x="399" y="620" type="line"/>
			<point x="387" y="576"/>
			<point x="377" y="531"/>
			<point x="371" y="485" type="curve" smooth="yes"/>
			<point x="362" y="427"/>
			<point x="349" y="159"/>
		</contour>
	</outline>
</glyph>
<glyph name="decimalseparator-ar" format="2">
  <advance width="299"/>
  <unicode hex="066B"/>
  <outline>
    <contour>
      <point x="146" y="142" type="curve" smooth="yes"/>
      <point x="79" y="142"/>
      <point x="40" y="92"/>
      <point x="40" y="44" type="curve" smooth="yes"/>
      <point x="40" y="-29"/>
      <point x="130" y="-51"/>
      <point x="167" y="-42" type="curve"/>
      <point x="147" y="-65"/>
      <point x="114" y="-100"/>
      <point x="68" y="-126" type="curve"/>
      <point x="171" y="-211" type="line"/>
      <point x="235" y="-156"/>
      <point x="264" y="-69"/>
      <point x="264" y="-3" type="curve" smooth="yes"/>
      <point x="264" y="76"/>
      <point x="222" y="142"/>
    </contour>
  </outline>
</glyph>
<glyph name="uni066C" format="2">
	<advance width="273"/>
	<unicode hex="066C"/>
	<outline>
		<contour>
			<point x="40" y="-156" type="curve"/>
			<point x="139" y="-203" type="line"/>
			<point x="224" y="-68"/>
			<point x="260" y="0"/>
			<point x="211" y="147" type="curve"/>
			<point x="41" y="120" type="line"/>
			<point x="89" y="21"/>
			<point x="99" y="-55"/>
		</contour>
	</outline>
</glyph>
<glyph name="behDotless-ar" format="2">
  <advance width="850"/>
  <unicode hex="066E"/>
  <anchor x="476" y="-75" name="bottom"/>
  <anchor x="447" y="500" name="top"/>
  <outline>
    <contour>
      <point x="481" y="-7" type="curve" smooth="yes"/>
      <point x="719" y="-7"/>
      <point x="820" y="117"/>
      <point x="820" y="269" type="curve" smooth="yes"/>
      <point x="820" y="315"/>
      <point x="813" y="362"/>
      <point x="801" y="410" type="curve"/>
      <point x="552" y="329" type="line"/>
      <point x="575" y="272"/>
      <point x="587" y="232"/>
      <point x="587" y="191" type="curve" smooth="yes"/>
      <point x="587" y="137"/>
      <point x="549" y="100"/>
      <point x="484" y="100" type="curve" smooth="yes"/>
      <point x="387" y="100"/>
      <point x="282" y="177"/>
      <point x="236" y="350" type="curve"/>
      <point x="20" y="220" type="line"/>
      <point x="138" y="37"/>
      <point x="321" y="-7"/>
    </contour>
  </outline>
</glyph>
<glyph name="qafDotless-ar" format="2">
  <advance width="860"/>
  <unicode hex="066F"/>
  <anchor x="540" y="-270" name="bottom"/>
  <anchor x="597" y="550" name="top"/>
  <outline>
    <contour>
      <point x="361" y="-249" type="curve" smooth="yes"/>
      <point x="576" y="-249"/>
      <point x="820" y="-116"/>
      <point x="820" y="159" type="curve" smooth="yes"/>
      <point x="820" y="314"/>
      <point x="730" y="402"/>
      <point x="596" y="402" type="curve" smooth="yes"/>
      <point x="428" y="402"/>
      <point x="349" y="295"/>
      <point x="349" y="198" type="curve" smooth="yes"/>
      <point x="349" y="95"/>
      <point x="463" y="0"/>
      <point x="609" y="0" type="curve"/>
      <point x="646" y="100" type="line"/>
      <point x="555" y="100"/>
      <point x="474" y="134"/>
      <point x="474" y="190" type="curve" smooth="yes"/>
      <point x="474" y="221"/>
      <point x="497" y="251"/>
      <point x="537" y="251" type="curve" smooth="yes"/>
      <point x="573" y="251"/>
      <point x="600" y="220"/>
      <point x="600" y="168" type="curve" smooth="yes"/>
      <point x="600" y="-45"/>
      <point x="454" y="-149"/>
      <point x="348" y="-149" type="curve" smooth="yes"/>
      <point x="283" y="-149"/>
      <point x="235" y="-114"/>
      <point x="235" y="-46" type="curve" smooth="yes"/>
      <point x="235" y="9"/>
      <point x="266" y="52"/>
      <point x="315" y="89" type="curve"/>
      <point x="193" y="263" type="line"/>
      <point x="83" y="199"/>
      <point x="40" y="88"/>
      <point x="40" y="9" type="curve" smooth="yes"/>
      <point x="40" y="-171"/>
      <point x="190" y="-249"/>
    </contour>
  </outline>
</glyph>
<glyph name="alefabove-ar" format="2">
  <unicode hex="0670"/>
  <anchor x="51" y="650" name="_top"/>
  <anchor x="51" y="862" name="top"/>
  <outline>
    <contour>
      <point x="21" y="653" type="curve"/>
      <point x="79" y="661" type="line"/>
      <point x="91" y="711"/>
      <point x="96" y="798"/>
      <point x="94" y="859" type="curve"/>
      <point x="4" y="843" type="line"/>
      <point x="17" y="778"/>
      <point x="20" y="711"/>
    </contour>
  </outline>
</glyph>
<glyph name="tcheh-ar" format="2">
  <advance width="630"/>
  <unicode hex="0686"/>
  <anchor x="356.5" y="-89.75" name="_center"/>
  <anchor x="272" y="-470" name="bottom"/>
  <anchor x="267" y="590" name="top"/>
  <outline>
    <contour>
      <point x="366" y="-206" type="curve"/>
      <point x="425" y="-145" type="line"/>
      <point x="398" y="-127"/>
      <point x="378" y="-109"/>
      <point x="357" y="-85" type="curve"/>
      <point x="298" y="-148" type="line"/>
      <point x="315" y="-170"/>
      <point x="341" y="-190"/>
    </contour>
    <contour>
      <point x="315" y="-108" type="curve"/>
      <point x="381" y="-40" type="line"/>
      <point x="350" y="-20"/>
      <point x="327" y="0"/>
      <point x="304" y="27" type="curve"/>
      <point x="239" y="-43" type="line"/>
      <point x="258" y="-67"/>
      <point x="287" y="-90"/>
    </contour>
    <contour>
      <point x="408" y="-108" type="curve"/>
      <point x="474" y="-40" type="line"/>
      <point x="444" y="-20"/>
      <point x="421" y="0"/>
      <point x="398" y="27" type="curve"/>
      <point x="333" y="-43" type="line"/>
      <point x="352" y="-67"/>
      <point x="381" y="-90"/>
    </contour>
    <component base="hah-ar"/>
  </outline>
</glyph>
<glyph name="uni0686" format="2">
	<advance width="630"/>
	<unicode hex="0686"/>
	<anchor x="356.5" y="-89.75" name="_center"/>
	<anchor x="338" y="-470" name="bottom"/>
	<anchor x="338" y="521" name="top"/>
	<outline>
		<component base="uni062D"/>
		<contour>
			<point x="366" y="-206" type="curve"/>
			<point x="425" y="-145" type="line"/>
			<point x="398" y="-127"/>
			<point x="378" y="-109"/>
			<point x="357" y="-85" type="curve"/>
			<point x="298" y="-148" type="line"/>
			<point x="315" y="-170"/>
			<point x="341" y="-190"/>
		</contour>
		<contour>
			<point x="315" y="-108" type="curve"/>
			<point x="381" y="-40" type="line"/>
			<point x="350" y="-20"/>
			<point x="327" y="0"/>
			<point x="304" y="27" type="curve"/>
			<point x="239" y="-43" type="line"/>
			<point x="258" y="-67"/>
			<point x="287" y="-90"/>
		</contour>
		<contour>
			<point x="408" y="-108" type="curve"/>
			<point x="474" y="-40" type="line"/>
			<point x="444" y="-20"/>
			<point x="421" y="0"/>
			<point x="398" y="27" type="curve"/>
			<point x="333" y="-43" type="line"/>
			<point x="352" y="-67"/>
			<point x="381" y="-90"/>
		</contour>
	</outline>
</glyph>
<glyph name="keheh-ar" format="2">
  <advance width="868"/>
  <unicode hex="06A9"/>
  <anchor x="518" y="-60" name="bottom"/>
  <anchor x="493" y="750" name="top"/>
  <outline>
    <contour>
      <point x="481" y="-7" type="curve" smooth="yes"/>
      <point x="609" y="-7"/>
      <point x="833" y="27"/>
      <point x="833" y="218" type="curve" smooth="yes"/>
      <point x="833" y="336"/>
      <point x="685" y="420"/>
      <point x="527" y="357" type="curve"/>
      <point x="408" y="336" type="line"/>
      <point x="467" y="232" type="line"/>
      <point x="532" y="301"/>
      <point x="603" y="262"/>
      <point x="603" y="198" type="curve" smooth="yes"/>
      <point x="603" y="130"/>
      <point x="542" y="100"/>
      <point x="486" y="100" type="curve" smooth="yes"/>
      <point x="387" y="100"/>
      <point x="282" y="177"/>
      <point x="236" y="350" type="curve"/>
      <point x="20" y="220" type="line"/>
      <point x="138" y="37"/>
      <point x="321" y="-7"/>
    </contour>
    <contour>
      <point x="433" y="305" type="line"/>
      <point x="619" y="386"/>
      <point x="736" y="439"/>
      <point x="838" y="597" type="curve"/>
      <point x="633" y="721" type="line"/>
      <point x="579" y="575"/>
      <point x="498" y="440"/>
      <point x="408" y="336" type="curve"/>
    </contour>
  </outline>
</glyph>
<glyph name="uni06A9" format="2">
	<advance width="868"/>
	<unicode hex="06A9"/>
	<anchor x="563" y="-100" name="bottom"/>
	<anchor x="567" y="800" name="top"/>
	<outline>
		<contour>
			<point x="481" y="-7" type="curve" smooth="yes"/>
			<point x="609" y="-7"/>
			<point x="833" y="27"/>
			<point x="833" y="218" type="curve" smooth="yes"/>
			<point x="833" y="336"/>
			<point x="685" y="420"/>
			<point x="527" y="357" type="curve"/>
			<point x="408" y="336" type="line"/>
			<point x="467" y="232" type="line"/>
			<point x="532" y="301"/>
			<point x="603" y="262"/>
			<point x="603" y="198" type="curve" smooth="yes"/>
			<point x="603" y="130"/>
			<point x="542" y="100"/>
			<point x="486" y="100" type="curve" smooth="yes"/>
			<point x="387" y="100"/>
			<point x="282" y="177"/>
			<point x="236" y="350" type="curve"/>
			<point x="20" y="220" type="line"/>
			<point x="138" y="37"/>
			<point x="321" y="-7"/>
		</contour>
		<contour>
			<point x="408" y="336" type="curve"/>
			<point x="433" y="305" type="line"/>
			<point x="619" y="386"/>
			<point x="766" y="499"/>
			<point x="868" y="657" type="curve"/>
			<point x="663" y="781" type="line"/>
			<point x="609" y="645"/>
			<point x="498" y="440"/>
		</contour>
	</outline>
</glyph>
<glyph name="noonghunna-ar" format="2">
  <advance width="694"/>
  <unicode hex="06BA"/>
  <anchor x="351" y="-282" name="bottom"/>
  <anchor x="305" y="550" name="top"/>
  <outline>
    <contour>
      <point x="296" y="-246" type="curve" smooth="yes"/>
      <point x="634" y="-246"/>
      <point x="717" y="112"/>
      <point x="634" y="355" type="curve"/>
      <point x="371" y="316" type="line"/>
      <point x="455" y="116"/>
      <point x="500" y="-151"/>
      <point x="332" y="-151" type="curve" smooth="yes"/>
      <point x="274" y="-151"/>
      <point x="235" y="-102"/>
      <point x="235" y="-47" type="curve" smooth="yes"/>
      <point x="235" y="8"/>
      <point x="266" y="71"/>
      <point x="315" y="108" type="curve"/>
      <point x="193" y="283" type="line"/>
      <point x="83" y="219"/>
      <point x="30" y="108"/>
      <point x="30" y="4" type="curve" smooth="yes"/>
      <point x="30" y="-161"/>
      <point x="158" y="-246"/>
    </contour>
  </outline>
</glyph>
<glyph name="hehDoachashmee-ar" format="2">
  <advance width="600"/>
  <unicode hex="06BE"/>
  <anchor x="307" y="-132" name="bottom"/>
  <anchor x="315" y="573" name="top"/>
  <outline>
    <contour>
      <point x="379" y="-29" type="curve" smooth="yes"/>
      <point x="491" y="-29"/>
      <point x="570" y="31"/>
      <point x="570" y="149" type="curve" smooth="yes"/>
      <point x="570" y="329"/>
      <point x="388" y="420"/>
      <point x="227" y="487" type="curve"/>
      <point x="92" y="296" type="line"/>
      <point x="290" y="263"/>
      <point x="422" y="225"/>
      <point x="422" y="143" type="curve" smooth="yes"/>
      <point x="422" y="100"/>
      <point x="394" y="65"/>
      <point x="323" y="65" type="curve" smooth="yes"/>
      <point x="227" y="65"/>
      <point x="162" y="135"/>
      <point x="162" y="197" type="curve" smooth="yes"/>
      <point x="162" y="245"/>
      <point x="187" y="268"/>
      <point x="223" y="268" type="curve" smooth="yes"/>
      <point x="251" y="268"/>
      <point x="280" y="249"/>
      <point x="280" y="199" type="curve" smooth="yes"/>
      <point x="280" y="100"/>
      <point x="141" y="100"/>
      <point x="50" y="136" type="curve"/>
      <point x="20" y="-27" type="line"/>
      <point x="234" y="-72"/>
      <point x="345" y="80"/>
      <point x="345" y="189" type="curve" smooth="yes"/>
      <point x="345" y="271"/>
      <point x="309" y="339"/>
      <point x="223" y="339" type="curve" smooth="yes"/>
      <point x="164" y="339"/>
      <point x="92" y="291"/>
      <point x="92" y="195" type="curve" smooth="yes"/>
      <point x="92" y="82"/>
      <point x="199" y="-29"/>
    </contour>
  </outline>
</glyph>
<glyph name="uni06BE" format="2">
	<advance width="600"/>
	<unicode hex="06BE"/>
	<anchor x="307" y="-100" name="bottom"/>
	<anchor x="315" y="570" name="top"/>
	<outline>
		<contour>
			<point x="379" y="-29" type="curve" smooth="yes"/>
			<point x="491" y="-29"/>
			<point x="570" y="31"/>
			<point x="570" y="149" type="curve" smooth="yes"/>
			<point x="570" y="329"/>
			<point x="388" y="420"/>
			<point x="227" y="487" type="curve"/>
			<point x="92" y="296" type="line"/>
			<point x="290" y="263"/>
			<point x="422" y="225"/>
			<point x="422" y="143" type="curve" smooth="yes"/>
			<point x="422" y="100"/>
			<point x="394" y="65"/>
			<point x="323" y="65" type="curve" smooth="yes"/>
			<point x="227" y="65"/>
			<point x="162" y="135"/>
			<point x="162" y="197" type="curve" smooth="yes"/>
			<point x="162" y="245"/>
			<point x="183" y="268"/>
			<point x="212" y="268" type="curve" smooth="yes"/>
			<point x="235" y="268"/>
			<point x="258" y="249"/>
			<point x="258" y="199" type="curve" smooth="yes"/>
			<point x="258" y="107"/>
			<point x="157" y="82"/>
			<point x="50" y="136" type="curve"/>
			<point x="20" y="-27" type="line"/>
			<point x="234" y="-72"/>
			<point x="345" y="80"/>
			<point x="345" y="189" type="curve" smooth="yes"/>
			<point x="345" y="271"/>
			<point x="309" y="339"/>
			<point x="223" y="339" type="curve" smooth="yes"/>
			<point x="164" y="339"/>
			<point x="92" y="291"/>
			<point x="92" y="195" type="curve" smooth="yes"/>
			<point x="92" y="82"/>
			<point x="199" y="-29"/>
		</contour>
	</outline>
</glyph>
<glyph name="uni06D2" format="2">
	<advance width="820"/>
	<unicode hex="06D2"/>
	<anchor x="300" y="-127" name="bottom"/>
	<anchor x="300" y="550" name="top"/>
	<outline>
		<contour>
			<point x="176" y="-43" type="curve" smooth="yes"/>
			<point x="331" y="-43"/>
			<point x="533" y="0"/>
			<point x="772" y="0" type="curve"/>
			<point x="800" y="200" type="line"/>
			<point x="555" y="200"/>
			<point x="383" y="71"/>
			<point x="274" y="71" type="curve" smooth="yes"/>
			<point x="244" y="71"/>
			<point x="222" y="81"/>
			<point x="222" y="113" type="curve" smooth="yes"/>
			<point x="222" y="157"/>
			<point x="291" y="203"/>
			<point x="379" y="203" type="curve" smooth="yes"/>
			<point x="404" y="203"/>
			<point x="429" y="201"/>
			<point x="453" y="188" type="curve"/>
			<point x="427" y="413" type="line"/>
			<point x="400" y="430"/>
			<point x="371" y="438"/>
			<point x="341" y="438" type="curve" smooth="yes"/>
			<point x="189" y="438"/>
			<point x="20" y="242"/>
			<point x="20" y="80" type="curve" smooth="yes"/>
			<point x="20" y="-17"/>
			<point x="101" y="-43"/>
		</contour>
	</outline>
</glyph>
<glyph name="yehbarree-ar" format="2">
  <advance width="820"/>
  <unicode hex="06D2"/>
  <anchor x="300" y="-94" name="bottom"/>
  <anchor x="300" y="600" name="top"/>
  <outline>
    <contour>
      <point x="176" y="-43" type="curve" smooth="yes"/>
      <point x="331" y="-43"/>
      <point x="533" y="0"/>
      <point x="772" y="0" type="curve"/>
      <point x="800" y="200" type="line"/>
      <point x="555" y="200"/>
      <point x="383" y="41"/>
      <point x="274" y="41" type="curve" smooth="yes"/>
      <point x="244" y="41"/>
      <point x="222" y="51"/>
      <point x="222" y="83" type="curve" smooth="yes"/>
      <point x="222" y="127"/>
      <point x="291" y="203"/>
      <point x="379" y="203" type="curve" smooth="yes"/>
      <point x="404" y="203"/>
      <point x="429" y="201"/>
      <point x="453" y="188" type="curve"/>
      <point x="427" y="413" type="line"/>
      <point x="400" y="430"/>
      <point x="371" y="438"/>
      <point x="341" y="438" type="curve" smooth="yes"/>
      <point x="189" y="438"/>
      <point x="20" y="242"/>
      <point x="20" y="80" type="curve" smooth="yes"/>
      <point x="20" y="-17"/>
      <point x="101" y="-43"/>
    </contour>
  </outline>
</glyph>
<glyph name="fullstop-ar" format="2">
  <advance width="320"/>
  <unicode hex="06D4"/>
  <outline>
    <contour>
      <point x="40" y="26" type="line"/>
      <point x="109" y="23"/>
      <point x="198" y="21"/>
      <point x="272" y="26" type="curve"/>
      <point x="280" y="130" type="line"/>
      <point x="195" y="121"/>
      <point x="128" y="122"/>
      <point x="48" y="130" type="curve"/>
    </contour>
  </outline>
</glyph>
<glyph name="uni06F4" format="2">
	<advance width="788"/>
	<unicode hex="06F4"/>
	<outline>
		<contour>
			<point x="103" y="0" type="curve"/>
			<point x="257" y="21" type="line"/>
			<point x="284" y="153"/>
			<point x="299" y="335"/>
			<point x="302" y="498" type="curve" smooth="yes"/>
			<point x="303" y="570"/>
			<point x="304" y="608"/>
			<point x="297" y="690" type="curve"/>
			<point x="40" y="634" type="line"/>
			<point x="93" y="413"/>
			<point x="105" y="198"/>
		</contour>
		<contour>
			<point x="713" y="259" type="curve"/>
			<point x="673" y="439" type="line"/>
			<point x="543" y="374"/>
			<point x="302" y="373"/>
			<point x="302" y="498" type="curve"/>
			<point x="265" y="428" type="line"/>
			<point x="265" y="226"/>
			<point x="528" y="217"/>
		</contour>
		<contour>
			<point x="689" y="304" type="curve"/>
			<point x="673" y="439" type="line"/>
			<point x="643" y="428"/>
			<point x="604" y="422"/>
			<point x="568" y="422" type="curve" smooth="yes"/>
			<point x="518" y="422"/>
			<point x="481" y="435"/>
			<point x="481" y="471" type="curve" smooth="yes"/>
			<point x="481" y="504"/>
			<point x="515" y="517"/>
			<point x="558" y="517" type="curve" smooth="yes"/>
			<point x="600" y="517"/>
			<point x="650" y="504"/>
			<point x="683" y="485" type="curve"/>
			<point x="758" y="654" type="line"/>
			<point x="676" y="678"/>
			<point x="621" y="689"/>
			<point x="545" y="689" type="curve" smooth="yes"/>
			<point x="419" y="689"/>
			<point x="338" y="640"/>
			<point x="338" y="523" type="curve" smooth="yes"/>
			<point x="338" y="377"/>
			<point x="542" y="304"/>
		</contour>
	</outline>
</glyph>
<glyph name="sixFarsi-ar" format="2">
  <advance width="538"/>
  <unicode hex="06F6"/>
  <outline>
    <contour>
      <point x="267" y="-10" type="line"/>
      <point x="267" y="219"/>
      <point x="308" y="304"/>
      <point x="439" y="304" type="curve"/>
      <point x="400" y="388" type="line"/>
      <point x="148" y="388"/>
      <point x="45" y="162"/>
      <point x="30" y="7" type="curve"/>
    </contour>
    <contour>
      <point x="439" y="304" type="curve"/>
      <point x="423" y="439" type="line"/>
      <point x="393" y="428"/>
      <point x="354" y="422"/>
      <point x="318" y="422" type="curve" smooth="yes"/>
      <point x="268" y="422"/>
      <point x="231" y="435"/>
      <point x="231" y="471" type="curve" smooth="yes"/>
      <point x="231" y="504"/>
      <point x="265" y="517"/>
      <point x="308" y="517" type="curve" smooth="yes"/>
      <point x="350" y="517"/>
      <point x="400" y="504"/>
      <point x="433" y="485" type="curve"/>
      <point x="508" y="654" type="line"/>
      <point x="426" y="678"/>
      <point x="371" y="689"/>
      <point x="295" y="689" type="curve" smooth="yes"/>
      <point x="169" y="689"/>
      <point x="88" y="640"/>
      <point x="88" y="523" type="curve" smooth="yes"/>
      <point x="88" y="377"/>
      <point x="292" y="304"/>
    </contour>
  </outline>
</glyph>
<glyph name="emdash" format="2">
  <advance width="852"/>
  <unicode hex="2014"/>
  <outline>
    <contour>
      <point x="27" y="207" type="line"/>
      <point x="293" y="222"/>
      <point x="559" y="226"/>
      <point x="825" y="221" type="curve"/>
      <point x="823" y="381" type="line"/>
      <point x="559" y="398"/>
      <point x="294" y="405"/>
      <point x="30" y="402" type="curve"/>
    </contour>
  </outline>
</glyph>
<glyph name="quotesinglbase" format="2">
  <advance width="271"/>
  <unicode hex="201A"/>
  <outline>
    <contour>
      <point x="40" y="-141" type="curve"/>
      <point x="153" y="-130" type="line"/>
      <point x="199" y="-32"/>
      <point x="225" y="66"/>
      <point x="231" y="164" type="curve"/>
      <point x="57" y="147" type="line"/>
      <point x="71" y="51"/>
      <point x="46" y="-45"/>
    </contour>
  </outline>
</glyph>
<glyph name="dagger" format="2">
  <advance width="540"/>
  <unicode hex="2020"/>
  <outline>
    <contour>
      <point x="178" y="-210" type="curve"/>
      <point x="318" y="-203" type="line"/>
      <point x="338" y="143"/>
      <point x="337" y="468"/>
      <point x="317" y="774" type="curve"/>
      <point x="147" y="757" type="line"/>
      <point x="177" y="455"/>
      <point x="188" y="132"/>
    </contour>
    <contour>
      <point x="513" y="318" type="curve"/>
      <point x="510" y="513" type="line"/>
      <point x="383" y="516"/>
      <point x="155" y="509"/>
      <point x="28" y="492" type="curve"/>
      <point x="27" y="342" type="line"/>
      <point x="156" y="344"/>
      <point x="384" y="336"/>
    </contour>
  </outline>
</glyph>
<glyph name="trademark" format="2">
  <advance width="1047"/>
  <unicode hex="2122"/>
  <anchor x="379" y="800" name="top"/>
  <outline>
    <contour>
      <point x="150" y="391" type="curve"/>
      <point x="252" y="409" type="line"/>
      <point x="272" y="559"/>
      <point x="277" y="646"/>
      <point x="275" y="784" type="curve"/>
      <point x="136" y="763" type="line"/>
      <point x="151" y="632"/>
      <point x="155" y="525"/>
    </contour>
    <contour>
      <point x="376" y="713" type="line"/>
      <point x="377" y="800" type="line"/>
      <point x="27" y="775" type="line"/>
      <point x="29" y="720" type="line"/>
    </contour>
    <contour>
      <point x="427" y="391" type="curve"/>
      <point x="529" y="409" type="line"/>
      <point x="552" y="580"/>
      <point x="552" y="635"/>
      <point x="552" y="784" type="curve"/>
      <point x="414" y="763" type="line"/>
      <point x="430" y="621"/>
      <point x="432" y="537"/>
    </contour>
    <contour>
      <point x="635" y="396" type="curve"/>
      <point x="772" y="417" type="line"/>
      <point x="772" y="613"/>
      <point x="736" y="780"/>
      <point x="629" y="780" type="curve" smooth="yes"/>
      <point x="565" y="780"/>
      <point x="516" y="705"/>
      <point x="495" y="496" type="curve"/>
      <point x="542" y="514" type="line"/>
      <point x="556" y="652"/>
      <point x="578" y="725"/>
      <point x="620" y="725" type="curve" smooth="yes"/>
      <point x="676" y="725"/>
      <point x="648" y="472"/>
    </contour>
    <contour>
      <point x="866" y="397" type="curve"/>
      <point x="998" y="412" type="line"/>
      <point x="1009" y="580"/>
      <point x="978" y="783"/>
      <point x="847" y="783" type="curve" smooth="yes"/>
      <point x="729" y="783"/>
      <point x="717" y="622"/>
      <point x="715" y="524" type="curve"/>
      <point x="772" y="417" type="line"/>
      <point x="779" y="496"/>
      <point x="768" y="725"/>
      <point x="830" y="725" type="curve" smooth="yes"/>
      <point x="893" y="725"/>
      <point x="874" y="435"/>
    </contour>
  </outline>
</glyph>
<glyph name="notequal" format="2">
	<advance width="480"/>
	<unicode hex="2260"/>
	<outline>
		<contour>
			<point x="453" y="158" type="curve"/>
			<point x="450" y="353" type="line"/>
			<point x="323" y="356"/>
			<point x="175" y="349"/>
			<point x="48" y="332" type="curve"/>
			<point x="47" y="182" type="line"/>
			<point x="176" y="184"/>
			<point x="324" y="176"/>
		</contour>
		<contour>
			<point x="30" y="553" type="curve"/>
			<point x="27" y="358" type="line"/>
			<point x="156" y="376"/>
			<point x="304" y="384"/>
			<point x="433" y="382" type="curve"/>
			<point x="432" y="532" type="line"/>
			<point x="305" y="549"/>
			<point x="157" y="556"/>
		</contour>
		<contour>
			<point x="139" y="45" type="line"/>
			<point x="434" y="628" type="line"/>
			<point x="358" y="682" type="line"/>
			<point x="77" y="100" type="line"/>
		</contour>
	</outline>
</glyph>
<glyph name="rial" format="2">
  <advance width="1355"/>
  <unicode hex="FDFC"/>
  <outline>
    <contour>
      <point x="296" y="-246" type="curve" smooth="yes"/>
      <point x="559" y="-246"/>
      <point x="650" y="18"/>
      <point x="650" y="265" type="curve" smooth="yes"/>
      <point x="650" y="403"/>
      <point x="643" y="613"/>
      <point x="631" y="776" type="curve"/>
      <point x="355" y="734" type="line"/>
      <point x="416" y="535"/>
      <point x="459" y="247"/>
      <point x="459" y="93" type="curve" smooth="yes"/>
      <point x="459" y="-33"/>
      <point x="431" y="-151"/>
      <point x="332" y="-151" type="curve" smooth="yes"/>
      <point x="274" y="-151"/>
      <point x="235" y="-102"/>
      <point x="235" y="-47" type="curve" smooth="yes"/>
      <point x="235" y="8"/>
      <point x="266" y="71"/>
      <point x="315" y="108" type="curve"/>
      <point x="193" y="283" type="line"/>
      <point x="83" y="219"/>
      <point x="30" y="108"/>
      <point x="30" y="4" type="curve" smooth="yes"/>
      <point x="30" y="-161"/>
      <point x="158" y="-246"/>
    </contour>
    <contour>
      <point x="995" y="-40" type="curve" smooth="yes"/>
      <point x="1220" y="-40"/>
      <point x="1305" y="75"/>
      <point x="1305" y="266" type="curve" smooth="yes"/>
      <point x="1305" y="305"/>
      <point x="1302" y="346"/>
      <point x="1295" y="389" type="curve"/>
      <point x="1045" y="329" type="line"/>
      <point x="1060" y="274"/>
      <point x="1077" y="209"/>
      <point x="1077" y="157" type="curve" smooth="yes"/>
      <point x="1077" y="101"/>
      <point x="1058" y="60"/>
      <point x="995" y="60" type="curve" smooth="yes"/>
      <point x="928" y="60"/>
      <point x="915" y="121"/>
      <point x="917" y="214" type="curve" smooth="yes"/>
      <point x="920" y="343"/>
      <point x="941" y="607"/>
      <point x="965" y="774" type="curve"/>
      <point x="709" y="746" type="line"/>
      <point x="710" y="593"/>
      <point x="714" y="343"/>
      <point x="739" y="185" type="curve" smooth="yes"/>
      <point x="762" y="38"/>
      <point x="852" y="-40"/>
    </contour>
    <contour>
      <point x="946" y="-252" type="curve"/>
      <point x="999" y="-197" type="line"/>
      <point x="1021" y="-218"/>
      <point x="1046" y="-236"/>
      <point x="1071" y="-252" type="curve"/>
      <point x="1159" y="-162" type="line"/>
      <point x="1118" y="-135"/>
      <point x="1088" y="-108"/>
      <point x="1057" y="-73" type="curve"/>
      <point x="998" y="-136" type="line"/>
      <point x="974" y="-117"/>
      <point x="953" y="-97"/>
      <point x="932" y="-73" type="curve"/>
      <point x="845" y="-166" type="line"/>
      <point x="871" y="-199"/>
      <point x="909" y="-228"/>
    </contour>
    <contour>
      <point x="371" y="149" type="line"/>
      <point x="659" y="375"/>
      <point x="833" y="372"/>
      <point x="1014" y="387" type="curve" smooth="yes"/>
      <point x="1276" y="409"/>
      <point x="1322" y="589"/>
      <point x="1276" y="790" type="curve"/>
      <point x="1025" y="734" type="line"/>
      <point x="1043" y="693"/>
      <point x="1114" y="497"/>
      <point x="885" y="484" type="curve" smooth="yes"/>
      <point x="642" y="470"/>
      <point x="484" y="472"/>
      <point x="257" y="325" type="curve"/>
    </contour>
  </outline>
</glyph>
<glyph name="A.salt" format="2">
  <advance width="847"/>
  <anchor x="397" y="0" name="bottom"/>
  <anchor x="800" y="24" name="ogonek"/>
  <anchor x="397" y="800" name="top"/>
  <outline>
    <contour>
      <point x="209" y="-17" type="line"/>
      <point x="293" y="227"/>
      <point x="340" y="414"/>
      <point x="389" y="632" type="curve"/>
      <point x="516" y="728" type="line"/>
      <point x="337" y="750" type="line"/>
      <point x="238" y="445"/>
      <point x="178" y="269"/>
      <point x="37" y="17" type="curve"/>
    </contour>
    <contour>
      <point x="192" y="182" type="line"/>
      <point x="361" y="153"/>
      <point x="543" y="151"/>
      <point x="657" y="213" type="curve"/>
      <point x="648" y="294" type="line"/>
      <point x="541" y="279"/>
      <point x="376" y="247"/>
      <point x="228" y="313" type="curve"/>
    </contour>
    <contour>
      <point x="528" y="-13" type="curve"/>
      <point x="810" y="24" type="line"/>
      <point x="716" y="202"/>
      <point x="580" y="503"/>
      <point x="516" y="728" type="curve"/>
      <point x="346" y="675" type="line"/>
      <point x="414" y="361"/>
      <point x="437" y="229"/>
    </contour>
  </outline>
</glyph>
<glyph name="C_H" format="2">
  <advance width="1505"/>
  <outline>
    <contour>
      <point x="441" y="-2" type="curve" smooth="yes"/>
      <point x="517" y="-2"/>
      <point x="595" y="16"/>
      <point x="667" y="54" type="curve"/>
      <point x="667" y="152" type="line"/>
      <point x="616" y="130"/>
      <point x="558" y="117"/>
      <point x="503" y="117" type="curve" smooth="yes"/>
      <point x="400" y="117"/>
      <point x="299" y="171"/>
      <point x="299" y="315" type="curve" smooth="yes"/>
      <point x="299" y="476"/>
      <point x="500" y="645"/>
      <point x="981" y="561" type="curve"/>
      <point x="1005" y="730" type="line"/>
      <point x="499" y="860"/>
      <point x="32" y="687"/>
      <point x="32" y="356" type="curve" smooth="yes"/>
      <point x="32" y="138"/>
      <point x="228" y="-2"/>
    </contour>
    <contour>
      <point x="992" y="526" type="curve"/>
      <point x="733" y="485" type="line"/>
      <point x="749" y="270"/>
      <point x="749" y="151"/>
      <point x="742" y="-18" type="curve"/>
      <point x="946" y="18" type="line"/>
      <point x="977" y="247"/>
      <point x="990" y="343"/>
    </contour>
    <contour>
      <point x="1224" y="-12" type="curve"/>
      <point x="1427" y="30" type="line"/>
      <point x="1458" y="322"/>
      <point x="1464" y="465"/>
      <point x="1453" y="750" type="curve"/>
      <point x="1177" y="700" type="line"/>
      <point x="1220" y="398"/>
      <point x="1224" y="304"/>
    </contour>
    <contour>
      <point x="1430" y="335" type="curve"/>
      <point x="1390" y="456" type="line"/>
      <point x="1231" y="393"/>
      <point x="942" y="387"/>
      <point x="774" y="412" type="curve"/>
      <point x="764" y="341" type="line"/>
      <point x="947" y="284"/>
      <point x="1278" y="312"/>
    </contour>
  </outline>
</glyph>
<glyph name="F.salt" format="2">
  <advance width="462"/>
  <outline>
    <contour>
      <point x="53" y="5" type="curve"/>
      <point x="309" y="33" type="line"/>
      <point x="266" y="204"/>
      <point x="231" y="357"/>
      <point x="231" y="449" type="curve" smooth="yes"/>
      <point x="231" y="587"/>
      <point x="325" y="579"/>
      <point x="435" y="556" type="curve"/>
      <point x="417" y="776" type="line"/>
      <point x="101" y="797"/>
      <point x="47" y="579"/>
      <point x="47" y="262" type="curve" smooth="yes"/>
      <point x="47" y="179"/>
      <point x="51" y="91"/>
    </contour>
    <contour>
      <point x="367" y="288" type="curve"/>
      <point x="370" y="424" type="line"/>
      <point x="294" y="408"/>
      <point x="202" y="411"/>
      <point x="81" y="423" type="curve"/>
      <point x="80" y="311" type="line"/>
      <point x="187" y="297"/>
      <point x="286" y="290"/>
    </contour>
  </outline>
</glyph>
<glyph name="L.salt" format="2">
  <advance width="544"/>
  <anchor x="330" y="-30" name="bottom"/>
  <anchor x="292" y="325" name="center"/>
  <anchor x="190" y="800" name="top"/>
  <anchor x="425" y="720" name="topright"/>
  <outline>
    <contour>
      <point x="47" y="61"/>
      <point x="258" y="-36"/>
      <point x="517" y="-13" type="curve"/>
      <point x="477" y="172" type="line"/>
      <point x="394" y="135"/>
      <point x="245" y="102"/>
      <point x="245" y="245" type="curve" smooth="yes"/>
      <point x="245" y="365"/>
      <point x="307" y="551"/>
      <point x="355" y="761" type="curve"/>
      <point x="69" y="750" type="line"/>
      <point x="54" y="598"/>
      <point x="47" y="533"/>
      <point x="47" y="357" type="curve" smooth="yes"/>
    </contour>
  </outline>
</glyph>
<glyph name="L_A" format="2">
  <advance width="1137"/>
  <outline>
    <contour>
      <point x="66" y="25" type="curve"/>
      <point x="227" y="54" type="line"/>
      <point x="289" y="280"/>
      <point x="324" y="473"/>
      <point x="324" y="754" type="curve"/>
      <point x="47" y="766" type="line"/>
      <point x="98" y="457"/>
      <point x="98" y="337"/>
    </contour>
    <contour>
      <point x="711" y="15" type="curve"/>
      <point x="691" y="181" type="line"/>
      <point x="523" y="127"/>
      <point x="242" y="123"/>
      <point x="117" y="143" type="curve"/>
      <point x="66" y="25" type="line"/>
      <point x="240" y="-7"/>
      <point x="640" y="-5"/>
    </contour>
    <contour>
      <point x="816" y="-17" type="curve"/>
      <point x="1070" y="14" type="line"/>
      <point x="1130" y="435"/>
      <point x="1059" y="766"/>
      <point x="787" y="766" type="curve" smooth="yes"/>
      <point x="489" y="766"/>
      <point x="397" y="452"/>
      <point x="426" y="203" type="curve"/>
      <point x="698" y="220" type="line"/>
      <point x="682" y="265"/>
      <point x="670" y="670"/>
      <point x="791" y="670" type="curve" smooth="yes"/>
      <point x="922" y="670"/>
      <point x="841" y="95"/>
    </contour>
    <contour>
      <point x="503" y="362" type="line"/>
      <point x="691" y="335"/>
      <point x="894" y="333"/>
      <point x="1021" y="393" type="curve"/>
      <point x="1011" y="474" type="line"/>
      <point x="892" y="459"/>
      <point x="708" y="427"/>
      <point x="543" y="493" type="curve"/>
    </contour>
  </outline>
</glyph>
<glyph name="N_T" format="2">
  <advance width="1373"/>
  <outline>
    <contour>
      <point x="324" y="-6" type="line"/>
      <point x="321" y="263"/>
      <point x="306" y="448"/>
      <point x="260" y="742" type="curve"/>
      <point x="57" y="704" type="line"/>
      <point x="70" y="357"/>
      <point x="78" y="341"/>
      <point x="47" y="0" type="curve"/>
    </contour>
    <contour>
      <point x="584" y="0" type="curve" smooth="yes"/>
      <point x="811" y="0"/>
      <point x="808" y="338"/>
      <point x="762" y="593" type="curve"/>
      <point x="526" y="569" type="line"/>
      <point x="586" y="370"/>
      <point x="649" y="111"/>
      <point x="551" y="111" type="curve" smooth="yes"/>
      <point x="472" y="111"/>
      <point x="339" y="482"/>
      <point x="260" y="742" type="curve"/>
      <point x="188" y="578" type="line"/>
      <point x="211" y="455"/>
      <point x="371" y="0"/>
    </contour>
    <contour>
      <point x="892" y="-18" type="curve"/>
      <point x="1096" y="18" type="line"/>
      <point x="1136" y="318"/>
      <point x="1146" y="492"/>
      <point x="1142" y="767" type="curve"/>
      <point x="865" y="725" type="line"/>
      <point x="895" y="463"/>
      <point x="902" y="249"/>
    </contour>
    <contour>
      <point x="1345" y="626" type="line"/>
      <point x="1346" y="800" type="line"/>
      <point x="547" y="750" type="line"/>
      <point x="551" y="640" type="line"/>
    </contour>
  </outline>
</glyph>
<glyph name="T_T" format="2">
  <advance width="1293"/>
  <outline>
    <contour>
      <point x="272" y="-18" type="curve"/>
      <point x="476" y="18" type="line"/>
      <point x="516" y="318"/>
      <point x="526" y="562"/>
      <point x="522" y="837" type="curve"/>
      <point x="245" y="795" type="line"/>
      <point x="275" y="533"/>
      <point x="282" y="249"/>
    </contour>
    <contour>
      <point x="811" y="-18" type="curve"/>
      <point x="1015" y="18" type="line"/>
      <point x="1055" y="318"/>
      <point x="1065" y="492"/>
      <point x="1061" y="767" type="curve"/>
      <point x="784" y="725" type="line"/>
      <point x="814" y="463"/>
      <point x="821" y="249"/>
    </contour>
    <contour>
      <point x="1265" y="626" type="line"/>
      <point x="1266" y="800" type="line"/>
      <point x="27" y="750" type="line"/>
      <point x="31" y="640" type="line"/>
    </contour>
  </outline>
</glyph>
<glyph name="_cap.strokebutt" format="2">
  <advance width="180"/>
  <anchor x="50" y="25" name="origin"/>
  <outline>
    <contour>
      <point x="50" y="25" type="move"/>
      <point x="70" y="75" type="line"/>
      <point x="50" y="125" type="line"/>
    </contour>
  </outline>
</glyph>
<glyph name="ain-ar.fina" format="2">
  <advance width="630"/>
  <anchor x="301" y="-460" name="bottom"/>
  <anchor x="334" y="550" name="top"/>
  <outline>
    <contour>
      <point x="306" y="-422" type="curve" smooth="yes"/>
      <point x="389" y="-422"/>
      <point x="481" y="-409"/>
      <point x="594" y="-372" type="curve"/>
      <point x="504" y="-159" type="line"/>
      <point x="426" y="-219"/>
      <point x="320" y="-242"/>
      <point x="267" y="-242" type="curve" smooth="yes"/>
      <point x="195" y="-242"/>
      <point x="138" y="-214"/>
      <point x="138" y="-148" type="curve" smooth="yes"/>
      <point x="138" y="34"/>
      <point x="578" y="58"/>
      <point x="578" y="306" type="curve" smooth="yes"/>
      <point x="578" y="418"/>
      <point x="489" y="461"/>
      <point x="364" y="461" type="curve" smooth="yes"/>
      <point x="268" y="461"/>
      <point x="159" y="424"/>
      <point x="51" y="377" type="curve"/>
      <point x="106" y="255" type="line"/>
      <point x="167" y="298"/>
      <point x="252" y="334"/>
      <point x="297" y="334" type="curve" smooth="yes"/>
      <point x="347" y="334"/>
      <point x="368" y="311"/>
      <point x="368" y="281" type="curve" smooth="yes"/>
      <point x="368" y="153"/>
      <point x="30" y="100"/>
      <point x="30" y="-166" type="curve" smooth="yes"/>
      <point x="30" y="-340"/>
      <point x="164" y="-422"/>
    </contour>
    <contour>
      <point x="630" y="0" type="curve"/>
      <point x="630" y="100" type="line"/>
      <point x="382" y="100"/>
      <point x="251" y="318"/>
      <point x="51" y="377" type="curve"/>
      <point x="66" y="178" type="line"/>
      <point x="248" y="178"/>
      <point x="367" y="0"/>
    </contour>
  </outline>
</glyph>
<glyph name="ain-ar.init" format="2">
  <advance width="520"/>
  <anchor x="262" y="-60" name="bottom"/>
  <anchor x="252" y="550" name="top"/>
  <outline>
    <contour>
      <point x="490" y="62" type="line"/>
      <point x="433" y="221" type="line"/>
      <point x="364" y="184"/>
      <point x="297" y="167"/>
      <point x="247" y="167" type="curve" smooth="yes"/>
      <point x="195" y="167"/>
      <point x="161" y="186"/>
      <point x="161" y="220" type="curve" smooth="yes"/>
      <point x="161" y="249"/>
      <point x="194" y="265"/>
      <point x="234" y="265" type="curve" smooth="yes"/>
      <point x="261" y="265"/>
      <point x="292" y="258"/>
      <point x="316" y="241" type="curve"/>
      <point x="447" y="386" type="line"/>
      <point x="403" y="429"/>
      <point x="334" y="451"/>
      <point x="265" y="451" type="curve" smooth="yes"/>
      <point x="152" y="451"/>
      <point x="40" y="392"/>
      <point x="40" y="272" type="curve" smooth="yes"/>
      <point x="40" y="181"/>
      <point x="107" y="81"/>
      <point x="246" y="81" type="curve"/>
    </contour>
    <contour>
      <point x="0" y="0" type="line"/>
      <point x="139" y="0"/>
      <point x="331" y="17"/>
      <point x="490" y="62" type="curve"/>
      <point x="295" y="163" type="line"/>
      <point x="162" y="119"/>
      <point x="93" y="100"/>
      <point x="0" y="100" type="curve"/>
    </contour>
  </outline>
</glyph>
<glyph name="ain-ar.medi" format="2">
  <advance width="620"/>
  <anchor x="292" y="-60" name="bottom"/>
  <anchor x="334" y="550" name="top"/>
  <outline>
    <contour>
      <point x="0" y="0" type="line"/>
      <point x="108" y="0"/>
      <point x="568" y="71"/>
      <point x="568" y="306" type="curve" smooth="yes"/>
      <point x="568" y="418"/>
      <point x="479" y="461"/>
      <point x="354" y="461" type="curve" smooth="yes"/>
      <point x="258" y="461"/>
      <point x="153" y="425"/>
      <point x="40" y="377" type="curve"/>
      <point x="99" y="259" type="line"/>
      <point x="163" y="300"/>
      <point x="237" y="334"/>
      <point x="284" y="334" type="curve" smooth="yes"/>
      <point x="338" y="334"/>
      <point x="358" y="311"/>
      <point x="358" y="281" type="curve" smooth="yes"/>
      <point x="358" y="151"/>
      <point x="141" y="100"/>
      <point x="0" y="100" type="curve"/>
    </contour>
    <contour>
      <point x="620" y="0" type="curve"/>
      <point x="620" y="100" type="line"/>
      <point x="372" y="100"/>
      <point x="240" y="318"/>
      <point x="40" y="377" type="curve"/>
      <point x="56" y="188" type="line"/>
      <point x="250" y="188"/>
      <point x="357" y="0"/>
    </contour>
  </outline>
</glyph>
<glyph name="ain_reh-ar" format="2">
  <advance width="720"/>
  <anchor x="491" y="-42" name="bottom_1"/>
  <anchor x="278" y="-329" name="bottom_2"/>
  <anchor x="299" y="0" name="caret_1"/>
  <anchor x="468" y="569" name="top_1"/>
  <anchor x="130" y="400" name="top_2"/>
  <outline>
    <contour>
      <point x="121" y="-430" type="line"/>
      <point x="218" y="-309"/>
      <point x="220" y="-182"/>
      <point x="220" y="-86" type="curve" smooth="yes"/>
      <point x="220" y="-37"/>
      <point x="226" y="7"/>
      <point x="281" y="7" type="curve" smooth="yes"/>
      <point x="383" y="7"/>
      <point x="531" y="17"/>
      <point x="690" y="62" type="curve"/>
      <point x="495" y="163" type="line"/>
      <point x="389" y="112"/>
      <point x="321" y="107"/>
      <point x="270" y="107" type="curve" smooth="yes"/>
      <point x="185" y="107"/>
      <point x="113" y="115"/>
      <point x="73" y="-30" type="curve" smooth="yes"/>
      <point x="46" y="-129"/>
      <point x="7" y="-191"/>
      <point x="-70" y="-251" type="curve"/>
    </contour>
    <contour>
      <point x="690" y="62" type="line"/>
      <point x="633" y="221" type="line"/>
      <point x="564" y="184"/>
      <point x="497" y="167"/>
      <point x="447" y="167" type="curve" smooth="yes"/>
      <point x="395" y="167"/>
      <point x="361" y="186"/>
      <point x="361" y="220" type="curve" smooth="yes"/>
      <point x="361" y="249"/>
      <point x="394" y="265"/>
      <point x="434" y="265" type="curve" smooth="yes"/>
      <point x="461" y="265"/>
      <point x="492" y="258"/>
      <point x="516" y="241" type="curve"/>
      <point x="647" y="386" type="line"/>
      <point x="603" y="429"/>
      <point x="534" y="451"/>
      <point x="465" y="451" type="curve" smooth="yes"/>
      <point x="352" y="451"/>
      <point x="240" y="392"/>
      <point x="240" y="272" type="curve" smooth="yes"/>
      <point x="240" y="181"/>
      <point x="307" y="81"/>
      <point x="446" y="81" type="curve"/>
    </contour>
  </outline>
</glyph>
<glyph name="alef-ar.fina" format="2">
  <advance width="326"/>
  <anchor x="162" y="-75" name="bottom"/>
  <anchor x="161" y="775" name="top"/>
  <outline>
    <contour>
      <point x="326" y="0" type="curve"/>
      <point x="326" y="100" type="line"/>
      <point x="259" y="100"/>
      <point x="246" y="161"/>
      <point x="248" y="254" type="curve" smooth="yes"/>
      <point x="251" y="383"/>
      <point x="272" y="573"/>
      <point x="296" y="740" type="curve"/>
      <point x="40" y="712" type="line"/>
      <point x="41" y="559"/>
      <point x="45" y="383"/>
      <point x="70" y="225" type="curve" smooth="yes"/>
      <point x="93" y="78"/>
      <point x="183" y="0"/>
    </contour>
  </outline>
</glyph>
<glyph name="alef-ar.fina.salt" format="2">
  <advance width="327"/>
  <anchor x="162" y="-75" name="bottom"/>
  <anchor x="151" y="740" name="top"/>
  <outline>
    <contour>
      <point x="327" y="0" type="curve"/>
      <point x="327" y="100" type="line"/>
      <point x="260" y="100"/>
      <point x="242" y="161"/>
      <point x="249" y="254" type="curve" smooth="yes"/>
      <point x="257" y="363"/>
      <point x="275" y="536"/>
      <point x="296" y="690" type="curve"/>
      <point x="40" y="662" type="line"/>
      <point x="44" y="522"/>
      <point x="51" y="363"/>
      <point x="71" y="225" type="curve" smooth="yes"/>
      <point x="92" y="78"/>
      <point x="184" y="0"/>
    </contour>
  </outline>
</glyph>
<glyph name="alef-ar.salt" format="2">
  <advance width="336"/>
  <anchor x="162" y="-75" name="bottom"/>
  <anchor x="153" y="740" name="top"/>
  <outline>
    <contour>
      <point x="87" y="-31" type="curve"/>
      <point x="211" y="-1" type="line"/>
      <point x="264" y="180"/>
      <point x="300" y="461"/>
      <point x="296" y="687" type="curve"/>
      <point x="40" y="652" type="line"/>
      <point x="80" y="433"/>
      <point x="87" y="217"/>
    </contour>
  </outline>
</glyph>
<glyph name="alefMaksura-ar.fina" format="2">
  <advance width="760"/>
  <anchor x="439" y="-381" name="bottom"/>
  <anchor x="329" y="195" name="top"/>
  <outline>
    <contour>
      <point x="760" y="0" type="curve"/>
      <point x="760" y="100" type="line"/>
      <point x="657" y="100"/>
      <point x="578" y="142"/>
      <point x="440" y="130" type="curve"/>
      <point x="496" y="22" type="line"/>
      <point x="588" y="15"/>
      <point x="662" y="0"/>
    </contour>
    <contour>
      <point x="411" y="-310" type="curve" smooth="yes"/>
      <point x="643" y="-310"/>
      <point x="737" y="-156"/>
      <point x="737" y="-30" type="curve" smooth="yes"/>
      <point x="737" y="100"/>
      <point x="626" y="111"/>
      <point x="440" y="130" type="curve"/>
      <point x="402" y="-60" type="line"/>
      <point x="528" y="-36"/>
      <point x="637" y="-44"/>
      <point x="637" y="-82" type="curve" smooth="yes"/>
      <point x="637" y="-130"/>
      <point x="556" y="-162"/>
      <point x="481" y="-162" type="curve" smooth="yes"/>
      <point x="379" y="-162"/>
      <point x="272" y="-119"/>
      <point x="247" y="142" type="curve"/>
      <point x="20" y="52" type="line"/>
      <point x="46" y="-197"/>
      <point x="247" y="-310"/>
    </contour>
  </outline>
</glyph>
<glyph name="behDotless-ar.fina" format="2">
  <advance width="880"/>
  <anchor x="476" y="-75" name="bottom"/>
  <anchor x="447" y="500" name="top"/>
  <outline>
    <contour>
      <point x="481" y="-7" type="curve"/>
      <point x="651" y="-7"/>
      <point x="750" y="64"/>
      <point x="750" y="172" type="curve"/>
      <point x="812" y="202" type="line"/>
      <point x="812" y="265"/>
      <point x="815" y="306"/>
      <point x="806" y="360" type="curve"/>
      <point x="552" y="289" type="line"/>
      <point x="595" y="202"/>
      <point x="595" y="100"/>
      <point x="484" y="100" type="curve" smooth="yes"/>
      <point x="387" y="100"/>
      <point x="282" y="177"/>
      <point x="236" y="350" type="curve"/>
      <point x="20" y="220" type="line"/>
      <point x="138" y="37"/>
      <point x="321" y="-7"/>
    </contour>
    <contour>
      <point x="880" y="0" type="curve"/>
      <point x="880" y="100" type="line"/>
      <point x="840" y="100"/>
      <point x="812" y="131"/>
      <point x="812" y="202" type="curve"/>
      <point x="705" y="202" type="line"/>
      <point x="705" y="68"/>
      <point x="769" y="0"/>
    </contour>
  </outline>
</glyph>
<glyph name="behDotless-ar.medi" format="2">
  <advance width="380"/>
  <anchor x="175" y="-75" name="bottom"/>
  <anchor x="186" y="500" name="top"/>
  <outline>
    <contour>
      <point x="0" y="0" type="line"/>
      <point x="138" y="0"/>
      <point x="241" y="64"/>
      <point x="241" y="172" type="curve"/>
      <point x="308" y="202" type="line"/>
      <point x="308" y="232"/>
      <point x="311" y="275"/>
      <point x="320" y="340" type="curve"/>
      <point x="52" y="305" type="line"/>
      <point x="91" y="173"/>
      <point x="65" y="100"/>
      <point x="0" y="100" type="curve"/>
    </contour>
    <contour>
      <point x="380" y="0" type="curve"/>
      <point x="380" y="100" type="line"/>
      <point x="330" y="100"/>
      <point x="308" y="131"/>
      <point x="308" y="202" type="curve"/>
      <point x="196" y="202" type="line"/>
      <point x="196" y="68"/>
      <point x="259" y="0"/>
    </contour>
  </outline>
</glyph>
<glyph name="behDotless_reh-ar.fina" format="2">
  <advance width="627"/>
  <anchor x="468" y="-94" name="bottom_1"/>
  <anchor x="254" y="-327" name="bottom_2"/>
  <anchor x="321" y="0" name="caret_1"/>
  <anchor x="433" y="450" name="top_1"/>
  <anchor x="115" y="400" name="top_2"/>
  <outline>
    <contour>
      <point x="111" y="-420" type="line"/>
      <point x="217" y="-300"/>
      <point x="267" y="-115"/>
      <point x="265" y="71" type="curve" smooth="yes"/>
      <point x="264" y="169"/>
      <point x="293" y="215"/>
      <point x="329" y="217" type="curve"/>
      <point x="412" y="217"/>
      <point x="337" y="0"/>
      <point x="627" y="0" type="curve"/>
      <point x="627" y="100" type="line"/>
      <point x="522" y="100"/>
      <point x="626" y="364"/>
      <point x="415" y="364" type="curve" smooth="yes"/>
      <point x="327" y="364"/>
      <point x="157" y="329"/>
      <point x="107" y="101" type="curve" smooth="yes"/>
      <point x="69" y="-71"/>
      <point x="33" y="-134"/>
      <point x="-70" y="-229" type="curve"/>
    </contour>
  </outline>
</glyph>
<glyph name="behDotless_reh-ar" format="2">
  <advance width="640"/>
  <anchor x="471" y="-86" name="bottom_1"/>
  <anchor x="277" y="-357" name="bottom_2"/>
  <anchor x="293" y="0" name="caret_1"/>
  <anchor x="452" y="470" name="top_1"/>
  <anchor x="131" y="400" name="top_2"/>
  <outline>
    <contour>
      <point x="121" y="-430" type="line"/>
      <point x="218" y="-309"/>
      <point x="220" y="-182"/>
      <point x="220" y="-101" type="curve" smooth="yes"/>
      <point x="220" y="118"/>
      <point x="600" y="-96"/>
      <point x="600" y="306" type="curve" smooth="yes"/>
      <point x="600" y="344"/>
      <point x="596" y="383"/>
      <point x="590" y="419" type="curve"/>
      <point x="340" y="339" type="line"/>
      <point x="355" y="314"/>
      <point x="372" y="249"/>
      <point x="372" y="197" type="curve" smooth="yes"/>
      <point x="372" y="58"/>
      <point x="128" y="167"/>
      <point x="73" y="-30" type="curve" smooth="yes"/>
      <point x="45" y="-129"/>
      <point x="7" y="-191"/>
      <point x="-70" y="-251" type="curve"/>
    </contour>
  </outline>
</glyph>
<glyph name="caron.ar" format="2">
	<advance width="300"/>
	<anchor x="150" y="520" name="_top"/>
	<anchor x="150" y="752" name="top"/>
	<outline>
		<contour>
			<point x="106" y="731" type="curve"/>
			<point x="21" y="690" type="line"/>
			<point x="64" y="648"/>
			<point x="96" y="606"/>
			<point x="137" y="551" type="curve"/>
			<point x="160" y="582" type="line"/>
			<point x="145" y="637"/>
			<point x="125" y="685"/>
		</contour>
		<contour>
			<point x="289" y="688" type="curve"/>
			<point x="204" y="731" type="line"/>
			<point x="185" y="685"/>
			<point x="165" y="637"/>
			<point x="150" y="582" type="curve"/>
			<point x="137" y="551" type="line"/>
			<point x="172" y="551" type="line"/>
			<point x="213" y="606"/>
			<point x="246" y="646"/>
		</contour>
	</outline>
</glyph>
<glyph name="dal-ar.fina" format="2">
  <advance width="450"/>
  <anchor x="257" y="-75" name="bottom"/>
  <anchor x="244" y="600" name="top"/>
  <outline>
    <contour>
      <point x="31" y="0" type="line"/>
      <point x="228" y="0"/>
      <point x="332" y="62"/>
      <point x="332" y="150" type="curve"/>
      <point x="273" y="150" type="line"/>
      <point x="273" y="71"/>
      <point x="341" y="0"/>
      <point x="450" y="0" type="curve"/>
      <point x="450" y="100" type="line"/>
      <point x="407" y="100"/>
      <point x="379" y="122"/>
      <point x="379" y="217" type="curve" smooth="yes"/>
      <point x="379" y="254"/>
      <point x="378" y="366"/>
      <point x="360" y="450" type="curve"/>
      <point x="119" y="402" type="line"/>
      <point x="152" y="328"/>
      <point x="188" y="236"/>
      <point x="188" y="187" type="curve" smooth="yes"/>
      <point x="188" y="100"/>
      <point x="96" y="90"/>
      <point x="20" y="110" type="curve"/>
    </contour>
  </outline>
</glyph>
<glyph name="dotabove-ar" format="2">
  <anchor x="56" y="654" name="_top"/>
  <anchor x="50" y="855" name="top"/>
  <outline>
    <contour>
      <point x="57" y="654" type="curve"/>
      <point x="149" y="748" type="line"/>
      <point x="106" y="777"/>
      <point x="75" y="805"/>
      <point x="42" y="842" type="curve"/>
      <point x="-49" y="744" type="line"/>
      <point x="-22" y="710"/>
      <point x="18" y="679"/>
    </contour>
  </outline>
</glyph>
<glyph name="f_f" format="2">
  <advance width="819"/>
  <outline>
    <contour>
      <point x="694" y="-2" type="line"/>
      <point x="659" y="156"/>
      <point x="619" y="364"/>
      <point x="608" y="450" type="curve" smooth="yes"/>
      <point x="591" y="589"/>
      <point x="659" y="606"/>
      <point x="800" y="572" type="curve"/>
      <point x="782" y="742" type="line"/>
      <point x="565" y="742"/>
      <point x="451" y="624"/>
      <point x="443" y="357" type="curve" smooth="yes"/>
      <point x="440" y="262"/>
      <point x="436" y="133"/>
      <point x="438" y="0" type="curve"/>
    </contour>
    <contour>
      <point x="337" y="-2" type="line"/>
      <point x="302" y="156"/>
      <point x="262" y="364"/>
      <point x="251" y="450" type="curve" smooth="yes"/>
      <point x="234" y="589"/>
      <point x="302" y="606"/>
      <point x="443" y="572" type="curve"/>
      <point x="425" y="742" type="line"/>
      <point x="208" y="742"/>
      <point x="94" y="624"/>
      <point x="86" y="357" type="curve" smooth="yes"/>
      <point x="83" y="262"/>
      <point x="79" y="133"/>
      <point x="81" y="0" type="curve"/>
    </contour>
    <contour>
      <point x="737" y="334" type="curve"/>
      <point x="752" y="435" type="line"/>
      <point x="632" y="458"/>
      <point x="142" y="470"/>
      <point x="5" y="456" type="curve"/>
      <point x="23" y="380" type="line"/>
      <point x="150" y="386"/>
      <point x="624" y="367"/>
    </contour>
  </outline>
</glyph>
<glyph name="f_j" format="2">
  <advance width="663"/>
  <outline>
    <contour>
      <point x="337" y="-2" type="line"/>
      <point x="302" y="156"/>
      <point x="262" y="364"/>
      <point x="251" y="450" type="curve" smooth="yes"/>
      <point x="234" y="589"/>
      <point x="302" y="606"/>
      <point x="443" y="572" type="curve"/>
      <point x="425" y="742" type="line"/>
      <point x="208" y="742"/>
      <point x="94" y="624"/>
      <point x="86" y="357" type="curve" smooth="yes"/>
      <point x="83" y="262"/>
      <point x="79" y="133"/>
      <point x="81" y="0" type="curve"/>
    </contour>
    <contour>
      <point x="281" y="-283" type="line"/>
      <point x="495" y="-299"/>
      <point x="601" y="-207"/>
      <point x="623" y="21" type="curve" smooth="yes"/>
      <point x="635" y="140"/>
      <point x="633" y="257"/>
      <point x="625" y="435" type="curve"/>
      <point x="363" y="397" type="line"/>
      <point x="396" y="197"/>
      <point x="420" y="88"/>
      <point x="420" y="-17" type="curve" smooth="yes"/>
      <point x="420" y="-144"/>
      <point x="392" y="-194"/>
      <point x="263" y="-183" type="curve"/>
    </contour>
    <contour>
      <point x="610" y="334" type="curve"/>
      <point x="625" y="435" type="line"/>
      <point x="505" y="458"/>
      <point x="142" y="470"/>
      <point x="5" y="456" type="curve"/>
      <point x="23" y="380" type="line"/>
      <point x="150" y="386"/>
      <point x="497" y="367"/>
    </contour>
  </outline>
</glyph>
<glyph name="f_t" format="2">
  <advance width="848"/>
  <outline>
    <contour>
      <point x="337" y="-2" type="line"/>
      <point x="302" y="156"/>
      <point x="262" y="364"/>
      <point x="251" y="450" type="curve" smooth="yes"/>
      <point x="234" y="589"/>
      <point x="302" y="606"/>
      <point x="443" y="572" type="curve"/>
      <point x="425" y="742" type="line"/>
      <point x="208" y="742"/>
      <point x="94" y="624"/>
      <point x="86" y="357" type="curve" smooth="yes"/>
      <point x="83" y="262"/>
      <point x="79" y="133"/>
      <point x="81" y="0" type="curve"/>
    </contour>
    <contour>
      <point x="737" y="334" type="curve"/>
      <point x="752" y="435" type="line"/>
      <point x="632" y="458"/>
      <point x="142" y="470"/>
      <point x="5" y="456" type="curve"/>
      <point x="23" y="380" type="line"/>
      <point x="150" y="386"/>
      <point x="624" y="367"/>
    </contour>
    <contour>
      <point x="810" y="-1" type="curve"/>
      <point x="818" y="219" type="line"/>
      <point x="671" y="207"/>
      <point x="641" y="255"/>
      <point x="645" y="327" type="curve" smooth="yes"/>
      <point x="651" y="441"/>
      <point x="677" y="588"/>
      <point x="702" y="743" type="curve"/>
      <point x="466" y="717" type="line"/>
      <point x="464" y="589"/>
      <point x="468" y="432"/>
      <point x="468" y="339" type="curve" smooth="yes"/>
      <point x="468" y="109"/>
      <point x="551" y="-16"/>
    </contour>
  </outline>
</glyph>
<glyph name="f_y" format="2">
	<advance width="1015"/>
	<outline>
		<contour>
			<point x="81" y="0" type="curve"/>
			<point x="337" y="-2" type="line"/>
			<point x="302" y="156"/>
			<point x="262" y="364"/>
			<point x="251" y="450" type="curve" smooth="yes"/>
			<point x="234" y="589"/>
			<point x="302" y="606"/>
			<point x="443" y="572" type="curve"/>
			<point x="425" y="742" type="line"/>
			<point x="208" y="742"/>
			<point x="94" y="624"/>
			<point x="86" y="357" type="curve" smooth="yes"/>
			<point x="83" y="262"/>
			<point x="79" y="133"/>
		</contour>
		<contour>
			<point x="560" y="334" type="curve"/>
			<point x="625" y="435" type="line"/>
			<point x="505" y="458"/>
			<point x="142" y="470"/>
			<point x="5" y="456" type="curve"/>
			<point x="23" y="380" type="line"/>
			<point x="150" y="386"/>
			<point x="497" y="367"/>
		</contour>
		<contour>
			<point x="491" y="-85" type="curve"/>
			<point x="394" y="-274" type="line"/>
			<point x="650" y="-370"/>
			<point x="872" y="-329"/>
			<point x="932" y="-39" type="curve" smooth="yes"/>
			<point x="956" y="77"/>
			<point x="969" y="285"/>
			<point x="975" y="468" type="curve"/>
			<point x="729" y="436" type="line"/>
			<point x="767" y="217"/>
			<point x="783" y="73"/>
			<point x="767" y="-44" type="curve" smooth="yes"/>
			<point x="744" y="-214"/>
			<point x="660" y="-209"/>
		</contour>
		<contour>
			<point x="560" y="-30" type="curve" smooth="yes"/>
			<point x="674" y="-30"/>
			<point x="796" y="102"/>
			<point x="796" y="276" type="curve"/>
			<point x="729" y="436" type="line"/>
			<point x="700" y="213"/>
			<point x="658" y="100"/>
			<point x="611" y="100" type="curve" smooth="yes"/>
			<point x="522" y="100"/>
			<point x="591" y="353"/>
			<point x="625" y="435" type="curve"/>
			<point x="377" y="447" type="line"/>
			<point x="356" y="273"/>
			<point x="378" y="-30"/>
		</contour>
	</outline>
</glyph>
<glyph name="fehDotless-ar.init" format="2">
  <advance width="551"/>
  <anchor x="241" y="-75" name="bottom"/>
  <anchor x="286" y="550" name="top"/>
  <outline>
    <contour>
      <point x="0" y="0" type="line"/>
      <point x="291" y="0"/>
      <point x="511" y="86"/>
      <point x="511" y="255" type="curve" smooth="yes"/>
      <point x="511" y="368"/>
      <point x="421" y="432"/>
      <point x="287" y="432" type="curve" smooth="yes"/>
      <point x="119" y="432"/>
      <point x="40" y="337"/>
      <point x="40" y="251" type="curve" smooth="yes"/>
      <point x="40" y="159"/>
      <point x="138" y="96"/>
      <point x="241" y="75" type="curve"/>
      <point x="311" y="131" type="line"/>
      <point x="220" y="152"/>
      <point x="165" y="198"/>
      <point x="165" y="231" type="curve" smooth="yes"/>
      <point x="165" y="256"/>
      <point x="188" y="280"/>
      <point x="228" y="280" type="curve" smooth="yes"/>
      <point x="264" y="280"/>
      <point x="291" y="262"/>
      <point x="291" y="233" type="curve" smooth="yes"/>
      <point x="291" y="169"/>
      <point x="170" y="100"/>
      <point x="0" y="100" type="curve"/>
    </contour>
  </outline>
</glyph>
<glyph name="fehDotless-ar.medi" format="2">
  <advance width="560"/>
  <anchor x="238" y="-75" name="bottom"/>
  <anchor x="290" y="550" name="top"/>
  <outline>
    <contour>
      <point x="0" y="0" type="line"/>
      <point x="291" y="0"/>
      <point x="511" y="86"/>
      <point x="511" y="255" type="curve" smooth="yes"/>
      <point x="511" y="368"/>
      <point x="421" y="432"/>
      <point x="287" y="432" type="curve" smooth="yes"/>
      <point x="119" y="432"/>
      <point x="40" y="337"/>
      <point x="40" y="251" type="curve" smooth="yes"/>
      <point x="40" y="76"/>
      <point x="333" y="0"/>
      <point x="560" y="0" type="curve"/>
      <point x="560" y="100" type="line"/>
      <point x="333" y="100"/>
      <point x="165" y="174"/>
      <point x="165" y="231" type="curve" smooth="yes"/>
      <point x="165" y="256"/>
      <point x="188" y="280"/>
      <point x="228" y="280" type="curve" smooth="yes"/>
      <point x="264" y="280"/>
      <point x="291" y="262"/>
      <point x="291" y="233" type="curve" smooth="yes"/>
      <point x="291" y="169"/>
      <point x="170" y="100"/>
      <point x="0" y="100" type="curve"/>
    </contour>
  </outline>
</glyph>
